<svg width="35" height="35" viewBox="0 0 35 35" fill="none" xmlns="http://www.w3.org/2000/svg">
<g clip-path="url(#clip0)">
<g style="mix-blend-mode:multiply" opacity="0.6">
<g style="mix-blend-mode:multiply" opacity="0.6">
<path d="M29.2851 29.2857C35.9846 22.5863 35.9846 11.7243 29.2851 5.02481C22.5856 -1.67467 11.7236 -1.67467 5.02415 5.02481C-1.67533 11.7243 -1.67533 22.5863 5.02415 29.2857C11.7236 35.9852 22.5856 35.9852 29.2851 29.2857Z" fill="#231F20"/>
</g>
</g>
<path d="M29.2851 29.2857C35.9846 22.5863 35.9846 11.7243 29.2851 5.02481C22.5856 -1.67467 11.7236 -1.67467 5.02415 5.02481C-1.67533 11.7243 -1.67533 22.5863 5.02415 29.2857C11.7236 35.9852 22.5856 35.9852 29.2851 29.2857Z" fill="#B77E30"/>
<path d="M13.1916 14.5298H9.46924V24.9306H13.1916V14.5298Z" fill="#F7F7F5"/>
<path d="M15.1111 14.53H17.9836V15.975C17.9836 15.975 18.425 14.5164 21.0797 14.5164C23.2715 14.5164 24.8409 15.3701 24.8409 17.7156V24.9308H21.7817C21.7817 24.9308 21.7817 18.8649 21.807 18.6704C21.8323 18.476 21.6359 16.9532 20.0723 16.9532C18.5086 16.9532 18.0166 18.087 18.0166 18.9311V24.9308H15.1111V14.53Z" fill="#F7F7F5"/>
<path d="M11.3284 13.1003C12.3563 13.1003 13.1896 12.267 13.1896 11.2391C13.1896 10.2112 12.3563 9.37793 11.3284 9.37793C10.3005 9.37793 9.46722 10.2112 9.46722 11.2391C9.46722 12.267 10.3005 13.1003 11.3284 13.1003Z" fill="#F7F7F5"/>
</g>
<defs>
<clipPath id="clip0">
<rect width="34.3082" height="34.3082" fill="white"/>
</clipPath>
</defs>
</svg>
