<svg width="35" height="35" viewBox="0 0 35 35" fill="none" xmlns="http://www.w3.org/2000/svg">
<g clip-path="url(#clip0)">
<g style="mix-blend-mode:multiply" opacity="0.6">
<g style="mix-blend-mode:multiply" opacity="0.6">
<path d="M17.1551 34.3101C26.6296 34.3101 34.3101 26.6296 34.3101 17.1551C34.3101 7.68059 26.6296 0 17.1551 0C7.68059 0 0 7.68059 0 17.1551C0 26.6296 7.68059 34.3101 17.1551 34.3101Z" fill="#231F20"/>
</g>
</g>
<path d="M17.1551 34.3101C26.6296 34.3101 34.3101 26.6296 34.3101 17.1551C34.3101 7.68059 26.6296 0 17.1551 0C7.68059 0 0 7.68059 0 17.1551C0 26.6296 7.68059 34.3101 17.1551 34.3101Z" fill="#B77E30"/>
<path d="M20.9144 26.9939H13.3938C11.7819 26.9923 10.2365 26.3513 9.09673 25.2115C7.95694 24.0718 7.31594 22.5263 7.31439 20.9144V13.3939C7.31594 11.782 7.95694 10.2366 9.09673 9.09679C10.2365 7.957 11.7819 7.316 13.3938 7.31445H20.9144C22.5263 7.316 24.0717 7.957 25.2115 9.09679C26.3513 10.2366 26.9923 11.782 26.9938 13.3939V20.9144C26.9923 22.5263 26.3513 24.0718 25.2115 25.2115C24.0717 26.3513 22.5263 26.9923 20.9144 26.9939ZM13.3938 9.50819C12.3622 9.50819 11.3729 9.91798 10.6435 10.6474C9.91403 11.3769 9.50424 12.3662 9.50424 13.3978V20.9183C9.50424 21.9499 9.91403 22.9392 10.6435 23.6687C11.3729 24.3981 12.3622 24.8079 13.3938 24.8079H20.9144C21.946 24.8079 22.9353 24.3981 23.6647 23.6687C24.3942 22.9392 24.804 21.9499 24.804 20.9183V13.3939C24.804 12.3623 24.3942 11.373 23.6647 10.6435C22.9353 9.91409 21.946 9.5043 20.9144 9.5043L13.3938 9.50819Z" fill="#F7F7F5"/>
<path d="M17.1551 22.1842C16.1598 22.1846 15.1868 21.8898 14.3592 21.3371C13.5315 20.7844 12.8863 19.9987 12.5053 19.0793C12.1243 18.1599 12.0245 17.1481 12.2185 16.172C12.4126 15.1958 12.8918 14.2992 13.5956 13.5954C14.2993 12.8917 15.1959 12.4125 16.1721 12.2184C17.1482 12.0243 18.16 12.1241 19.0794 12.5052C19.9988 12.8862 20.7846 13.5314 21.3372 14.3591C21.8899 15.1867 22.1847 16.1597 22.1843 17.155C22.1823 18.4882 21.6518 19.7662 20.709 20.7089C19.7663 21.6516 18.4883 22.1822 17.1551 22.1842ZM17.1551 14.0977C16.5503 14.0974 15.9591 14.2763 15.4561 14.612C14.953 14.9477 14.5609 15.4251 14.3292 15.9837C14.0975 16.5423 14.0367 17.157 14.1544 17.7502C14.2722 18.3434 14.5632 18.8883 14.9907 19.3161C15.4182 19.7438 15.9629 20.0352 16.556 20.1533C17.1491 20.2714 17.7639 20.211 18.3226 19.9797C18.8814 19.7483 19.359 19.3565 19.695 18.8537C20.031 18.3509 20.2104 17.7597 20.2104 17.155C20.2099 16.3446 19.8879 15.5676 19.315 14.9944C18.7422 14.4213 17.9654 14.0988 17.1551 14.0977Z" fill="#F7F7F5"/>
<path d="M22.4391 12.6822C22.9085 12.6822 23.289 12.3017 23.289 11.8323C23.289 11.3629 22.9085 10.9824 22.4391 10.9824C21.9697 10.9824 21.5892 11.3629 21.5892 11.8323C21.5892 12.3017 21.9697 12.6822 22.4391 12.6822Z" fill="#F7F7F5"/>
</g>
<defs>
<clipPath id="clip0">
<rect width="34.3082" height="34.3082" fill="white"/>
</clipPath>
</defs>
</svg>
