<svg width="35" height="35" viewBox="0 0 35 35" fill="none" xmlns="http://www.w3.org/2000/svg">
<g clip-path="url(#clip0)">
<path d="M29.2851 29.2857C35.9846 22.5863 35.9846 11.7243 29.2851 5.02481C22.5856 -1.67467 11.7236 -1.67467 5.02418 5.02481C-1.6753 11.7243 -1.6753 22.5863 5.02418 29.2857C11.7236 35.9852 22.5856 35.9852 29.2851 29.2857Z" fill="#B77E30"/>
<path d="M24.5492 9.65967C24.1439 9.22122 23.6493 8.87475 23.0988 8.6436C22.5483 8.41246 21.9546 8.30201 21.3578 8.31971C18.954 8.3975 16.7214 9.87555 16.9781 13.6387C16.9781 13.6387 13.3588 14.7434 7.72281 9.38351C7.72281 9.38351 5.91026 12.3396 9.11529 15.1246C9.11529 15.1246 8.21484 15.3735 7.01296 14.7045C7.01296 14.7045 6.36923 17.1997 10.4941 19.09C10.4941 19.09 9.10167 19.479 8.47156 19.09C8.47156 19.09 8.83912 21.7447 12.544 22.3748C12.544 22.3748 10.6381 24.2671 6.12613 24.2146C6.12613 24.2146 15.4942 29.0085 21.9918 22.8532C26.6438 18.4463 25.9942 12.5749 25.9942 12.5749C26.9268 12.224 27.701 11.5478 28.1743 10.671C28.1743 10.671 26.6185 11.1572 25.7316 11.0774C25.7316 11.0774 27.4392 10.0136 27.5714 8.74367C27.5714 8.75145 26.1128 9.78997 24.5492 9.65967Z" fill="#F3F7F7"/>
</g>
<defs>
<clipPath id="clip0">
<rect width="34.3082" height="34.3082" fill="white"/>
</clipPath>
</defs>
</svg>
