<svg width="35" height="35" viewBox="0 0 35 35" fill="none" xmlns="http://www.w3.org/2000/svg">
<g clip-path="url(#clip0)">
<g style="mix-blend-mode:multiply" opacity="0.6">
<g style="mix-blend-mode:multiply" opacity="0.6">
<path d="M29.2851 29.2857C35.9846 22.5863 35.9846 11.7243 29.2851 5.02481C22.5856 -1.67467 11.7236 -1.67467 5.02415 5.02481C-1.67533 11.7243 -1.67533 22.5863 5.02415 29.2857C11.7236 35.9852 22.5856 35.9852 29.2851 29.2857Z" fill="#231F20"/>
</g>
</g>
<path d="M29.2851 29.2857C35.9846 22.5863 35.9846 11.7243 29.2851 5.02481C22.5856 -1.67467 11.7236 -1.67467 5.02415 5.02481C-1.67533 11.7243 -1.67533 22.5863 5.02415 29.2857C11.7236 35.9852 22.5856 35.9852 29.2851 29.2857Z" fill="#B77E30"/>
<path d="M24.1719 9.47729H10.1382C9.07696 9.47986 8.05993 9.90257 7.30953 10.653C6.55913 11.4034 6.13642 12.4204 6.13385 13.4816V20.8291C6.13693 21.89 6.55987 22.9065 7.31022 23.6565C8.06056 24.4065 9.0773 24.8289 10.1382 24.8315H24.1719C25.2324 24.8284 26.2487 24.4057 26.9986 23.6558C27.7485 22.9059 28.1712 21.8896 28.1743 20.8291V13.4816C28.1717 12.4207 27.7493 11.404 26.9993 10.6537C26.2493 9.90331 25.2328 9.48038 24.1719 9.47729ZM17.7735 19.3277L14.3545 21.4417V12.9818L17.7735 15.0958L21.1983 17.2118L17.7735 19.3277Z" fill="#F7F7F5"/>
</g>
<defs>
<clipPath id="clip0">
<rect width="34.3082" height="34.3082" fill="white"/>
</clipPath>
</defs>
</svg>
