<svg width="32" height="32" viewBox="0 0 32 32" fill="none" xmlns="http://www.w3.org/2000/svg">
<path d="M0.917637 8.16329C1.25764 12.8833 3.61764 18.5533 8.53764 23.4633C13.4576 28.3733 19.1676 30.7433 23.8576 31.0833C25.4676 31.1933 29.8576 27.9233 30.6176 25.5733C31.1976 23.8633 31.0176 22.7033 29.4376 21.8933L25.7376 19.8933C24.8376 19.4033 24.1376 19.7533 23.3676 20.8233C21.6576 23.1633 20.8376 23.6233 18.7476 22.4633C16.8555 21.3424 15.1373 19.9511 13.6476 18.3333C12.0269 16.8437 10.6322 15.1256 9.50764 13.2333C8.34764 11.1533 8.80764 10.3333 11.1676 8.63329C12.2376 7.85329 12.5876 7.15329 12.1076 6.25329L10.1076 2.56329C9.27764 0.983289 8.16764 0.803289 6.40764 1.38329C4.05764 2.18329 0.807637 6.55329 0.917637 8.16329Z" stroke="black" stroke-width="1.5" stroke-linecap="round" stroke-linejoin="round"/>
<path d="M5.9176 2.08325L9.9176 9.08325" stroke="black" stroke-width="1.5" stroke-linecap="round" stroke-linejoin="round"/>
<path d="M22.9176 22.0833L29.9176 26.0833" stroke="black" stroke-width="1.5" stroke-linecap="round" stroke-linejoin="round"/>
</svg>
