<svg width="40" height="40" viewBox="0 0 40 40" fill="none" xmlns="http://www.w3.org/2000/svg">
<path d="M19.9176 39.2417C30.411 39.2417 38.9176 30.7351 38.9176 20.2417C38.9176 9.74829 30.411 1.2417 19.9176 1.2417C9.42419 1.2417 0.917603 9.74829 0.917603 20.2417C0.917603 30.7351 9.42419 39.2417 19.9176 39.2417Z" stroke="#C3A06D" stroke-width="1.5" stroke-linecap="round" stroke-linejoin="round"/>
<path d="M19.9176 35.2417C28.2019 35.2417 34.9176 28.526 34.9176 20.2417C34.9176 11.9574 28.2019 5.2417 19.9176 5.2417C11.6333 5.2417 4.9176 11.9574 4.9176 20.2417C4.9176 28.526 11.6333 35.2417 19.9176 35.2417Z" stroke="#C3A06D" stroke-width="1.5" stroke-linecap="round" stroke-linejoin="round"/>
<path d="M19.9176 9.2417V6.2417" stroke="#C3A06D" stroke-width="1.5" stroke-linecap="round" stroke-linejoin="round"/>
<path d="M19.9176 35.2417V32.2417" stroke="#C3A06D" stroke-width="1.5" stroke-linecap="round" stroke-linejoin="round"/>
<path d="M31.9176 20.2417H33.9176" stroke="#C3A06D" stroke-width="1.5" stroke-linecap="round" stroke-linejoin="round"/>
<path d="M5.9176 20.2417H7.9176" stroke="#C3A06D" stroke-width="1.5" stroke-linecap="round" stroke-linejoin="round"/>
<path d="M18.5576 22.0317L13.3976 27.0617" stroke="#C3A06D" stroke-width="1.5" stroke-linecap="round" stroke-linejoin="round"/>
<path d="M19.9176 12.2417V18.2417" stroke="#C3A06D" stroke-width="1.5" stroke-linecap="round" stroke-linejoin="round"/>
<path d="M19.9176 22.2417C21.0222 22.2417 21.9176 21.3463 21.9176 20.2417C21.9176 19.1371 21.0222 18.2417 19.9176 18.2417C18.813 18.2417 17.9176 19.1371 17.9176 20.2417C17.9176 21.3463 18.813 22.2417 19.9176 22.2417Z" stroke="#C3A06D" stroke-width="1.5" stroke-linecap="round" stroke-linejoin="round"/>
</svg>
