<svg width="13" height="8" viewBox="0 0 13 8" fill="none" xmlns="http://www.w3.org/2000/svg">
<path d="M5.47687 7.5769L0.402813 2.46706C0.141422 2.19451 -0.00321522 1.82948 5.42457e-05 1.45058C0.00332371 1.07169 0.154238 0.709239 0.420293 0.441307C0.686349 0.173376 1.04626 0.0213974 1.4225 0.0181049C1.79875 0.0148123 2.16122 0.160469 2.43186 0.423704L6.4914 4.51186L10.5495 0.423704C10.6827 0.28944 10.8409 0.182918 11.015 0.110219C11.1891 0.0375195 11.3757 6.71848e-05 11.5642 9.03082e-08C11.7527 -6.70042e-05 11.9394 0.0372525 12.1135 0.109828C12.2877 0.182403 12.4459 0.288813 12.5793 0.422982C12.7126 0.55715 12.8184 0.71645 12.8906 0.891787C12.9627 1.06712 12.9999 1.25506 13 1.44487C13.0001 1.63468 12.963 1.82265 12.8909 1.99803C12.8189 2.17342 12.7132 2.3328 12.58 2.46706L7.50592 7.5769C7.23682 7.84781 6.8719 8 6.4914 8C6.11089 8 5.74597 7.84781 5.47687 7.5769Z" fill="#454545"/>
</svg>
