<svg width="35" height="35" viewBox="0 0 35 35" fill="none" xmlns="http://www.w3.org/2000/svg">
<g clip-path="url(#clip0)">
<g style="mix-blend-mode:multiply" opacity="0.6">
<g style="mix-blend-mode:multiply" opacity="0.6">
<path d="M29.2851 29.2857C35.9846 22.5863 35.9846 11.7243 29.2851 5.02481C22.5856 -1.67467 11.7236 -1.67467 5.02418 5.02481C-1.6753 11.7243 -1.6753 22.5863 5.02418 29.2857C11.7236 35.9852 22.5856 35.9852 29.2851 29.2857Z" fill="#231F20"/>
</g>
</g>
<path d="M29.2851 29.2857C35.9846 22.5863 35.9846 11.7243 29.2851 5.02481C22.5856 -1.67467 11.7236 -1.67467 5.02418 5.02481C-1.6753 11.7243 -1.6753 22.5863 5.02418 29.2857C11.7236 35.9852 22.5856 35.9852 29.2851 29.2857Z" fill="#B77E30"/>
<path d="M22.0482 10.7997V7.71716L18.6837 7.68799C17.2581 7.68799 15.2122 9.30801 15.2122 11.1458V14.452H12.2522V17.9526H15.1694V26.6303H18.6156V17.9021H21.6612L22.0501 14.4831H18.6565V11.9743C18.6491 11.6655 18.7646 11.3663 18.9775 11.1425C19.1904 10.9187 19.4834 10.7884 19.7922 10.7802C20.2454 10.7802 22.0482 10.7997 22.0482 10.7997Z" fill="#F7F7F5"/>
</g>
<defs>
<clipPath id="clip0">
<rect width="34.3082" height="34.3082" fill="white"/>
</clipPath>
</defs>
</svg>
