<svg width="36" height="37" viewBox="0 0 36 37" fill="none" xmlns="http://www.w3.org/2000/svg">
<path d="M23.9176 6.4917H12.9176C12.7187 6.4917 12.5279 6.41268 12.3873 6.27203C12.2466 6.13138 12.1676 5.94061 12.1676 5.7417C12.1676 5.54279 12.2466 5.35202 12.3873 5.21137C12.5279 5.07072 12.7187 4.9917 12.9176 4.9917H23.9176C24.1165 4.9917 24.3073 5.07072 24.4479 5.21137C24.5886 5.35202 24.6676 5.54279 24.6676 5.7417C24.6676 5.94061 24.5886 6.13138 24.4479 6.27203C24.3073 6.41268 24.1165 6.4917 23.9176 6.4917Z" fill="#C3A06D"/>
<path d="M34.9176 36.4917H0.917603C0.719496 36.4891 0.530231 36.4093 0.390136 36.2692C0.250042 36.1291 0.170193 35.9398 0.167603 35.7417L0.167603 5.7417C0.170193 5.54359 0.250042 5.35433 0.390136 5.21423C0.530231 5.07414 0.719496 4.99429 0.917603 4.9917H2.9176C3.11651 4.9917 3.30728 5.07072 3.44793 5.21137C3.58858 5.35202 3.6676 5.54279 3.6676 5.7417C3.6676 5.94061 3.58858 6.13138 3.44793 6.27203C3.30728 6.41268 3.11651 6.4917 2.9176 6.4917H1.6676V34.9917H34.1676V6.4917H32.9176C32.7187 6.4917 32.5279 6.41268 32.3873 6.27203C32.2466 6.13138 32.1676 5.94061 32.1676 5.7417C32.1676 5.54279 32.2466 5.35202 32.3873 5.21137C32.5279 5.07072 32.7187 4.9917 32.9176 4.9917H34.9176C35.1157 4.99429 35.305 5.07414 35.4451 5.21423C35.5852 5.35433 35.665 5.54359 35.6676 5.7417V35.7417C35.665 35.9398 35.5852 36.1291 35.4451 36.2692C35.305 36.4093 35.1157 36.4891 34.9176 36.4917Z" fill="#C3A06D"/>
<path d="M8.9176 9.4917H5.9176C5.7195 9.48911 5.53023 9.40926 5.39014 9.26917C5.25004 9.12907 5.17019 8.93981 5.1676 8.7417V1.7417C5.17019 1.54359 5.25004 1.35433 5.39014 1.21423C5.53023 1.07414 5.7195 0.994289 5.9176 0.991699H8.9176C9.11571 0.994289 9.30497 1.07414 9.44507 1.21423C9.58516 1.35433 9.66501 1.54359 9.6676 1.7417V8.7417C9.66501 8.93981 9.58516 9.12907 9.44507 9.26917C9.30497 9.40926 9.11571 9.48911 8.9176 9.4917ZM6.6676 7.9917H8.1676V2.4917H6.6676V7.9917Z" fill="#C3A06D"/>
<path d="M29.9176 9.4917H26.9176C26.7195 9.48911 26.5302 9.40926 26.3901 9.26917C26.25 9.12907 26.1702 8.93981 26.1676 8.7417V1.7417C26.1702 1.54359 26.25 1.35433 26.3901 1.21423C26.5302 1.07414 26.7195 0.994289 26.9176 0.991699H29.9176C30.1157 0.994289 30.305 1.07414 30.4451 1.21423C30.5852 1.35433 30.665 1.54359 30.6676 1.7417V8.7417C30.665 8.93981 30.5852 9.12907 30.4451 9.26917C30.305 9.40926 30.1157 9.48911 29.9176 9.4917ZM27.6676 7.9917H29.1676V2.4917H27.6676V7.9917Z" fill="#C3A06D"/>
<path d="M34.9176 14.4917H0.917603C0.71869 14.4917 0.527925 14.4127 0.387272 14.272C0.24662 14.1314 0.167603 13.9406 0.167603 13.7417C0.167603 13.5428 0.24662 13.352 0.387272 13.2114C0.527925 13.0707 0.71869 12.9917 0.917603 12.9917H34.9176C35.1165 12.9917 35.3073 13.0707 35.4479 13.2114C35.5886 13.352 35.6676 13.5428 35.6676 13.7417C35.6676 13.9406 35.5886 14.1314 35.4479 14.272C35.3073 14.4127 35.1165 14.4917 34.9176 14.4917Z" fill="#C3A06D"/>
<path d="M10.9176 23.4917H5.9176C5.7195 23.4891 5.53023 23.4093 5.39014 23.2692C5.25004 23.1291 5.17019 22.9398 5.1676 22.7417V18.7417C5.17019 18.5436 5.25004 18.3543 5.39014 18.2142C5.53023 18.0741 5.7195 17.9943 5.9176 17.9917H10.9176C11.1157 17.9943 11.305 18.0741 11.4451 18.2142C11.5852 18.3543 11.665 18.5436 11.6676 18.7417V22.7417C11.665 22.9398 11.5852 23.1291 11.4451 23.2692C11.305 23.4093 11.1157 23.4891 10.9176 23.4917ZM6.6676 21.9917H10.1676V19.4917H6.6676V21.9917Z" fill="#C3A06D"/>
<path d="M20.9176 23.4917H15.9176C15.7195 23.4891 15.5302 23.4093 15.3901 23.2692C15.25 23.1291 15.1702 22.9398 15.1676 22.7417V18.7417C15.1702 18.5436 15.25 18.3543 15.3901 18.2142C15.5302 18.0741 15.7195 17.9943 15.9176 17.9917H20.9176C21.1157 17.9943 21.305 18.0741 21.4451 18.2142C21.5852 18.3543 21.665 18.5436 21.6676 18.7417V22.7417C21.665 22.9398 21.5852 23.1291 21.4451 23.2692C21.305 23.4093 21.1157 23.4891 20.9176 23.4917ZM16.6676 21.9917H20.1676V19.4917H16.6676V21.9917Z" fill="#C3A06D"/>
<path d="M29.9176 23.4917H24.9176C24.7195 23.4891 24.5302 23.4093 24.3901 23.2692C24.25 23.1291 24.1702 22.9398 24.1676 22.7417V18.7417C24.1702 18.5436 24.25 18.3543 24.3901 18.2142C24.5302 18.0741 24.7195 17.9943 24.9176 17.9917H29.9176C30.1157 17.9943 30.305 18.0741 30.4451 18.2142C30.5852 18.3543 30.665 18.5436 30.6676 18.7417V22.7417C30.665 22.9398 30.5852 23.1291 30.4451 23.2692C30.305 23.4093 30.1157 23.4891 29.9176 23.4917ZM25.6676 21.9917H29.1676V19.4917H25.6676V21.9917Z" fill="#C3A06D"/>
<path d="M10.9176 31.4917H5.9176C5.7195 31.4891 5.53023 31.4093 5.39014 31.2692C5.25004 31.1291 5.17019 30.9398 5.1676 30.7417V26.7417C5.17019 26.5436 5.25004 26.3543 5.39014 26.2142C5.53023 26.0741 5.7195 25.9943 5.9176 25.9917H10.9176C11.1157 25.9943 11.305 26.0741 11.4451 26.2142C11.5852 26.3543 11.665 26.5436 11.6676 26.7417V30.7417C11.665 30.9398 11.5852 31.1291 11.4451 31.2692C11.305 31.4093 11.1157 31.4891 10.9176 31.4917ZM6.6676 29.9917H10.1676V27.4917H6.6676V29.9917Z" fill="#C3A06D"/>
<path d="M20.9176 31.4917H15.9176C15.7195 31.4891 15.5302 31.4093 15.3901 31.2692C15.25 31.1291 15.1702 30.9398 15.1676 30.7417V26.7417C15.1702 26.5436 15.25 26.3543 15.3901 26.2142C15.5302 26.0741 15.7195 25.9943 15.9176 25.9917H20.9176C21.1157 25.9943 21.305 26.0741 21.4451 26.2142C21.5852 26.3543 21.665 26.5436 21.6676 26.7417V30.7417C21.665 30.9398 21.5852 31.1291 21.4451 31.2692C21.305 31.4093 21.1157 31.4891 20.9176 31.4917ZM16.6676 29.9917H20.1676V27.4917H16.6676V29.9917Z" fill="#C3A06D"/>
<path d="M29.9176 31.4917H24.9176C24.7195 31.4891 24.5302 31.4093 24.3901 31.2692C24.25 31.1291 24.1702 30.9398 24.1676 30.7417V26.7417C24.1702 26.5436 24.25 26.3543 24.3901 26.2142C24.5302 26.0741 24.7195 25.9943 24.9176 25.9917H29.9176C30.1157 25.9943 30.305 26.0741 30.4451 26.2142C30.5852 26.3543 30.665 26.5436 30.6676 26.7417V30.7417C30.665 30.9398 30.5852 31.1291 30.4451 31.2692C30.305 31.4093 30.1157 31.4891 29.9176 31.4917ZM25.6676 29.9917H29.1676V27.4917H25.6676V29.9917Z" fill="#C3A06D"/>
</svg>
