<svg width="30" height="37" viewBox="0 0 30 37" fill="none" xmlns="http://www.w3.org/2000/svg">
<path d="M22.9176 25.7417V33.7417C22.9176 34.2721 22.7069 34.7808 22.3318 35.1559C21.9567 35.531 21.448 35.7417 20.9176 35.7417H2.9176C2.38717 35.7417 1.87846 35.531 1.50339 35.1559C1.12832 34.7808 0.917603 34.2721 0.917603 33.7417V3.7417C0.917603 3.21127 1.12832 2.70256 1.50339 2.32749C1.87846 1.95241 2.38717 1.7417 2.9176 1.7417H20.9176C21.448 1.7417 21.9567 1.95241 22.3318 2.32749C22.7069 2.70256 22.9176 3.21127 22.9176 3.7417V8.7417" stroke="#C3A06D" stroke-width="1.5" stroke-linecap="round" stroke-linejoin="round"/>
<path d="M28.9176 11.7417H10.9176V22.7417H28.9176V11.7417Z" stroke="#C3A06D" stroke-width="1.5" stroke-linecap="round" stroke-linejoin="round"/>
<path d="M28.9176 11.7417L19.9176 18.7417L10.9176 11.7417" stroke="#C3A06D" stroke-width="1.5" stroke-linecap="round" stroke-linejoin="round"/>
<path d="M0.917603 5.7417H22.9176" stroke="#C3A06D" stroke-width="1.5" stroke-linecap="round" stroke-linejoin="round"/>
<path d="M0.917603 28.7417H22.9176" stroke="#C3A06D" stroke-width="1.5" stroke-linecap="round" stroke-linejoin="round"/>
<path d="M9.9176 31.7417H12.9176" stroke="#C3A06D" stroke-width="1.5" stroke-linecap="round" stroke-linejoin="round"/>
</svg>
