<svg width="196" height="225" viewBox="0 0 196 225" fill="none" xmlns="http://www.w3.org/2000/svg">
<g clip-path="url(#clip0)">
<path d="M38.8571 190.828L38.7883 191.988C38.7883 192.215 38.6745 193.646 38.4468 196.28C38.2713 198.278 38.1835 199.822 38.1835 200.912C38.1835 202.275 38.2065 203.411 38.2523 204.32C38.3019 204.703 38.3248 205.09 38.3211 205.476C38.3211 205.976 38.2073 206.227 37.9796 206.227C37.7519 206.227 37.5052 205.99 37.2278 205.545C36.2269 203.909 35.1573 202.842 34.0189 202.344C30.5974 205.249 26.9261 206.703 23.005 206.704C17.0395 206.704 11.7808 204.479 7.22878 200.028C2.40959 195.303 0 189.355 0 182.183C0 175.233 2.17401 169.431 6.52203 164.776C10.8701 160.122 16.2988 157.794 22.8081 157.794C25.8122 157.794 28.5001 158.476 30.8717 159.838C32.2378 160.61 33.2394 160.995 33.8766 160.995C34.8253 160.995 35.7131 160.564 36.54 159.701C37.1305 159.067 37.4886 158.755 37.6333 158.755C37.8136 158.755 37.9061 158.916 37.9061 159.228C37.8983 159.434 37.8753 159.638 37.8373 159.841C37.5378 161.734 37.4005 163.648 37.427 165.564C37.427 165.791 37.4499 166.722 37.4958 168.356V173.057C37.4958 173.876 37.2586 174.283 36.8127 174.283C36.4475 174.283 36.0838 173.397 35.7218 171.626C34.0837 163.451 30.3278 159.363 24.4541 159.363C19.8072 159.363 16.4379 162.36 14.3461 168.354C12.8883 172.442 12.1594 177.348 12.1594 183.07C12.1594 191.564 13.89 197.787 17.351 201.738C19.1708 203.828 21.5607 204.872 24.5205 204.871C30.9397 204.871 35.151 200.602 37.1542 192.064C37.4705 190.655 37.8349 189.951 38.2476 189.951C38.6998 189.946 38.9029 190.239 38.8571 190.828Z" fill="#1A1E30"/>
<path d="M71.8348 202.145C71.8348 202.514 71.4704 203.021 70.7415 203.664C68.7825 205.464 66.3698 206.364 63.5032 206.364C61.6344 206.364 60.2802 205.969 59.4406 205.181C58.6011 204.392 58.0429 202.989 57.7662 200.972C55.7108 204.696 52.9107 206.558 49.3659 206.558C47.41 206.558 45.8289 205.944 44.6226 204.717C43.4162 203.49 42.813 201.901 42.813 199.949C42.813 194.227 47.7302 190.843 57.5646 189.797V188.377C57.5646 183.835 57.4065 181.041 57.0903 179.997L57.0215 179.656C56.3891 177.385 54.7732 176.249 52.1739 176.249C50.6703 176.249 49.4639 176.68 48.5548 177.543C47.6456 178.406 47.1903 179.247 47.1887 180.065C47.1887 180.52 47.735 180.792 48.8275 180.882C50.4655 181.019 51.2853 182.018 51.2869 183.879C51.2984 184.341 51.2148 184.799 51.0415 185.227C50.8681 185.655 50.6086 186.043 50.2789 186.366C49.9424 186.697 49.5414 186.955 49.1009 187.125C48.6604 187.295 48.1896 187.374 47.7176 187.355C46.3958 187.355 45.3143 186.961 44.4731 186.172C44.0597 185.783 43.7342 185.31 43.5183 184.785C43.3023 184.261 43.201 183.696 43.2209 183.129C43.2209 181.175 44.1996 179.404 46.157 177.815C48.1144 176.227 50.6869 175.432 53.8744 175.43C58.6082 175.43 61.9087 176.27 63.776 177.95C65.2764 179.359 66.0275 181.812 66.0291 185.309V196.959C66.0291 199.23 66.052 200.547 66.0978 200.91C66.3255 202.817 66.9856 203.771 68.0781 203.771C68.8513 203.771 69.8071 203.226 70.9455 202.136C71.0817 201.961 71.2759 201.84 71.4933 201.795C71.5405 201.789 71.5884 201.794 71.6332 201.809C71.6781 201.825 71.7188 201.851 71.7519 201.885C71.785 201.919 71.8098 201.96 71.8242 202.005C71.8386 202.05 71.8422 202.098 71.8348 202.145ZM57.5623 194.032V190.701C53.1447 191.563 50.9367 194.061 50.9383 198.194C50.9383 201.374 52.0308 202.964 54.2159 202.964C55.4444 202.964 56.3092 202.282 56.8105 200.92C57.3117 199.557 57.5623 197.261 57.5623 194.032Z" fill="#1A1E30"/>
<path d="M107.863 205.342C107.863 205.706 107.293 205.886 106.157 205.886H91.5456C90.9053 205.886 90.597 205.715 90.597 205.377C90.597 205.081 90.865 204.932 91.4033 204.932H91.9393C93.099 204.932 93.7821 204.783 93.9837 204.487C94.1853 204.192 94.2849 203.174 94.2849 201.44V188.223C94.2849 183.334 93.9686 180.416 93.3362 179.469C92.7971 178.647 91.8334 178.237 90.4452 178.237C89.8162 178.214 89.1891 178.317 88.6003 178.539C88.0116 178.76 87.4729 179.097 87.0158 179.528C86.5749 179.948 86.2273 180.455 85.9956 181.017C85.764 181.579 85.6534 182.184 85.6711 182.791V203.375C85.7612 203.92 85.9549 204.271 86.2521 204.431C86.5486 204.589 87.2861 204.691 88.472 204.736C88.8348 204.736 89.0174 204.871 89.0174 205.143C89.0174 205.415 88.8585 205.573 88.5431 205.616C88.2277 205.659 87.0845 205.685 85.1279 205.685C83.1713 205.685 81.5539 205.708 80.2779 205.751C77.7735 205.842 75.2239 205.888 72.6294 205.888C72.0839 205.888 71.8111 205.73 71.8111 205.415C71.8111 205.053 72.5037 204.871 73.8934 204.871C75.2832 204.871 76.0896 204.599 76.3173 204.054L76.5236 203.108V187.471C76.5236 183.077 76.4777 180.789 76.386 180.61C76.2509 179.931 75.6342 179.59 74.5433 179.59H72.2167C71.4862 179.59 71.1234 179.443 71.1234 179.145C71.1234 178.847 71.3937 178.672 71.9392 178.636C77.0145 178.409 81.0701 177.342 84.1058 175.435C84.3351 175.298 84.5887 175.205 84.8528 175.163C85.2165 175.163 85.3975 175.526 85.3959 176.251V180.136C87.8087 177.002 90.9045 175.435 94.6833 175.435C98.5981 175.435 101.148 176.797 102.332 179.521C102.851 180.733 103.163 182.023 103.254 183.338C103.368 184.746 103.425 187.653 103.425 192.059V201.937C103.425 203.345 103.539 204.175 103.767 204.424C103.994 204.672 104.732 204.797 105.987 204.797C107.241 204.797 107.863 204.977 107.863 205.342Z" fill="#1A1E30"/>
<path d="M141.825 204.454C141.825 204.77 141.369 204.928 140.458 204.928H137.375C135.146 204.883 132.802 205.407 130.343 206.499C130.189 206.555 130.031 206.6 129.869 206.631C129.458 206.631 129.23 206.222 129.186 205.403C129.167 204.831 129.099 204.262 128.982 203.702C127.161 205.655 124.748 206.631 121.744 206.631C117.736 206.631 114.434 205.155 111.84 202.202C109.245 199.249 107.948 195.502 107.948 190.961C107.948 186.328 109.268 182.592 111.909 179.753C114.549 176.914 118.032 175.494 122.358 175.494C125.18 175.494 127.479 176.539 129.255 178.627V169.097C129.255 165.008 129.073 162.589 128.709 161.84C128.346 161.091 127.139 160.739 125.088 160.785C123.904 160.785 123.312 160.627 123.314 160.312C123.315 159.996 123.591 159.838 124.139 159.838C128.209 159.854 132.257 159.23 136.133 157.991C136.514 157.847 136.913 157.755 137.318 157.719C137.824 157.719 138.075 158.265 138.075 159.353V201.797C138.075 202.571 138.189 203.092 138.417 203.366C138.734 203.773 139.534 203.955 140.807 203.91C141.485 203.866 141.825 204.047 141.825 204.454ZM129.255 198.324V183.473C129.255 181.422 128.911 179.9 128.223 178.906C127.834 178.301 127.293 177.807 126.655 177.473C126.017 177.139 125.303 176.976 124.583 176.999C120.186 176.999 117.987 181.836 117.987 191.51C117.987 195.826 118.548 199.164 119.669 201.525C120.79 203.887 122.359 205.07 124.376 205.074C125.567 205.074 126.674 204.541 127.697 203.475C128.72 202.409 129.239 200.692 129.255 198.324Z" fill="#1A1E30"/>
<path d="M161.903 205.342C161.903 205.659 161.697 205.815 161.289 205.815H144.075C143.53 205.815 143.259 205.671 143.259 205.38C143.259 205.162 143.781 205.034 144.829 204.999C146.376 204.954 147.289 204.781 147.562 204.485C147.834 204.189 147.97 203.286 147.97 201.778V182.129C147.97 180.392 147.822 179.356 147.526 179.013C147.23 178.67 146.34 178.499 144.829 178.499C144.27 178.521 143.71 178.498 143.155 178.431C142.996 178.386 142.918 178.225 142.918 177.957C142.918 177.642 143.259 177.484 143.942 177.484C148.95 177.438 153.229 176.666 156.78 175.168C156.87 175.712 156.984 177.211 157.122 179.663V201.111C157.122 202.976 157.292 204.064 157.634 204.383C157.975 204.703 159.147 204.857 161.151 204.857C161.652 204.864 161.903 205.025 161.903 205.342ZM157.122 162.148C157.131 162.754 157.018 163.355 156.79 163.917C156.562 164.479 156.223 164.989 155.794 165.418C155.383 165.855 154.885 166.203 154.332 166.438C153.779 166.672 153.183 166.789 152.582 166.78C151.976 166.796 151.372 166.69 150.808 166.468C150.243 166.245 149.73 165.911 149.298 165.486C148.861 165.063 148.518 164.553 148.289 163.99C148.06 163.428 147.952 162.823 147.97 162.216C147.952 161.629 148.062 161.045 148.291 160.504C148.52 159.963 148.863 159.478 149.298 159.081C150.183 158.264 151.324 157.856 152.72 157.856C153.299 157.839 153.876 157.939 154.416 158.15C154.956 158.36 155.448 158.677 155.862 159.081C156.274 159.477 156.599 159.954 156.815 160.482C157.032 161.01 157.136 161.577 157.122 162.148Z" fill="#1A1E30"/>
<path d="M195.957 204.454C195.957 204.77 195.502 204.928 194.591 204.928H191.508C189.279 204.883 186.935 205.407 184.476 206.499C184.322 206.555 184.163 206.6 184.002 206.631C183.591 206.631 183.363 206.222 183.319 205.403C183.3 204.831 183.232 204.262 183.115 203.702C181.294 205.655 178.88 206.631 175.874 206.631C171.869 206.631 168.569 205.155 165.973 202.202C163.377 199.249 162.079 195.502 162.081 190.961C162.081 186.328 163.401 182.592 166.041 179.753C168.682 176.914 172.165 175.494 176.491 175.494C179.313 175.494 181.612 176.539 183.388 178.627V169.097C183.388 165.008 183.206 162.589 182.842 161.84C182.479 161.091 181.271 160.739 179.221 160.785C178.036 160.785 177.445 160.627 177.447 160.312C177.448 159.996 177.723 159.838 178.272 159.838C182.342 159.856 186.389 159.235 190.265 157.998C190.647 157.854 191.045 157.762 191.451 157.726C191.956 157.726 192.208 158.272 192.208 159.36V201.797C192.208 202.571 192.322 203.092 192.549 203.366C192.866 203.773 193.662 203.954 194.94 203.91C195.618 203.866 195.957 204.047 195.957 204.454ZM183.388 198.324V183.473C183.388 181.422 183.044 179.9 182.356 178.906C181.967 178.301 181.426 177.807 180.788 177.473C180.15 177.139 179.436 176.976 178.716 176.999C174.319 176.999 172.12 181.836 172.12 191.51C172.12 195.826 172.681 199.164 173.802 201.525C174.923 203.887 176.492 205.07 178.509 205.074C179.7 205.074 180.807 204.541 181.83 203.475C182.853 202.409 183.373 200.692 183.392 198.324H183.388Z" fill="#1A1E30"/>
<path d="M34.4648 222.145C34.4708 221.987 34.4413 221.83 34.3786 221.685C34.3158 221.54 34.2212 221.411 34.1019 221.308C33.7176 221.028 33.2827 220.826 32.8212 220.711C31.9694 220.488 31.1657 220.111 30.4496 219.599C30.1845 219.394 29.9723 219.129 29.8308 218.826C29.6893 218.523 29.6226 218.19 29.6361 217.856C29.6309 217.502 29.7114 217.152 29.8708 216.835C30.0302 216.519 30.2637 216.246 30.5516 216.039C31.2272 215.546 32.0494 215.296 32.8853 215.329C33.8893 215.329 34.6972 215.581 35.3091 216.086C35.6052 216.322 35.8403 216.625 35.9946 216.971C36.1489 217.316 36.218 217.693 36.1961 218.071L36.1842 218.109H34.4221C34.4342 217.916 34.4038 217.723 34.3329 217.544C34.262 217.364 34.1524 217.203 34.0118 217.07C33.6878 216.809 33.2772 216.679 32.8616 216.706C32.4864 216.682 32.1157 216.798 31.8204 217.03C31.7015 217.132 31.6069 217.259 31.5433 217.401C31.4797 217.544 31.4488 217.699 31.4528 217.856C31.4518 218.004 31.4876 218.151 31.5571 218.282C31.6267 218.413 31.7277 218.525 31.8512 218.608C32.278 218.88 32.7411 219.09 33.2268 219.233C34.0573 219.432 34.8347 219.808 35.5059 220.335C35.7626 220.556 35.9661 220.832 36.1016 221.142C36.2371 221.452 36.301 221.788 36.2886 222.126C36.3011 222.483 36.2246 222.837 36.066 223.156C35.9075 223.476 35.6718 223.751 35.3802 223.958C34.7747 224.404 33.9739 224.627 32.9778 224.627C32.0858 224.653 31.2083 224.399 30.4686 223.901C29.7681 223.418 29.429 222.696 29.4511 221.736V221.698H31.2109C31.1921 221.918 31.2252 222.14 31.3075 222.346C31.3899 222.551 31.5192 222.734 31.6852 222.881C32.0552 223.152 32.5077 223.286 32.9659 223.262C33.3606 223.289 33.7527 223.181 34.0782 222.957C34.2023 222.862 34.302 222.738 34.3692 222.597C34.4364 222.456 34.4692 222.301 34.4648 222.145Z" fill="#B77E30"/>
<path d="M42.2414 221.222V224.499H40.4247V215.461H43.8921C44.934 215.461 45.753 215.726 46.3491 216.256C46.6325 216.526 46.8582 216.85 47.0123 217.209C47.1665 217.568 47.246 217.955 47.246 218.345C47.246 218.736 47.1665 219.123 47.0123 219.482C46.8582 219.841 46.6325 220.165 46.3491 220.435C45.7515 220.96 44.9325 221.222 43.8921 221.222H42.2414ZM42.2414 219.824H43.9016C44.1115 219.839 44.3222 219.81 44.5202 219.739C44.7183 219.668 44.8993 219.557 45.0518 219.412C45.3166 219.127 45.4573 218.748 45.4431 218.36C45.4581 217.964 45.3187 217.578 45.0542 217.283C44.9039 217.134 44.7232 217.019 44.5243 216.945C44.3254 216.872 44.1131 216.842 43.9016 216.857H42.2414V219.824Z" fill="#B77E30"/>
<path d="M56.5282 220.531H53.1676V223.115H57.1567V224.504H51.3509V215.466H57.1567V216.862H53.1724V219.136H56.533L56.5282 220.531Z" fill="#B77E30"/>
<path d="M66.4204 220.531H63.0598V223.115H67.056V224.504H61.2431V215.466H67.0441V216.862H63.0598V219.136H66.4204V220.531Z" fill="#B77E30"/>
<path d="M77.9324 221.513V221.549C77.9497 222.514 77.6549 223.27 77.0477 223.815C76.4406 224.361 75.605 224.634 74.5409 224.634C74.053 224.654 73.5663 224.572 73.1127 224.392C72.659 224.211 72.2486 223.938 71.9084 223.588C71.5718 223.226 71.3105 222.8 71.1395 222.337C70.9686 221.873 70.8913 221.38 70.9123 220.886V219.093C70.874 218.099 71.2243 217.129 71.8894 216.388C72.2179 216.038 72.6186 215.762 73.064 215.58C73.5094 215.398 73.989 215.315 74.4697 215.336C75.5765 215.336 76.4398 215.605 77.0596 216.142C77.6794 216.68 77.9822 217.437 77.9679 218.414L77.9561 218.452H76.1773C76.1773 217.873 76.0374 217.441 75.7576 217.157C75.4777 216.874 75.0484 216.73 74.4697 216.727C74.2193 216.718 73.9707 216.774 73.7481 216.888C73.5254 217.003 73.3361 217.173 73.1986 217.382C72.874 217.885 72.714 218.476 72.7408 219.074V220.882C72.7137 221.484 72.8798 222.08 73.2151 222.583C73.3666 222.795 73.5686 222.966 73.8029 223.081C74.0373 223.196 74.2966 223.251 74.5575 223.24C74.7788 223.258 75.0014 223.229 75.2109 223.156C75.4203 223.082 75.6122 222.966 75.7742 222.815C76.0414 222.531 76.175 222.095 76.175 221.509L77.9324 221.513Z" fill="#B77E30"/>
<path d="M89.3732 224.504H87.5565V220.749H83.8662V224.504H82.059V215.466H83.8757V219.351H87.566V215.466H89.3827L89.3732 224.504Z" fill="#B77E30"/>
<path d="M106.141 216.862H103.551V224.504H101.744V216.862H99.1824V215.466H106.141V216.862Z" fill="#B77E30"/>
<path d="M117.266 224.504H115.449V220.749H111.757V224.504H109.94V215.466H111.757V219.351H115.449V215.466H117.266V224.504Z" fill="#B77E30"/>
<path d="M126.916 220.531H123.563V223.115H127.557V224.504H121.737V215.466H127.538V216.862H123.563V219.136H126.923L126.916 220.531Z" fill="#B77E30"/>
<path d="M133.448 220.891V224.504H131.626V215.466H134.764C135.798 215.466 136.606 215.702 137.188 216.176C137.478 216.412 137.708 216.713 137.86 217.055C138.012 217.396 138.082 217.769 138.063 218.142C138.073 218.572 137.944 218.994 137.693 219.344C137.411 219.706 137.038 219.988 136.612 220.16C137.081 220.27 137.493 220.551 137.767 220.948C138.013 221.36 138.135 221.834 138.118 222.313V222.978C138.12 223.245 138.155 223.512 138.222 223.771C138.268 224.007 138.391 224.222 138.573 224.381V224.511H136.699C136.513 224.34 136.399 224.105 136.379 223.853C136.333 223.56 136.309 223.263 136.308 222.966V222.327C136.32 222.136 136.293 221.944 136.23 221.764C136.166 221.583 136.067 221.416 135.938 221.274C135.798 221.144 135.633 221.043 135.453 220.978C135.273 220.913 135.081 220.886 134.89 220.898L133.448 220.891ZM133.448 219.495H134.736C135.142 219.526 135.546 219.411 135.874 219.171C136.003 219.051 136.104 218.904 136.169 218.74C136.233 218.576 136.261 218.4 136.249 218.225C136.258 218.043 136.229 217.862 136.164 217.692C136.099 217.522 136 217.367 135.872 217.238C135.567 216.974 135.169 216.843 134.767 216.871H133.448V219.495Z" fill="#B77E30"/>
<path d="M147.279 222.554H144.341L143.722 224.504H141.825L144.879 215.466H146.741L149.784 224.504H147.886L147.279 222.554ZM144.789 221.135H146.838L145.835 217.95H145.799L144.789 221.135Z" fill="#B77E30"/>
<path d="M155.286 221.222V224.499H153.469V215.461H156.937C157.979 215.461 158.798 215.726 159.394 216.256C159.677 216.526 159.903 216.85 160.057 217.209C160.211 217.568 160.291 217.955 160.291 218.345C160.291 218.736 160.211 219.123 160.057 219.482C159.903 219.841 159.677 220.165 159.394 220.435C158.796 220.96 157.977 221.222 156.937 221.222H155.286ZM155.286 219.824H156.946C157.156 219.839 157.367 219.81 157.565 219.739C157.763 219.668 157.944 219.557 158.096 219.412C158.361 219.127 158.502 218.748 158.488 218.36C158.503 217.964 158.363 217.578 158.099 217.283C157.949 217.134 157.768 217.019 157.569 216.945C157.37 216.872 157.158 216.842 156.946 216.857H155.286V219.824Z" fill="#B77E30"/>
<path d="M167.595 219.63H167.63L169.611 215.466H171.603L168.496 221.326V224.504H166.679V221.222L163.622 215.456H165.615L167.595 219.63Z" fill="#B77E30"/>
<path d="M109.333 0.946526C113.007 4.74871 114.968 9.76703 116.448 14.7593C117.264 17.5299 117.987 20.3313 118.677 23.135C119.052 24.6564 119.401 26.1824 119.699 27.7203C119.972 29.14 120.333 30.6234 120.235 32.0714C120.138 33.5195 119.287 34.3263 118.049 34.9107C116.906 35.4478 115.71 35.8145 114.728 36.6237C114.185 37.0637 114.966 37.8303 115.499 37.3903C117.285 35.9375 120.048 35.947 121.023 33.5502C121.554 32.2465 121.331 30.7891 121.118 29.4452C120.857 27.8103 120.522 26.1895 120.152 24.5783C119.436 21.5687 118.654 18.5804 117.816 15.6158C117.099 12.9512 116.19 10.3418 115.096 7.80797C113.853 5.0137 112.236 2.38506 110.116 0.172839C109.62 -0.340586 108.859 0.428369 109.333 0.946526Z" fill="black"/>
<path d="M118.483 34.7118C117.729 40.0353 120.425 44.9756 123.601 49.0427C125.242 51.1461 127.037 53.1241 128.69 55.218C129.505 56.2391 130.262 57.3039 130.96 58.4074C131.318 58.98 131.655 59.5644 131.963 60.1654C132.13 60.442 132.25 60.7442 132.319 61.0597C132.369 61.4099 132.193 61.6181 131.944 61.8334C130.914 62.6868 129.795 63.4284 128.607 64.0456C127.49 64.6584 126.286 65.2783 125.05 65.6167C124.531 65.7586 123.245 65.981 122.991 65.2902C122.835 64.8643 123.264 64.5259 123.61 64.3793C124.132 64.1616 124.682 64.2681 125.209 64.4005C126.361 64.6892 127.58 65.0607 128.652 64.3509C129.556 63.757 129.89 62.6047 129.127 61.7364C128.43 60.9296 127.127 60.6433 126.131 60.4209C124.917 60.1535 123.606 60.1394 122.557 60.8941C121.675 61.5282 121.134 62.5148 120.264 63.1513C119.877 63.4254 119.413 63.5704 118.939 63.5657C118.464 63.5611 118.003 63.4069 117.622 63.1253C117.247 62.855 116.976 62.4652 116.854 62.0203C116.731 61.5754 116.765 61.1021 116.948 60.6788C117.124 60.2244 117.439 59.8374 117.85 59.5739C118.393 59.2403 119.035 59.2403 119.657 59.2355C120.843 59.2355 122.102 59.0983 122.847 58.0525C123.518 57.1061 123.084 55.9539 122.119 55.4144C121.016 54.7945 119.548 54.7377 118.324 54.901C116.979 55.0784 115.76 55.4688 114.503 54.7496C112.224 53.4459 111.695 50.5523 111.254 48.1933C111.057 47.1334 110.877 45.8936 111.339 44.8809C111.849 43.7547 113.142 43.3809 113.977 42.5551C114.812 41.7294 115.179 40.5369 115.378 39.3918C115.561 38.3531 115.822 37.1086 115.279 36.1338C114.736 35.159 113.498 34.9176 112.502 35.3625C111.408 35.8522 110.884 37.0187 110.64 38.1331C110.358 39.4036 110.165 40.9179 110.481 42.2026C110.73 43.2436 111.709 44.0954 112.746 43.3643C114.477 42.1245 114.66 39.5053 113.932 37.6859C112.132 33.2307 105.631 32.793 102.235 35.6014C101.39 36.2678 100.821 37.2213 100.636 38.2797C100.586 38.6039 100.771 38.9896 101.16 38.9683C104.53 38.7766 107.45 40.8824 109.587 43.291C110.773 44.6136 111.826 46.1042 112.378 47.7982C112.985 49.6579 113.154 51.6572 113.436 53.5831C113.735 55.6345 114.043 57.6858 114.332 59.7348C114.65 61.7514 114.819 63.7884 114.84 65.8296C114.819 69.743 113.675 73.5144 112.203 77.1084C111.868 77.92 111.306 78.8238 111.401 79.7323C111.496 80.6409 112.286 81.2679 112.902 81.8617C114.243 83.1462 115.676 84.3323 117.188 85.4108C118.502 86.3572 120.174 87.481 121.694 86.2862C122.88 85.3634 123.195 83.7167 122.913 82.3089C122.33 79.3798 119.277 77.3261 116.446 77.0185C115.023 76.8647 113.362 77.4136 113.177 79.0367C113.136 79.3302 113.167 79.6294 113.267 79.9082C113.368 80.187 113.536 80.437 113.756 80.6361C114.432 81.1992 115.333 80.9461 116.128 80.8727C117.928 80.7213 119.799 80.7805 121.476 80.0162C122.823 79.4058 124.023 78.237 124.22 76.7204C124.4 75.3434 123.444 73.9356 122.145 73.4908C121.59 73.3015 120.691 73.2778 120.235 73.7274C119.78 74.1769 119.911 75.0902 120.219 75.5918C120.381 75.8745 120.62 76.1064 120.907 76.2615C121.195 76.4166 121.52 76.4886 121.846 76.4696C122.059 76.4507 122.337 76.3182 122.37 76.0721L123.665 66.8281C123.699 66.6892 123.679 66.5426 123.608 66.4181C123.538 66.2937 123.422 66.2008 123.285 66.1585C123.146 66.1213 122.998 66.1401 122.872 66.2109C122.747 66.2817 122.654 66.3988 122.614 66.5371L121.319 75.7834L121.846 75.3836C121.742 75.4005 121.635 75.3915 121.535 75.3572C121.435 75.3229 121.346 75.2645 121.274 75.1872C121.075 74.9861 121.089 74.7992 121.037 74.5507C121.037 74.5176 121.118 74.378 121.023 74.494C120.928 74.6099 121.075 74.494 121.139 74.494C121.25 74.4722 121.363 74.4611 121.476 74.4608C121.73 74.4842 121.975 74.5704 122.187 74.7116C123.274 75.3954 123.404 76.7109 122.702 77.7188C121.915 78.8498 120.52 79.349 119.213 79.5501C118.364 79.6803 117.503 79.6992 116.65 79.756C116.253 79.782 115.857 79.8175 115.464 79.8648C115.177 79.8979 114.74 80.0115 114.487 79.8246C114.152 79.588 114.23 78.9989 114.415 78.6913C114.726 78.1802 115.431 78.0737 115.978 78.0785C117.285 78.0927 118.587 78.6392 119.645 79.3893C120.639 80.0991 121.483 81.1117 121.806 82.3018C122.1 83.3902 121.943 84.9636 120.84 85.5693C120.171 85.936 119.455 85.6024 118.865 85.238C118.201 84.8311 117.567 84.3602 116.946 83.8918C115.648 82.9047 114.417 81.832 113.263 80.6811C113.004 80.4279 112.663 80.1558 112.535 79.8057C112.39 79.4129 112.592 78.9728 112.743 78.6108C113.066 77.8395 113.393 77.0706 113.692 76.2898C114.301 74.7416 114.807 73.1554 115.208 71.5412C116.021 68.1696 116.05 64.7933 115.639 61.3673C115.217 57.8396 114.645 54.3261 114.126 50.8102C113.889 49.1894 113.583 47.5829 112.86 46.0971C112.17 44.7535 111.296 43.5128 110.263 42.4108C108.422 40.3642 106.025 38.5376 103.259 38.0171C102.569 37.8848 101.865 37.8371 101.163 37.8752L101.689 38.5637C102.019 36.3491 104.433 35.2512 106.432 34.9981C108.515 34.726 110.977 35.2347 112.312 36.9784C113.438 38.4525 113.735 40.9439 112.3 42.3327C111.932 42.6876 111.74 42.5433 111.588 42.0961C111.389 41.4881 111.444 40.757 111.475 40.1276C111.534 39.0227 111.676 37.525 112.492 36.6945C112.655 36.5167 112.86 36.383 113.088 36.306C113.317 36.229 113.561 36.2113 113.799 36.2544C114.273 36.3727 114.468 36.8388 114.51 37.2931C114.605 38.3129 114.342 39.5101 114.015 40.4707C113.85 40.9922 113.56 41.4658 113.17 41.8501C112.722 42.2736 112.16 42.5599 111.664 42.9219C111.225 43.2293 110.855 43.624 110.576 44.0813C110.297 44.5386 110.116 45.0485 110.044 45.5789C109.893 46.6838 110.08 47.7959 110.298 48.8771C110.508 50.1148 110.844 51.3278 111.301 52.4971C112.193 54.5863 114.095 56.4649 116.531 56.2828C117.157 56.2331 117.764 56.0745 118.383 55.9846C119.146 55.8729 119.923 55.8953 120.679 56.0509C121.103 56.1384 121.594 56.2638 121.903 56.5903C122.273 56.9831 122.059 57.4421 121.68 57.7331C120.705 58.4808 119.258 58.0099 118.134 58.2986C117.661 58.4289 117.224 58.6637 116.854 58.9856C116.485 59.3076 116.193 59.7084 116 60.1583C115.799 60.6014 115.703 61.0845 115.719 61.5704C115.735 62.0563 115.862 62.5321 116.091 62.9612C116.32 63.3903 116.645 63.7613 117.04 64.0457C117.436 64.3301 117.891 64.5203 118.371 64.6017C118.849 64.6922 119.34 64.6755 119.811 64.5527C120.281 64.43 120.718 64.2042 121.089 63.8919C121.872 63.2601 122.389 62.3279 123.224 61.7624C124.263 61.0526 125.565 61.3602 126.684 61.6891C127.239 61.8524 129.148 62.3989 128.266 63.2814C127.384 64.1639 126.089 63.4565 125.119 63.2672C124.149 63.0779 123.034 63.1891 122.323 63.977C122.174 64.1366 122.059 64.324 121.983 64.5284C121.908 64.7328 121.874 64.9501 121.884 65.1676C121.894 65.3852 121.947 65.5986 122.04 65.7955C122.133 65.9925 122.265 66.1689 122.427 66.3147C123.093 66.892 124.087 66.892 124.917 66.7524C126.065 66.5536 127.208 65.9645 128.237 65.4534C129.373 64.8921 130.463 64.2426 131.496 63.5109C132.421 62.8579 133.614 62.1457 133.379 60.8373C133.272 60.2293 132.933 59.6543 132.642 59.1267C132.35 58.5991 132.023 58.0454 131.693 57.5225C130.324 55.3931 128.69 53.4648 127.063 51.5389C123.859 47.7533 120.484 43.6885 119.605 38.6488C119.391 37.4414 119.367 36.2082 119.533 34.9934C119.566 34.8546 119.545 34.7085 119.474 34.5847C119.403 34.4609 119.288 34.3685 119.152 34.3261C119.013 34.289 118.865 34.3079 118.739 34.3787C118.614 34.4495 118.522 34.5666 118.483 34.7047V34.7118Z" fill="black"/>
<path d="M120.883 85.9005C118.986 86.0993 117.812 87.7933 117.529 89.5607C117.359 90.6396 117.439 91.7233 117.475 92.8069C117.517 93.8287 117.455 94.8521 117.29 95.8614C116.631 99.7086 114.349 103.229 110.685 104.81C108.961 105.565 107.047 105.776 105.199 105.415C103.233 105.018 101.443 104.088 99.6519 103.227C97.7682 102.291 95.7772 101.587 93.7228 101.131C91.6168 100.688 89.4823 100.397 87.4166 99.7843C83.1024 98.4966 79.1718 96.1703 75.971 93.0104L75.8595 93.8645C78.4019 92.5372 81.3665 93.9166 83.5437 95.3457C84.8223 96.2003 86.0439 97.1368 87.2008 98.1494C87.8158 98.6746 88.4143 99.2165 88.9961 99.7748C89.4989 100.248 90.023 100.771 90.2934 101.431C90.4974 101.923 90.5306 102.56 90.2223 103.014C89.8523 103.549 89.1123 103.542 88.5289 103.563C87.0733 103.594 85.6473 103.978 84.3738 104.682C83.0883 105.408 82.0448 106.478 81.0748 107.571C79.9767 108.808 78.8976 110.062 77.809 111.309C76.6232 112.665 75.4967 114.108 74.2089 115.364C73.1321 116.415 71.4744 117.392 69.9802 116.564C69.3683 116.226 68.8181 117.163 69.4324 117.51C70.8008 118.268 72.4586 117.984 73.7298 117.156C75.1386 116.24 76.1821 114.832 77.273 113.583L81.0179 109.291C82.1017 108.049 83.1761 106.724 84.5754 105.829C85.2694 105.389 86.0314 105.065 86.8308 104.871C87.6063 104.682 88.3747 104.701 89.1598 104.62C89.8712 104.549 90.5495 104.339 91.0073 103.769C91.4024 103.254 91.5856 102.608 91.5195 101.963C91.3749 100.364 90.0183 99.2354 88.9107 98.2275C87.6378 97.0651 86.3005 95.975 84.905 94.9624C82.2251 93.0293 78.5514 91.2383 75.3164 92.9252C75.2453 92.968 75.1848 93.0262 75.1395 93.0956C75.0942 93.165 75.0652 93.2438 75.0547 93.3259C75.0442 93.4081 75.0525 93.4916 75.0789 93.5701C75.1053 93.6486 75.1492 93.7202 75.2073 93.7793C78.0737 96.6034 81.504 98.7937 85.275 100.208C87.279 100.918 89.3427 101.449 91.4413 101.793C93.6232 102.193 95.7648 102.645 97.7997 103.551C99.6448 104.374 101.419 105.37 103.335 106.028C105.176 106.688 107.163 106.835 109.082 106.454C112.952 105.645 116.012 102.751 117.489 99.1597C118.327 97.0304 118.694 94.7454 118.563 92.4615C118.516 91.2619 118.409 89.989 118.846 88.8438C119.18 87.9732 119.908 87.0906 120.895 86.9865C121.585 86.9132 121.592 85.8272 120.895 85.9005H120.883Z" fill="black"/>
<path d="M87.1818 41.2277C79.9388 45.4984 72.0578 50.3582 68.9818 58.6156C68.0829 61.0313 67.6157 63.5842 67.2125 66.1182C66.7998 68.6995 66.501 71.3234 66.7382 73.9426C66.9753 76.4056 67.7699 78.6936 68.6474 80.9886C69.5012 83.215 70.3882 85.484 70.5447 87.8855C70.9147 93.4338 67.905 98.5208 65.1563 103.108C64.8527 103.612 65.4338 104.055 65.901 103.851C68.2726 102.789 70.687 100.806 70.5399 97.9529C70.3929 95.0995 67.6323 93.7083 65.1112 93.4835C63.5483 93.3439 61.9569 93.5048 60.3964 93.5782C59.6659 93.6137 58.8951 93.59 58.1789 93.7462C57.5103 93.9068 56.9169 94.2909 56.4974 94.8345C55.0554 96.6422 55.7646 99.2448 57.2706 100.773C59.4548 102.995 62.9625 102.751 65.7587 102.233C65.8736 102.202 65.9749 102.133 66.0473 102.039C66.1197 101.944 66.1591 101.829 66.1595 101.71C66.0077 99.4766 63.138 98.8709 61.4447 98.2345L57.5338 96.7817C57.0192 96.5901 56.495 96.4245 56.31 95.8543C56.1251 95.2841 56.1843 94.6523 56.2318 94.094C56.6468 89.0662 61.0225 85.5479 64.4875 82.4059L70.6301 76.8339L73.7013 74.0562C74.5717 73.2683 75.4564 72.2959 76.59 71.8889C78.983 71.0277 81.2171 72.9607 82.9531 74.333C84.8376 75.8527 86.9688 77.0394 89.2546 77.8418C89.7289 78.0051 90.2792 78.0595 90.597 77.5839C90.865 77.1864 90.763 76.6635 90.5756 76.2566C90.1192 75.3326 89.553 74.4668 88.8894 73.6776C87.5966 72.0726 86.0144 70.7228 84.2243 69.698C82.4384 68.6652 80.471 67.9825 78.428 67.6869C76.2936 67.3864 73.7156 67.4195 72.2096 69.2248C71.8685 69.6123 71.6197 70.0717 71.4817 70.5687C71.3437 71.0657 71.3201 71.5874 71.4127 72.0948C71.6238 73.1855 72.3614 74.068 72.8191 75.0499C73.8436 77.2006 73.4191 79.7181 72.9661 81.9563C72.7717 82.9311 72.4444 83.939 72.6649 84.9375C72.8547 85.7798 73.5922 86.4328 74.4887 86.1607C75.4255 85.8768 75.7172 84.7411 75.7955 83.8941C75.8951 82.7229 75.8191 81.5435 75.5702 80.3947C75.3251 79.2474 74.9137 78.1419 74.3488 77.1131C73.8745 76.2637 73.2555 75.1516 72.2428 74.8819C71.2941 74.6264 70.4949 75.3362 70.4356 76.2637C70.3715 77.229 70.9953 77.9885 71.8586 78.3245C72.895 78.7267 74.1093 78.6392 75.2002 78.7646C76.3991 78.9043 77.5875 79.1224 78.7577 79.4176C81.1025 80.001 83.3628 80.8812 85.4837 82.0368C86.4934 82.5886 87.4691 83.2001 88.4056 83.868C88.4993 83.9202 88.6063 83.9438 88.7134 83.936C88.8204 83.9283 88.9229 83.8894 89.0081 83.8243C89.0933 83.7591 89.1576 83.6706 89.1929 83.5695C89.2283 83.4683 89.2333 83.3591 89.2072 83.2553C88.2182 80.61 86.2426 78.5634 84.0536 76.841C81.9784 75.1966 79.4502 73.1098 76.6042 73.5499C75.9298 73.6331 75.2887 73.89 74.744 74.2953C74.1993 74.7006 73.7697 75.2403 73.4974 75.8615C73.2294 76.505 74.2824 76.7866 74.548 76.1501C75.0484 74.9505 76.5355 74.4797 77.7355 74.5814C79.3553 74.721 80.7831 75.7645 82.0567 76.6754C84.535 78.4712 87.0656 80.5911 88.166 83.5368L88.9653 82.924C85.3733 80.3714 81.2515 78.6578 76.9054 77.9104C75.8303 77.7302 74.7466 77.6054 73.6586 77.5366C72.9353 77.4869 71.6593 77.4467 71.5242 76.5121C71.4957 76.311 71.5242 76.0129 71.7376 75.9277C72.1716 75.755 72.6507 76.4506 72.8475 76.7392C73.4566 77.631 73.9283 78.6088 74.2468 79.64C74.5672 80.667 74.7366 81.7349 74.7496 82.8104C74.7684 83.2856 74.7374 83.7614 74.6571 84.23C74.6002 84.4879 74.4532 85.1007 74.0998 85.1244C73.5092 85.1646 73.6847 83.8491 73.7464 83.5439C73.9646 82.4555 74.2089 81.3719 74.3607 80.2717C74.6547 78.1565 74.5978 76.0129 73.5614 74.1011C73.1037 73.2588 72.4159 72.3905 72.4325 71.3826C72.4491 70.4598 73.1155 69.6507 73.884 69.2011C75.6105 68.1885 78.0249 68.5836 79.8653 69.0615C81.7038 69.5447 83.4389 70.3577 84.9856 71.4607C86.5365 72.5582 87.8664 73.9372 88.906 75.5255C89.1648 75.8965 89.394 76.2874 89.5914 76.6943C89.608 76.7524 89.6286 76.8093 89.653 76.8646L89.6696 76.9333C89.6696 77.0445 89.7242 77.0255 89.8357 76.8717C89.5461 76.751 89.25 76.6468 88.9487 76.5594C87.9358 76.1687 86.9576 75.6939 86.0244 75.1398C85.0661 74.556 84.1493 73.907 83.2804 73.1973C82.4124 72.5064 81.5349 71.799 80.5341 71.3045C79.5987 70.8087 78.55 70.564 77.4912 70.5947C76.4394 70.6865 75.4414 71.0996 74.6334 71.7777C73.7085 72.4993 72.8642 73.3322 71.9961 74.1177L69.1928 76.6635L63.5815 81.7505C60.3086 84.7198 56.6444 87.8098 55.4586 92.2556C55.1643 93.294 55.0559 94.3761 55.1385 95.4521C55.2428 96.512 55.7408 97.2171 56.7322 97.6241C58.9426 98.5326 61.2715 99.1809 63.4582 100.144C64.1128 100.433 65.014 100.892 65.0709 101.703L65.4693 101.178C63.2874 101.58 60.7261 101.831 58.7623 100.589C57.3631 99.7062 56.3077 97.7021 56.9978 96.0767C57.1824 95.6331 57.5007 95.2577 57.9085 95.0025C58.4611 94.6736 59.1536 94.7162 59.775 94.6878C61.1055 94.624 62.4384 94.5293 63.7713 94.5175C65.8109 94.5009 68.6189 94.9599 69.3209 97.2431C70.151 99.9475 67.4805 101.947 65.3508 102.905L66.0955 103.65C68.562 99.5334 71.0996 95.1729 71.5882 90.3083C71.8254 87.9423 71.4293 85.6142 70.6775 83.3641C69.9257 81.114 68.9225 78.9538 68.3058 76.6588C67.6442 74.1579 67.6323 71.5719 67.9003 69.0142C68.1595 66.4477 68.6114 63.9042 69.2521 61.4051C69.8104 59.1729 70.7215 57.0436 71.9511 55.0973C73.0856 53.3739 74.4268 51.7951 75.9449 50.396C79.4455 47.1002 83.6077 44.604 87.732 42.1718C88.3344 41.8169 87.7889 40.8776 87.1818 41.2254V41.2277Z" fill="black"/>
<path d="M83.4654 80.3309C83.833 81.3104 84.3192 82.5502 83.9137 83.5912C83.5081 84.6323 82.116 85.141 81.1246 85.4131C79.9585 85.7083 78.754 85.824 77.5529 85.7561C76.9462 85.7432 76.3405 85.6981 75.7386 85.6213C75.2951 85.5598 74.8136 85.4628 74.6215 85.0156L74.1472 85.8318C76.0445 85.6923 78.0628 85.122 79.2463 83.5415C80.3016 82.1338 80.4321 80.0422 79.1965 78.7054C78.7221 78.1896 77.9513 78.9586 78.4257 79.4744C79.3482 80.4728 79.0731 82.1172 78.2312 83.0778C77.2232 84.2301 75.6224 84.637 74.1472 84.7459C74.0524 84.7483 73.9598 84.7749 73.8782 84.8232C73.7966 84.8714 73.7288 84.9398 73.6812 85.0217C73.6336 85.1035 73.6079 85.1962 73.6064 85.2908C73.605 85.3854 73.6279 85.4788 73.6729 85.5621C74.1994 86.7948 75.9663 86.7593 77.0809 86.8208C78.5862 86.9442 80.1016 86.809 81.561 86.421C82.8369 86.0448 84.3358 85.3657 84.8813 84.0692C85.4268 82.7726 84.9809 81.2938 84.5089 80.047C84.2718 79.3963 83.2093 79.6779 83.4583 80.3356L83.4654 80.3309Z" fill="black"/>
<path d="M74.8398 86.2128C70.7202 88.6829 65.7255 89.8257 62.1894 93.2115C60.6525 94.6832 59.3742 96.5547 58.8691 98.6391C58.6142 99.6608 58.5714 100.724 58.7434 101.762C58.9402 102.945 59.5687 103.97 59.8486 105.12C60.3845 107.303 59.3102 109.554 59.8675 111.745C60.3632 113.685 62.0447 114.636 63.8566 115.116C65.5713 115.57 67.4141 115.745 68.8229 116.902C69.5842 117.522 70.7344 118.367 71.6523 117.487C72.4064 116.763 72.0626 115.625 71.6997 114.801C69.8024 110.521 65.3247 107.592 60.6573 107.453C59.9458 107.431 59.9458 108.517 60.6573 108.539C62.5393 108.618 64.374 109.151 66.004 110.094C67.634 111.036 69.0106 112.358 70.0158 113.947C70.4261 114.605 71.0902 115.582 71.0119 116.396C70.9147 117.437 69.366 115.923 69.0458 115.705C67.6797 114.74 65.9627 114.522 64.3713 114.127C62.7799 113.732 61.2715 113.065 60.8873 111.326C60.6739 110.353 60.8257 109.317 60.9348 108.34C61.0486 107.315 61.1506 106.288 60.9869 105.264C60.8091 104.164 60.2351 103.198 59.9387 102.134C59.6944 101.238 59.6539 100.298 59.8201 99.3844C60.1711 97.4538 61.2573 95.7218 62.6091 94.3283C66.0694 90.7674 71.2301 89.6459 75.3924 87.1521C75.9924 86.7925 75.4445 85.8532 74.8421 86.2057L74.8398 86.2128Z" fill="black"/>
<path d="M69.2355 116.171C67.9567 117.147 66.5811 117.989 65.1302 118.684C64.41 119.034 63.6686 119.339 62.9103 119.597C62.3625 119.78 61.6795 119.985 61.1126 119.765C60.477 119.529 60.3751 118.767 60.3466 118.171C60.3181 117.52 60.3845 116.794 60.7877 116.254C61.587 115.192 63.3467 115.384 64.5136 115.206C65.2061 115.1 64.912 114.054 64.2242 114.158C63.0147 114.342 61.6605 114.238 60.6027 114.96C59.4904 115.719 59.1655 117.089 59.2722 118.372C59.3813 119.692 60.0098 120.814 61.4423 120.927C62.7823 121.031 64.2076 120.305 65.3887 119.761C66.9469 119.039 68.4214 118.15 69.7858 117.108C70.336 116.69 69.7858 115.746 69.2355 116.162V116.171Z" fill="black"/>
<path d="M60.2162 107.938C59.7608 109.095 60.5126 110.235 61.3308 111.013C62.149 111.792 62.9269 112.433 62.9151 113.642C62.9151 114.678 62.4977 115.682 62.2368 116.673C61.9522 117.754 61.7838 118.892 62.1467 119.985C62.5475 121.185 63.2969 122.172 63.3325 123.485C63.3681 124.798 62.9554 126.042 62.6779 127.296C62.1087 129.859 62.2961 132.476 63.4795 134.849C63.9859 135.897 64.7199 136.82 65.6283 137.551C66.6243 138.287 67.7835 138.774 69.0079 138.97C71.1874 139.368 73.4049 139.145 75.5394 138.615C79.8582 137.541 83.8188 135.303 88.2135 134.506C89.2576 134.31 90.3203 134.231 91.382 134.269C92.6603 134.323 93.8983 134.742 95.1766 134.742C97.6787 134.756 99.7302 132.83 101.497 131.29C103.487 129.538 105.343 127.64 107.049 125.612C107.813 124.717 108.591 123.804 109.532 123.087C110.173 122.6 111.75 121.476 112.324 122.578C112.758 123.409 112.411 124.471 112.022 125.245C111.557 126.138 110.92 126.931 110.146 127.578C108.515 128.997 106.485 129.866 104.497 130.654C100.532 132.227 95.8217 134.219 95.0438 138.956C94.8527 140.09 94.9122 141.252 95.2183 142.361C95.5243 143.47 96.0694 144.498 96.8154 145.375C97.6171 146.338 98.5823 147.15 99.4788 148.023C100.29 148.806 101.011 149.68 101.625 150.625C104.082 154.47 104.67 159.181 104.808 163.638C104.841 164.774 104.846 165.907 104.834 167.041C104.834 167.75 105.918 167.75 105.925 167.041C105.965 162.512 105.823 157.813 104.243 153.509C103.49 151.383 102.31 149.431 100.776 147.774C99.1634 146.066 97.0455 144.658 96.3174 142.311C95.981 141.212 95.9265 140.047 96.1589 138.922C96.3914 137.796 96.9034 136.747 97.6479 135.871C99.059 134.231 101.049 133.235 103.01 132.405C106.765 130.815 111.449 129.409 113.177 125.306C113.562 124.393 113.773 123.347 113.429 122.384C113.278 121.91 112.952 121.51 112.517 121.265C112.083 121.02 111.571 120.948 111.086 121.064C109.957 121.301 108.916 122.112 108.09 122.874C107.245 123.704 106.449 124.582 105.704 125.503C103.953 127.539 102.037 129.429 99.9768 131.153C99.0282 131.938 98.0795 132.762 96.9364 133.261C95.6818 133.815 94.4912 133.599 93.1916 133.372C88.7115 132.589 84.452 134.297 80.342 135.859C78.2549 136.649 76.1418 137.432 73.9385 137.832C71.804 138.22 69.3446 138.26 67.3382 137.305C65.0448 136.211 63.8139 133.644 63.5056 131.226C63.3655 129.944 63.4538 128.647 63.7665 127.396C64.0487 126.151 64.4163 124.9 64.4235 123.61C64.434 122.986 64.3369 122.365 64.1365 121.774C63.923 121.168 63.6005 120.615 63.3467 120.026C62.8843 118.951 63.0337 117.896 63.3325 116.808C63.6052 115.8 63.9681 114.794 64.0108 113.732C64.026 113.21 63.9303 112.692 63.73 112.209C63.5297 111.727 63.2293 111.293 62.8487 110.935C62.1585 110.242 60.8091 109.378 61.2644 108.226C61.5229 107.576 60.4699 107.294 60.2138 107.938H60.2162Z" fill="black"/>
<path d="M121.018 30.0128C119.358 28.9812 117.665 27.952 115.8 27.2872C113.87 26.6138 111.799 26.4412 109.784 26.7856C105.885 27.3842 102.026 29.0569 98.6843 31.1154C98.274 31.3662 97.8708 31.6288 97.4724 31.8985C97.2186 32.0689 96.538 32.7266 96.2107 32.6083C95.8834 32.49 96.0494 31.9411 96.1609 31.7424C96.4117 31.3604 96.715 31.0156 97.0621 30.7179C98.2448 29.5772 99.581 28.6065 101.032 27.8337C103.976 26.2531 107.286 25.4746 110.628 25.5765C112.469 25.6307 114.291 25.9765 116.023 26.601C117.698 27.2138 119.481 28.2572 120.138 30.0081C120.375 30.6587 121.433 30.3772 121.189 29.7194C119.901 26.2816 115.682 25.0418 112.376 24.6278C108.82 24.2078 105.216 24.747 101.941 26.1893C100.29 26.9097 98.7498 27.8591 97.3657 29.0096C96.2913 29.9016 93.8722 31.8488 95.4209 33.3584C96.2557 34.1652 97.2352 33.3844 97.9752 32.8852C98.8598 32.2842 99.7752 31.7258 100.712 31.21C102.572 30.1894 104.528 29.3518 106.551 28.7091C108.939 27.9496 111.515 27.3605 114.017 27.9C116.374 28.4087 118.454 29.7005 120.48 30.9568C121.077 31.3259 121.625 30.3866 121.03 30.0104L121.018 30.0128Z" fill="black"/>
<path d="M35.3494 121.213C35.3332 121.308 35.3378 121.405 35.3631 121.498C35.3884 121.591 35.4337 121.677 35.4958 121.75C35.5579 121.824 35.6354 121.883 35.7227 121.923C35.8101 121.964 35.9053 121.985 36.0016 121.985C36.098 121.985 36.1931 121.964 36.2805 121.923C36.3679 121.883 36.4453 121.824 36.5074 121.75C36.5695 121.677 36.6148 121.591 36.6401 121.498C36.6654 121.405 36.6701 121.308 36.6538 121.213V117.705H35.3494V121.213Z" fill="#B77E30"/>
<path d="M47.1057 126.868C47.0943 126.964 47.1034 127.06 47.1323 127.152C47.1612 127.244 47.2093 127.329 47.2734 127.401C47.3375 127.473 47.4161 127.53 47.5041 127.57C47.5921 127.609 47.6875 127.63 47.784 127.63C47.8805 127.63 47.9758 127.609 48.0638 127.57C48.1519 127.53 48.2305 127.473 48.2946 127.401C48.3587 127.329 48.4067 127.244 48.4356 127.152C48.4645 127.06 48.4736 126.964 48.4623 126.868V117.721H47.1057V126.868Z" fill="#B77E30"/>
<path d="M53.0609 121.376C53.0446 121.471 53.0493 121.568 53.0746 121.661C53.0999 121.754 53.1452 121.84 53.2073 121.913C53.2694 121.987 53.3468 122.046 53.4342 122.086C53.5216 122.127 53.6167 122.148 53.7131 122.148C53.8094 122.148 53.9046 122.127 53.992 122.086C54.0793 122.046 54.1568 121.987 54.2189 121.913C54.281 121.84 54.3263 121.754 54.3516 121.661C54.3769 121.568 54.3815 121.471 54.3653 121.376V117.73H53.0609V121.376Z" fill="#B77E30"/>
<path d="M50.1106 123.657C50.0943 123.752 50.099 123.849 50.1243 123.942C50.1495 124.035 50.1948 124.121 50.2569 124.194C50.3191 124.268 50.3965 124.327 50.4839 124.367C50.5712 124.408 50.6664 124.429 50.7628 124.429C50.8591 124.429 50.9543 124.408 51.0417 124.367C51.129 124.327 51.2065 124.268 51.2686 124.194C51.3307 124.121 51.376 124.035 51.4013 123.942C51.4265 123.849 51.4312 123.752 51.415 123.657V117.726H50.1106V123.657Z" fill="#B77E30"/>
<path d="M44.2905 123.743C44.2905 124.166 44.5656 124.512 44.9001 124.512C45.2345 124.512 45.5096 124.166 45.5096 123.743V117.719H44.2905V123.743Z" fill="#B77E30"/>
<path d="M38.3021 120.231C38.2859 120.326 38.2905 120.423 38.3158 120.516C38.3411 120.609 38.3864 120.695 38.4485 120.768C38.5106 120.842 38.5881 120.901 38.6754 120.941C38.7628 120.982 38.858 121.003 38.9543 121.003C39.0507 121.003 39.1459 120.982 39.2332 120.941C39.3206 120.901 39.398 120.842 39.4601 120.768C39.5223 120.695 39.5675 120.609 39.5928 120.516C39.6181 120.423 39.6228 120.326 39.6065 120.231V117.709H38.3021V120.231Z" fill="#B77E30"/>
<path d="M41.2667 120.697C41.2504 120.792 41.2551 120.889 41.2804 120.982C41.3057 121.075 41.3509 121.161 41.4131 121.234C41.4752 121.308 41.5526 121.367 41.64 121.407C41.7274 121.448 41.8225 121.469 41.9189 121.469C42.0152 121.469 42.1104 121.448 42.1978 121.407C42.2851 121.367 42.3626 121.308 42.4247 121.234C42.4868 121.161 42.5321 121.075 42.5574 120.982C42.5827 120.889 42.5873 120.792 42.5711 120.697V117.714H41.2667V120.697Z" fill="#B77E30"/>
<path d="M56.0136 119.841C55.9973 119.936 56.002 120.033 56.0273 120.126C56.0526 120.218 56.0979 120.305 56.16 120.378C56.2221 120.452 56.2995 120.511 56.3869 120.551C56.4743 120.592 56.5694 120.613 56.6658 120.613C56.7621 120.613 56.8573 120.592 56.9447 120.551C57.0321 120.511 57.1095 120.452 57.1716 120.378C57.2337 120.305 57.279 120.218 57.3043 120.126C57.3296 120.033 57.3343 119.936 57.318 119.841V117.735H56.0136V119.841Z" fill="#B77E30"/>
<path d="M49.2852 110.999C49.0504 111.016 48.832 111.125 48.6777 111.303C48.5234 111.48 48.446 111.711 48.4623 111.946V117.728H50.1106V111.939C50.1249 111.705 50.0462 111.475 49.8916 111.299C49.7371 111.124 49.5191 111.016 49.2852 110.999Z" fill="#B77E30"/>
<path d="M46.3064 113.02C45.8677 113.02 45.5096 113.441 45.5096 113.966V117.726H47.1057V113.964C47.1057 113.441 46.7476 113.02 46.3064 113.02Z" fill="#B77E30"/>
<path d="M43.4249 113.763C43.3057 113.768 43.1886 113.796 43.0805 113.847C42.9724 113.897 42.8754 113.968 42.7949 114.056C42.7145 114.144 42.6523 114.247 42.6118 114.359C42.5714 114.471 42.5535 114.59 42.5592 114.709V117.723H44.2905V114.7C44.2995 114.461 44.2136 114.229 44.0514 114.053C43.8892 113.878 43.664 113.773 43.4249 113.763Z" fill="#B77E30"/>
<path d="M58.141 116.429C57.9064 116.447 57.6883 116.556 57.5341 116.733C57.38 116.911 57.3023 117.141 57.318 117.376V117.742H58.9663V117.373C58.9813 117.139 58.903 116.909 58.7484 116.732C58.5938 116.555 58.3755 116.446 58.141 116.429Z" fill="#B77E30"/>
<path d="M55.1906 115.417C54.9554 115.433 54.7363 115.542 54.5816 115.719C54.4268 115.897 54.349 116.128 54.3653 116.363V117.74H56.0254V116.361C56.0332 116.244 56.0176 116.127 55.9798 116.016C55.942 115.905 55.8825 115.803 55.8049 115.715C55.7273 115.627 55.6331 115.556 55.5277 115.505C55.4223 115.453 55.3077 115.423 55.1906 115.417Z" fill="#B77E30"/>
<path d="M58.9663 117.738V117.958C58.95 118.052 58.9547 118.149 58.98 118.242C59.0053 118.335 59.0506 118.421 59.1127 118.495C59.1748 118.568 59.2522 118.627 59.3396 118.668C59.427 118.708 59.5221 118.729 59.6185 118.729C59.7148 118.729 59.81 118.708 59.8974 118.668C59.9847 118.627 60.0622 118.568 60.1243 118.495C60.1864 118.421 60.2317 118.335 60.257 118.242C60.2823 118.149 60.2869 118.052 60.2707 117.958V117.74L58.9663 117.738Z" fill="#B77E30"/>
<path d="M40.4295 115.033C40.1947 115.05 39.9762 115.159 39.8219 115.337C39.6677 115.514 39.5902 115.745 39.6065 115.98V117.716H41.2667V115.977C41.2744 115.86 41.2588 115.743 41.2208 115.632C41.1828 115.521 41.1232 115.419 41.0453 115.331C40.9675 115.243 40.873 115.172 40.7673 115.121C40.6616 115.07 40.5468 115.04 40.4295 115.033Z" fill="#B77E30"/>
<path d="M52.2379 112.521C52.0031 112.537 51.7847 112.647 51.6304 112.824C51.4761 113.001 51.3987 113.233 51.415 113.467V117.726H53.0609V113.467C53.0772 113.233 52.9997 113.001 52.8455 112.824C52.6912 112.647 52.4727 112.537 52.2379 112.521Z" fill="#B77E30"/>
<path d="M37.472 115.92C37.2368 115.937 37.0177 116.046 36.863 116.223C36.7082 116.401 36.6304 116.632 36.6467 116.867V117.711H38.295V116.864C38.3107 116.631 38.2329 116.4 38.0787 116.223C37.9245 116.046 37.7064 115.937 37.472 115.92Z" fill="#B77E30"/>
<path d="M34.5265 114.487C34.4101 114.495 34.2965 114.526 34.1921 114.578C34.0877 114.63 33.9946 114.702 33.9182 114.79C33.8417 114.878 33.7834 114.98 33.7466 115.09C33.7097 115.201 33.6951 115.317 33.7035 115.433V117.709H35.3494V115.431C35.3651 115.197 35.2873 114.966 35.1331 114.789C34.9789 114.613 34.7608 114.504 34.5265 114.487Z" fill="#B77E30"/>
<path d="M137.496 82.2734C137.48 82.3681 137.485 82.4653 137.51 82.558C137.535 82.6508 137.581 82.7369 137.643 82.8104C137.705 82.8838 137.782 82.9429 137.87 82.9834C137.957 83.0239 138.052 83.0449 138.149 83.0449C138.245 83.0449 138.34 83.0239 138.427 82.9834C138.515 82.9429 138.592 82.8838 138.654 82.8104C138.716 82.7369 138.762 82.6508 138.787 82.558C138.812 82.4653 138.817 82.3681 138.801 82.2734V80.4161C138.801 80.3421 138.809 80.2684 138.824 80.196H137.496V82.2734Z" fill="#B77E30"/>
<path d="M143.399 82.522C143.383 82.6167 143.388 82.7138 143.413 82.8066C143.438 82.8993 143.484 82.9855 143.546 83.0589C143.608 83.1324 143.685 83.1915 143.773 83.232C143.86 83.2725 143.955 83.2935 144.052 83.2935C144.148 83.2935 144.243 83.2725 144.33 83.232C144.418 83.1915 144.495 83.1324 144.557 83.0589C144.62 82.9855 144.665 82.8993 144.69 82.8066C144.715 82.7138 144.72 82.6167 144.704 82.522V80.208H143.399V82.522Z" fill="#B77E30"/>
<path d="M134.544 86.6317C134.527 86.7264 134.532 86.8236 134.557 86.9163C134.583 87.0091 134.628 87.0952 134.69 87.1687C134.752 87.2421 134.83 87.3012 134.917 87.3417C135.004 87.3822 135.099 87.4032 135.196 87.4032C135.292 87.4032 135.387 87.3822 135.475 87.3417C135.562 87.3012 135.64 87.2421 135.702 87.1687C135.764 87.0952 135.809 87.0091 135.834 86.9163C135.86 86.8236 135.864 86.7264 135.848 86.6317V80.1914H134.544V86.6317Z" fill="#B77E30"/>
<path d="M140.447 80.4162V81.4857C140.432 81.58 140.437 81.6764 140.463 81.7684C140.489 81.8603 140.534 81.9456 140.597 82.0182C140.659 82.0909 140.736 82.1493 140.823 82.1893C140.91 82.2293 141.004 82.25 141.1 82.25C141.196 82.25 141.29 82.2293 141.377 82.1893C141.464 82.1493 141.541 82.0909 141.604 82.0182C141.666 81.9456 141.711 81.8603 141.737 81.7684C141.763 81.6764 141.769 81.58 141.753 81.4857V80.208H140.423C140.438 80.2763 140.446 80.3462 140.447 80.4162Z" fill="#B77E30"/>
<path d="M121.903 79.0698C121.668 79.0868 121.449 79.1959 121.295 79.3734C121.141 79.5508 121.063 79.7819 121.08 80.0162V80.1771H122.726V80.0139C122.742 79.7798 122.664 79.5489 122.51 79.3719C122.356 79.1948 122.137 79.0862 121.903 79.0698Z" fill="#B77E30"/>
<path d="M122.735 80.6409C122.72 80.7352 122.726 80.8317 122.752 80.9236C122.777 81.0156 122.823 81.1008 122.885 81.1735C122.947 81.2462 123.024 81.3045 123.111 81.3445C123.198 81.3846 123.293 81.4053 123.389 81.4053C123.484 81.4053 123.579 81.3846 123.666 81.3445C123.753 81.3045 123.83 81.2462 123.892 81.1735C123.954 81.1008 124 81.0156 124.026 80.9236C124.052 80.8317 124.057 80.7352 124.042 80.6409V80.1677H122.735V80.6409Z" fill="#B77E30"/>
<path d="M128.641 84.2017C128.624 84.2964 128.629 84.3935 128.654 84.4863C128.68 84.579 128.725 84.6652 128.787 84.7386C128.849 84.8121 128.927 84.8712 129.014 84.9117C129.101 84.9522 129.196 84.9732 129.293 84.9732C129.389 84.9732 129.484 84.9522 129.572 84.9117C129.659 84.8712 129.737 84.8121 129.799 84.7386C129.861 84.6652 129.906 84.579 129.931 84.4863C129.957 84.3935 129.961 84.2964 129.945 84.2017V80.1794H128.641V84.2017Z" fill="#B77E30"/>
<path d="M125.697 82.2426C125.681 82.3373 125.686 82.4345 125.711 82.5272C125.736 82.62 125.782 82.7061 125.844 82.7796C125.906 82.853 125.983 82.9121 126.071 82.9526C126.158 82.9931 126.253 83.0141 126.35 83.0141C126.446 83.0141 126.541 82.9931 126.628 82.9526C126.716 82.9121 126.793 82.853 126.855 82.7796C126.917 82.7061 126.963 82.62 126.988 82.5272C127.013 82.4345 127.018 82.3373 127.002 82.2426V80.1794H125.697V82.2426Z" fill="#B77E30"/>
<path d="M131.591 90.3462C131.575 90.4409 131.579 90.5381 131.605 90.6308C131.63 90.7236 131.675 90.8097 131.737 90.8831C131.799 90.9566 131.877 91.0157 131.964 91.0562C132.052 91.0967 132.147 91.1177 132.243 91.1177C132.339 91.1177 132.435 91.0967 132.522 91.0562C132.609 91.0157 132.687 90.9566 132.749 90.8831C132.811 90.8097 132.856 90.7236 132.882 90.6308C132.907 90.5381 132.912 90.4409 132.895 90.3462V80.1865H131.591V90.3462Z" fill="#B77E30"/>
<path d="M124.865 77.8726C124.749 77.8807 124.635 77.9116 124.531 77.9636C124.426 78.0155 124.333 78.0875 124.257 78.1754C124.18 78.2634 124.122 78.3654 124.085 78.4759C124.048 78.5863 124.034 78.7029 124.042 78.819V80.1818H125.697V78.8119C125.712 78.5772 125.632 78.3465 125.476 78.1704C125.32 77.9943 125.1 77.8872 124.865 77.8726Z" fill="#B77E30"/>
<path d="M130.768 73.1667C130.533 73.1837 130.315 73.2929 130.16 73.4703C130.006 73.6477 129.929 73.8789 129.945 74.1132V80.1843H131.591V74.1037C131.605 73.8708 131.527 73.6417 131.373 73.4663C131.219 73.2908 131.001 73.1832 130.768 73.1667Z" fill="#B77E30"/>
<path d="M133.721 72.5374C133.485 72.5537 133.266 72.6626 133.112 72.8401C132.957 73.0176 132.879 73.2491 132.895 73.4838V80.1938H134.544V73.4767C134.558 73.2436 134.48 73.0142 134.326 72.8384C134.171 72.6625 133.954 72.5544 133.721 72.5374Z" fill="#B77E30"/>
<path d="M127.815 76.4033C127.58 76.4203 127.362 76.5294 127.208 76.7068C127.053 76.8842 126.976 77.1154 126.992 77.3497V80.1889H128.641V77.3497C128.657 77.1151 128.579 76.8835 128.424 76.7061C128.27 76.5286 128.05 76.4197 127.815 76.4033Z" fill="#B77E30"/>
<path d="M136.671 74.2314C136.436 74.249 136.218 74.3583 136.064 74.5356C135.91 74.7129 135.832 74.9437 135.848 75.1779V80.1985H137.508V75.1708C137.522 74.9355 137.441 74.7045 137.284 74.5284C137.127 74.3523 136.907 74.2455 136.671 74.2314Z" fill="#B77E30"/>
<path d="M139.624 79.4792C139.429 79.489 139.244 79.5647 139.099 79.6937C138.953 79.8228 138.857 79.9976 138.824 80.1891H140.423C140.391 79.9974 140.294 79.8224 140.149 79.6932C140.004 79.5641 139.818 79.4885 139.624 79.4792Z" fill="#B77E30"/>
<path d="M142.576 78.3955C142.342 78.4125 142.123 78.5216 141.969 78.699C141.815 78.8764 141.737 79.1076 141.753 79.3419V80.2079H143.399V79.3395C143.414 79.1058 143.336 78.8756 143.182 78.6988C143.028 78.5221 142.81 78.4131 142.576 78.3955Z" fill="#B77E30"/>
</g>
<defs>
<clipPath id="clip0">
<rect width="195.957" height="224.634" fill="white"/>
</clipPath>
</defs>
</svg>
