<svg width="96" height="116" viewBox="0 0 96 116" fill="none" xmlns="http://www.w3.org/2000/svg">
<path d="M95.9991 9.5074V67.7921C96.0585 74.1605 94.8607 80.4776 92.4751 86.3785C90.0894 92.2793 86.5632 97.647 82.1001 102.171C77.637 106.696 72.3255 110.287 66.4724 112.738C60.6193 115.189 54.3406 116.451 47.9991 116.451C41.6576 116.451 35.379 115.189 29.5259 112.738C23.6728 110.287 18.3613 106.696 13.8982 102.171C9.43505 97.647 5.90883 92.2793 3.5232 86.3785C1.13757 80.4776 -0.0601776 74.1605 -0.00086002 67.7921V9.5074C30.7544 -3.16921 65.2439 -3.16921 95.9991 9.5074Z" fill="#EBBF82"/>
</svg>
