<svg width="460" height="444" viewBox="0 0 460 444" fill="none" xmlns="http://www.w3.org/2000/svg">
<path d="M20.0166 435.014V428.567C134.022 428.567 226.774 335.896 226.774 222.003H233.226C233.304 249.989 227.825 277.713 217.106 303.569C206.387 329.426 190.641 352.901 170.779 372.637C151.026 392.476 127.53 408.205 101.652 418.912C75.7732 429.619 48.0262 435.092 20.0166 435.014Z" fill="#E9E1CE"/>
<path d="M0 431.793L21.1719 419.581V431.793V444L0 431.793Z" fill="#E9E1CE"/>
<path d="M233.226 222.003H226.774C226.773 194.029 232.287 166.33 243.002 140.485C253.716 114.641 269.421 91.1581 289.219 71.3776C309.018 51.5971 332.522 35.9063 358.39 25.2011C384.258 14.496 411.984 8.98608 439.983 8.98608V15.4385C325.978 15.4385 233.226 108.098 233.226 222.003Z" fill="#E9E1CE"/>
<path d="M460 12.2123L438.828 0V12.2123V24.4188L460 12.2123Z" fill="#E9E1CE"/>
</svg>
