<svg width="648" height="432" viewBox="0 0 648 432" fill="none" xmlns="http://www.w3.org/2000/svg">
<path d="M0.000245201 419.872L20.9979 432L20.9979 422.801C76.8726 422.572 130.381 400.213 169.808 360.617C209.236 321.022 231.372 267.416 231.37 211.535C231.37 98.4314 323.384 6.40195 436.482 6.40196C549.579 6.40197 641.593 98.4314 641.593 211.535C641.593 324.639 549.579 416.668 436.482 416.668L436.482 407.75L415.484 419.872L436.482 432L436.482 423.076C478.316 423.077 519.211 410.671 553.996 387.428C588.78 364.184 615.892 331.146 631.902 292.493C647.912 253.839 652.102 211.305 643.941 170.27C635.781 129.235 615.637 91.5418 586.056 61.9566C556.473 32.3736 518.783 12.228 477.753 4.06697C436.722 -4.09398 394.193 0.0962608 355.543 16.1079C316.894 32.1196 283.859 59.2335 260.617 94.0212C237.375 128.809 224.97 169.708 224.969 211.547C224.969 324.221 133.545 415.941 20.9922 416.416L20.9922 407.762L0.000245201 419.872Z" fill="#E9E1CE"/>
</svg>
