<svg width="648" height="432" viewBox="0 0 648 432" fill="none" xmlns="http://www.w3.org/2000/svg">
<g clip-path="url(#clip0)">
<path d="M648 12.1277L627.002 0V9.19893C571.127 9.42785 517.619 31.7874 478.192 71.3828C438.764 110.978 416.628 164.584 416.63 220.465C416.63 333.569 324.616 425.598 211.518 425.598C98.4207 425.598 6.4068 333.569 6.4068 220.465C6.4068 107.361 98.4207 15.3315 211.518 15.3315V24.2496L232.516 12.1277L211.518 0V8.92382C169.684 8.92292 128.789 21.3287 94.0042 44.5723C59.2197 67.816 32.1081 100.854 16.0979 139.507C0.0877195 178.161 -4.10201 220.695 4.05854 261.73C12.2191 302.765 32.3634 340.458 61.9441 370.043C91.5269 399.626 129.217 419.772 170.247 427.933C211.278 436.094 253.807 431.904 292.457 415.892C331.107 399.88 364.141 372.766 387.383 337.979C410.625 303.191 423.03 262.292 423.031 220.453C423.031 107.779 514.455 16.0594 627.008 15.5837V24.2382L648 12.1277Z" fill="#E9E1CE"/>
</g>
<defs>
<clipPath id="clip0">
<rect width="648" height="432" fill="white"/>
</clipPath>
</defs>
</svg>
