<svg width="243" height="107" viewBox="0 0 243 107" fill="none" xmlns="http://www.w3.org/2000/svg">
<g clip-path="url(#clip0)">
<path d="M115.995 63.6697L115.944 64.5702C115.944 64.7467 115.859 65.858 115.689 67.9041C115.553 69.4578 115.486 70.6573 115.486 71.5027C115.486 72.5613 115.503 73.4429 115.537 74.1474C115.574 74.446 115.591 74.7469 115.588 75.048C115.588 75.4358 115.503 75.6306 115.333 75.6306C115.164 75.6306 114.979 75.4468 114.772 75.1013C114.026 73.8307 113.227 73.0012 112.378 72.6128C109.83 74.8722 107.095 76.0012 104.173 76C99.722 76 95.7979 74.2712 92.4012 70.8135C88.8004 67.1451 87 62.5234 87 56.9485C87 51.5501 88.6223 47.043 91.8668 43.4273C95.1113 39.8115 99.1651 38.0025 104.028 38C106.27 38 108.276 38.5293 110.045 39.5879C111.065 40.1871 111.812 40.4867 112.288 40.4867C112.996 40.4867 113.658 40.1515 114.275 39.4813C114.716 38.9912 114.988 38.7462 115.091 38.7462C115.225 38.7462 115.294 38.8693 115.294 39.1138C115.289 39.2741 115.272 39.4338 115.243 39.5916C115.02 41.0612 114.917 42.5479 114.937 44.0356C114.937 44.2145 114.954 44.938 114.988 46.2061V49.858C114.988 50.4927 114.818 50.81 114.479 50.81C114.206 50.81 113.935 50.122 113.665 48.7461C112.432 42.3968 109.625 39.2216 105.244 39.2204C101.777 39.2204 99.2625 41.5483 97.7016 46.2043C96.6102 49.3814 96.0646 53.1925 96.0646 57.6377C96.0646 64.2333 97.3559 69.0663 99.9385 72.1368C101.3 73.7615 103.085 74.5738 105.294 74.5738C110.085 74.5738 113.227 71.257 114.721 64.6235C114.957 63.5318 115.229 62.9854 115.537 62.9841C115.877 62.9829 116.03 63.2114 115.995 63.6697Z" fill="#1A1E30"/>
<path d="M141.997 72.5957C141.997 72.8803 141.72 73.2725 141.168 73.7688C139.683 75.1565 137.853 75.8498 135.68 75.8486C134.263 75.8486 133.235 75.5445 132.597 74.9364C131.96 74.3282 131.54 73.247 131.339 71.6926C129.78 74.5642 127.657 76 124.969 76C123.486 76 122.287 75.5269 121.372 74.5806C120.457 73.6344 120 72.409 120 70.9044C120 66.4918 123.729 63.8823 131.186 63.0759V61.9813C131.186 58.4785 131.066 56.3244 130.826 55.5193L130.774 55.2566C130.294 53.5051 129.069 52.6294 127.098 52.6294C125.958 52.6294 125.043 52.9621 124.354 53.6274C123.664 54.2927 123.319 54.9409 123.318 55.5722C123.318 55.9225 123.732 56.1323 124.561 56.2016C125.794 56.3074 126.411 57.0779 126.411 58.5131C126.422 58.8677 126.361 59.2208 126.232 59.5506C126.103 59.8804 125.909 60.1798 125.661 60.4306C125.405 60.6864 125.101 60.8862 124.766 61.0177C124.431 61.1491 124.072 61.2095 123.714 61.195C122.713 61.195 121.892 60.8909 121.253 60.2828C120.939 59.983 120.69 59.6184 120.525 59.2135C120.36 58.8086 120.282 58.3727 120.297 57.9348C120.297 56.4303 121.039 55.0644 122.523 53.8372C124.007 52.61 125.958 51.9976 128.375 52C131.964 52 134.467 52.6477 135.883 53.943C137.021 55.0279 137.59 56.9192 137.591 59.6169V68.6002C137.591 70.3517 137.609 71.3672 137.644 71.647C137.816 73.1174 138.317 73.8527 139.145 73.8527C139.731 73.8527 140.456 73.4325 141.319 72.592C141.423 72.4572 141.57 72.364 141.735 72.3293C141.771 72.3237 141.807 72.3268 141.841 72.3382C141.876 72.3496 141.907 72.369 141.933 72.395C141.958 72.4209 141.977 72.4526 141.989 72.4875C142 72.5223 142.003 72.5594 141.997 72.5957ZM131.175 66.3398V63.7674C127.825 64.4315 126.151 66.3574 126.152 69.5453C126.152 71.9973 126.981 73.2233 128.637 73.2233C129.569 73.2233 130.225 72.6978 130.605 71.647C130.985 70.5961 131.175 68.8271 131.175 66.3398Z" fill="#1A1E30"/>
<path d="M170 74.573C170 74.8577 169.567 75 168.7 75H157.562C157.074 75 156.839 74.8669 156.839 74.6026C156.839 74.3715 157.043 74.255 157.453 74.255H157.862C158.746 74.255 159.266 74.1386 159.42 73.9075C159.574 73.6764 159.65 72.8815 159.65 71.5247V61.2004C159.65 57.38 159.409 55.097 158.927 54.3515C158.516 53.7094 157.781 53.3884 156.723 53.3884C155.665 53.3884 154.794 53.7248 154.109 54.3977C153.773 54.7251 153.509 55.1211 153.332 55.56C153.156 55.9988 153.071 56.4707 153.084 56.945V73.0276C153.153 73.4527 153.301 73.727 153.527 73.8502C153.753 73.974 154.315 74.0554 155.219 74.0905C155.496 74.0905 155.635 74.1959 155.635 74.4085C155.635 74.621 155.514 74.7449 155.273 74.7782C155.033 74.8114 154.162 74.8299 152.67 74.8299C151.179 74.8299 149.946 74.8484 148.974 74.8835C147.065 74.9538 145.122 74.9895 143.144 74.9908C142.728 74.9908 142.521 74.8675 142.521 74.621C142.521 74.3382 143.048 74.1959 144.108 74.1959C145.167 74.1959 145.782 73.9833 145.955 73.5581L146.112 72.8187V60.6181C146.112 57.1835 146.077 55.3965 146.007 55.2573C145.904 54.7267 145.434 54.4605 144.603 54.4605H142.833C142.277 54.4605 142 54.3441 142 54.113C142 53.8819 142.206 53.7433 142.622 53.7156C146.488 53.5381 149.579 52.7044 151.895 51.2144C152.07 51.1067 152.263 51.0339 152.464 51C152.739 51 152.878 51.2847 152.878 51.8522V54.8857C154.716 52.4333 157.074 51.207 159.953 51.207C162.937 51.207 164.88 52.2712 165.783 54.3995C166.179 55.3461 166.418 56.354 166.488 57.3813C166.575 58.4806 166.618 60.7512 166.618 64.1933V71.9129C166.618 73.0122 166.705 73.6598 166.878 73.8557C167.059 74.0498 167.614 74.1478 168.57 74.1478C169.526 74.1478 170 74.2901 170 74.573Z" fill="#1A1E30"/>
<path d="M196 74.3104C196 74.5555 195.65 74.6781 194.951 74.6781H192.584C190.872 74.6438 189.072 75.0507 187.185 75.8989C187.066 75.9428 186.944 75.9766 186.82 76C186.505 76 186.331 75.6838 186.296 75.0476C186.281 74.6027 186.229 74.1598 186.139 73.7239C184.741 75.2425 182.888 76.0012 180.58 76C177.505 76 174.971 74.8534 172.977 72.5602C170.984 70.2669 169.992 67.3566 170 63.8291C170 60.2293 171.014 57.3263 173.041 55.1201C175.068 52.9139 177.743 51.8108 181.064 51.8108C183.231 51.8108 184.996 52.6228 186.36 54.2468V46.8358C186.36 43.6589 186.22 41.7793 185.941 41.1972C185.662 40.615 184.735 40.3416 183.16 40.3772C182.251 40.3772 181.797 40.2546 181.798 40.0095C181.799 39.7644 182.011 39.6418 182.432 39.6418C185.557 39.6547 188.664 39.172 191.641 38.2114C191.933 38.0996 192.239 38.0285 192.551 38C192.94 38 193.133 38.4235 193.132 39.2704V72.2403C193.132 72.8414 193.219 73.2459 193.394 73.4573C193.637 73.776 194.249 73.9176 195.23 73.882C195.738 73.8526 196 73.9924 196 74.3104ZM186.349 69.5469V58.0047C186.349 56.4114 186.085 55.2292 185.557 54.4583C185.258 53.9882 184.843 53.6045 184.353 53.3448C183.863 53.085 183.315 52.9581 182.761 52.9764C179.385 52.9764 177.697 56.7349 177.697 64.252C177.697 67.6054 178.128 70.1995 178.988 72.0343C179.849 73.8692 181.054 74.7884 182.603 74.7921C183.517 74.7921 184.367 74.3778 185.152 73.5493C185.938 72.7207 186.338 71.3866 186.352 69.5469H186.349Z" fill="#1A1E30"/>
<path d="M211 74.6349C211 74.8814 210.85 75 210.549 75H197.854C197.451 75 197.252 74.8886 197.252 74.6623C197.252 74.4962 197.637 74.3976 198.41 74.3684C199.55 74.3356 200.224 74.2023 200.425 73.9741C200.626 73.746 200.726 73.0487 200.726 71.8859V56.728C200.726 55.3894 200.617 54.588 200.399 54.324C200.18 54.0599 199.518 53.9273 198.41 53.926C197.997 53.9437 197.584 53.926 197.175 53.8731C197.058 53.8403 197 53.7161 197 53.508C197 53.2634 197.252 53.143 197.756 53.143C201.447 53.1089 204.603 52.5132 207.224 51.3559C207.29 51.777 207.374 52.933 207.476 54.8241V71.3803C207.476 72.8175 207.601 73.6583 207.853 73.9029C208.105 74.1475 208.97 74.2692 210.447 74.268C210.816 74.2698 211 74.3903 211 74.6349ZM207.476 41.3127C207.482 41.7802 207.399 42.2444 207.231 42.6777C207.063 43.111 206.813 43.5047 206.496 43.8354C206.193 44.1731 205.826 44.4411 205.418 44.6221C205.01 44.8032 204.571 44.8933 204.128 44.8868C203.68 44.8984 203.235 44.816 202.819 44.6445C202.403 44.473 202.024 44.2158 201.705 43.8883C201.383 43.5613 201.13 43.168 200.961 42.7334C200.793 42.2989 200.712 41.8325 200.726 41.3638C200.713 40.9112 200.794 40.4609 200.963 40.0439C201.132 39.6268 201.385 39.2527 201.705 38.947C202.358 38.3154 203.199 38.0003 204.229 38.0015C204.657 37.9882 205.082 38.0651 205.48 38.2275C205.879 38.39 206.241 38.6347 206.547 38.947C206.851 39.2523 207.09 39.6204 207.25 40.0277C207.41 40.435 207.487 40.8727 207.476 41.3127Z" fill="#1A1E30"/>
<path d="M238 74.3104C238 74.5555 237.651 74.6781 236.952 74.6781H234.585C232.874 74.6438 231.075 75.0507 229.188 75.8989C229.07 75.9428 228.948 75.9766 228.824 76C228.509 76 228.335 75.6838 228.3 75.0476C228.285 74.6027 228.233 74.1598 228.144 73.7239C226.746 75.2425 224.893 76.0012 222.586 76C219.513 76 216.979 74.8534 214.987 72.5602C212.994 70.2669 211.999 67.3554 212 63.8254C212 60.2257 213.013 57.3227 215.04 55.1165C217.066 52.9102 219.74 51.8071 223.06 51.8071C225.226 51.8071 226.99 52.6192 228.353 54.2432V46.8358C228.353 43.6589 228.213 41.7793 227.934 41.1972C227.655 40.615 226.729 40.3416 225.155 40.3772C224.246 40.3772 223.792 40.2546 223.793 40.0095C223.794 39.7644 224.006 39.6418 224.427 39.6418C227.55 39.6547 230.656 39.172 233.631 38.2114C233.921 38.1007 234.223 38.0296 234.531 38C234.92 38 235.113 38.4229 235.113 39.2704V72.2403C235.113 72.8414 235.2 73.2459 235.375 73.4573C235.618 73.776 236.23 73.9176 237.21 73.882C237.743 73.8526 238 73.9924 238 74.3104ZM228.353 69.5469V58.0047C228.353 56.4114 228.089 55.2292 227.561 54.4583C227.262 53.9882 226.847 53.6045 226.358 53.3448C225.868 53.085 225.32 52.9581 224.767 52.9764C221.392 52.9764 219.705 56.7349 219.705 64.252C219.705 67.6054 220.135 70.1995 220.996 72.0343C221.856 73.8692 223.06 74.7884 224.609 74.7921C225.522 74.7921 226.372 74.3778 227.157 73.5493C227.942 72.7207 228.344 71.3866 228.362 69.5469H228.353Z" fill="#1A1E30"/>
<path d="M113.657 87.8627C113.662 87.727 113.64 87.592 113.594 87.4674C113.549 87.3428 113.48 87.2318 113.392 87.1426C113.112 86.9013 112.794 86.7271 112.456 86.63C111.834 86.437 111.247 86.113 110.723 85.674C110.53 85.4978 110.375 85.2698 110.271 85.009C110.168 84.7483 110.119 84.4622 110.129 84.1748C110.125 83.8705 110.184 83.5695 110.3 83.2976C110.417 83.0256 110.587 82.7906 110.798 82.6126C111.292 82.1896 111.892 81.9746 112.503 82.0024C113.237 82.0024 113.827 82.2194 114.274 82.6533C114.491 82.8565 114.663 83.1177 114.776 83.415C114.889 83.7123 114.939 84.0371 114.923 84.362V84.3945H113.635C113.644 84.2287 113.621 84.0626 113.57 83.908C113.518 83.7533 113.438 83.6139 113.335 83.4995C113.097 83.277 112.797 83.1661 112.493 83.1883C112.219 83.168 111.949 83.2665 111.734 83.4649C111.647 83.5525 111.578 83.6617 111.531 83.7844C111.485 83.9072 111.462 84.0405 111.465 84.1748C111.464 84.3028 111.49 84.429 111.541 84.5422C111.592 84.6555 111.666 84.7522 111.756 84.8237C112.068 85.0573 112.407 85.2381 112.761 85.3607C113.368 85.5322 113.936 85.8555 114.427 86.3086C114.614 86.4986 114.763 86.7356 114.862 87.0021C114.961 87.2687 115.008 87.5579 114.999 87.8484C115.008 88.1549 114.952 88.4591 114.836 88.7339C114.72 89.0088 114.548 89.2455 114.335 89.4229C113.894 89.8066 113.309 89.9985 112.579 89.9985C111.928 90.0204 111.286 89.802 110.746 89.374C110.234 88.9591 109.986 88.338 110.001 87.5108L110.011 87.4803H111.297C111.283 87.6698 111.307 87.8604 111.368 88.037C111.428 88.2136 111.522 88.3712 111.644 88.4973C111.914 88.7294 112.245 88.8444 112.579 88.8228C112.868 88.8453 113.154 88.7536 113.392 88.5624C113.48 88.478 113.549 88.3708 113.595 88.2494C113.641 88.1279 113.663 87.9955 113.657 87.8627Z" fill="#B77E30"/>
<path d="M119.332 87.1002V90H118V82H120.54C121.305 82 121.906 82.2345 122.343 82.7035C122.55 82.942 122.716 83.2289 122.829 83.5466C122.942 83.8644 123 84.2065 123 84.5522C123 84.8979 122.942 85.24 122.829 85.5578C122.716 85.8756 122.55 86.1624 122.343 86.4009C121.905 86.8657 121.304 87.0988 120.54 87.1002H119.332ZM119.332 85.8629H120.549C120.703 85.8762 120.857 85.8508 121.003 85.788C121.148 85.7253 121.281 85.6267 121.393 85.4986C121.587 85.2457 121.69 84.9108 121.68 84.5669C121.692 84.2168 121.589 83.8751 121.395 83.6142C121.285 83.482 121.152 83.3799 121.006 83.3149C120.86 83.2499 120.704 83.2235 120.549 83.2374H119.332V85.8629Z" fill="#B77E30"/>
<path d="M129.557 86.4847H127.255V88.7689H130V90H126V82H129.984V83.2374H127.255V85.2473H129.563L129.557 86.4847Z" fill="#B77E30"/>
<path d="M138.454 86.4847H135.564V88.7689H139V90H134V82H138.988V83.2374H135.562V85.2473H138.451L138.454 86.4847Z" fill="#B77E30"/>
<path d="M146.991 87.3126V87.3452C147.004 88.175 146.794 88.8245 146.363 89.2936C145.932 89.7628 145.339 89.9974 144.583 89.9974C144.237 90.015 143.891 89.944 143.569 89.789C143.247 89.6341 142.956 89.3988 142.714 89.0984C142.475 88.7868 142.288 88.4209 142.166 88.0219C142.044 87.623 141.988 87.1987 142.002 86.7736V85.2319C141.975 84.3776 142.224 83.544 142.696 82.9072C142.928 82.6075 143.21 82.3716 143.524 82.2155C143.838 82.0593 144.177 81.9865 144.516 82.0021C145.302 82.0021 145.915 82.2332 146.355 82.6956C146.795 83.158 147.01 83.8095 147 84.6502L146.991 84.6828H145.749C145.749 84.1838 145.649 83.8122 145.451 83.5682C145.252 83.3241 144.944 83.2027 144.528 83.2041C144.35 83.1964 144.174 83.2442 144.015 83.3429C143.857 83.4416 143.723 83.5878 143.625 83.7675C143.395 84.1998 143.281 84.708 143.3 85.2217V86.7736C143.28 87.2921 143.398 87.8047 143.637 88.236C143.744 88.4188 143.888 88.5663 144.054 88.6651C144.221 88.7639 144.405 88.8107 144.59 88.8014C144.747 88.8167 144.905 88.7923 145.054 88.7296C145.203 88.6669 145.339 88.5673 145.454 88.4374C145.644 88.1933 145.738 87.8184 145.738 87.3126H146.991Z" fill="#B77E30"/>
<path d="M155.992 90H154.514V86.6773H151.486V90H150V82H151.486V85.4399H154.514V82H156L155.992 90Z" fill="#B77E30"/>
<path d="M167.997 83.2374H166.136V90H164.83V83.2374H163V82H168L167.997 83.2374Z" fill="#B77E30"/>
<path d="M177 90H175.512V86.6773H172.488V90H171V82H172.488V85.4399H175.512V82H177V90Z" fill="#B77E30"/>
<path d="M184.564 86.4847H182.252V88.7689H185V90H181V82H184.992V83.2374H182.252V85.2473H184.564V86.4847Z" fill="#B77E30"/>
<path d="M189.31 86.8029V90H188V82H190.257C191.001 82 191.583 82.2094 192.002 82.6281C192.211 82.8374 192.377 83.1039 192.487 83.4061C192.596 83.7083 192.646 84.0377 192.633 84.368C192.64 84.7485 192.547 85.1217 192.366 85.4316C192.163 85.7523 191.894 86.0015 191.587 86.1539C191.926 86.2516 192.222 86.5001 192.419 86.8511C192.596 87.2156 192.684 87.6351 192.672 88.0591V88.6475C192.674 88.8841 192.699 89.1197 192.747 89.3489C192.78 89.5583 192.869 89.7483 193 89.889V90H191.65C191.517 89.8485 191.434 89.6406 191.42 89.418C191.386 89.1582 191.369 88.8958 191.369 88.6328V88.0654C191.377 87.8965 191.358 87.7272 191.312 87.5676C191.266 87.4079 191.195 87.2611 191.102 87.1358C191.001 87.02 190.882 86.9307 190.752 86.8734C190.622 86.8162 190.483 86.7922 190.345 86.8029H189.31ZM189.31 85.5656H190.238C190.53 85.5938 190.821 85.4928 191.058 85.2808C191.15 85.1741 191.222 85.0437 191.269 84.899C191.316 84.7542 191.336 84.5987 191.328 84.4433C191.334 84.2827 191.313 84.1222 191.267 83.9719C191.22 83.8216 191.148 83.6848 191.056 83.5703C190.947 83.4544 190.821 83.3661 190.685 83.3104C190.548 83.2547 190.404 83.2327 190.26 83.2457H189.31V85.5656Z" fill="#B77E30"/>
<path d="M200.105 88.2748H197.89L197.43 90H196L198.303 82H199.706L202 90H200.57L200.105 88.2748ZM198.228 87.0186H199.772L199.016 84.2005H198.989L198.228 87.0186Z" fill="#B77E30"/>
<path d="M206.598 87.1002V90H205V82H208.05C208.966 82 209.687 82.2345 210.211 82.7035C210.46 82.942 210.659 83.2289 210.794 83.5466C210.93 83.8644 211 84.2065 211 84.5522C211 84.8979 210.93 85.24 210.794 85.5578C210.659 85.8756 210.46 86.1624 210.211 86.4009C209.685 86.8657 208.965 87.0988 208.05 87.1002H206.598ZM206.598 85.8629H208.058C208.243 85.8761 208.428 85.8505 208.602 85.7878C208.777 85.7251 208.936 85.6265 209.07 85.4986C209.303 85.2457 209.426 84.9108 209.414 84.5669C209.428 84.2168 209.305 83.8751 209.072 83.6142C208.94 83.4822 208.781 83.3802 208.606 83.3152C208.431 83.2502 208.244 83.2236 208.058 83.2374H206.598V85.8629Z" fill="#B77E30"/>
<path d="M215.987 85.687H216.013L217.502 82H219L216.664 87.1882V90H215.298V87.1044L213 82H214.498L215.987 85.687Z" fill="#B77E30"/>
<path d="M51.6697 4.86015C53.482 6.68923 54.4508 9.09585 55.1771 11.49C55.5801 12.8187 55.9374 14.1621 56.2783 15.5067C56.4634 16.2363 56.6367 16.9681 56.7832 17.7057C56.9179 18.3865 57.0959 19.0979 57.0479 19.7923C56.9999 20.4867 56.5793 20.8737 55.9678 21.1539C55.4032 21.4115 54.8128 21.5874 54.3219 21.9754C54.0536 22.1865 54.4391 22.5541 54.7026 22.343C55.5847 21.6464 56.9495 21.6509 57.431 20.5015C57.6934 19.8763 57.5844 19.1773 57.4778 18.5328C57.349 17.7488 57.185 16.9715 57.0011 16.1988C56.659 14.759 56.2712 13.3259 55.8589 11.903C55.5038 10.6253 55.0544 9.37392 54.514 8.15862C53.906 6.80723 53.1012 5.54662 52.0493 4.48571C51.815 4.24289 51.4295 4.61166 51.6697 4.85448V4.86015Z" fill="black"/>
<path d="M54.0897 22.2068C53.61 25.6125 55.3289 28.773 57.355 31.3749C58.4021 32.7205 59.549 33.986 60.6037 35.3255C61.1227 35.9788 61.6056 36.6599 62.0502 37.3659C62.2787 37.7322 62.4936 38.1061 62.6903 38.4906C62.7972 38.6675 62.8744 38.8608 62.9188 39.0627C62.9506 39.2867 62.8371 39.4199 62.6782 39.5577C62.021 40.104 61.3073 40.5784 60.5492 40.9729C59.8365 41.365 59.0679 41.7615 58.2795 41.978C57.9482 42.0688 57.1281 42.2111 56.9661 41.7691C56.8663 41.4967 57.1402 41.2802 57.3626 41.1864C57.6955 41.0471 58.045 41.1152 58.3824 41.2C59.1163 41.3846 59.888 41.6223 60.578 41.1682C61.1545 40.7883 61.3678 40.0511 60.8882 39.4956C60.4433 38.9795 59.6126 38.7963 58.9771 38.654C58.2039 38.483 57.3671 38.4739 56.6968 38.9568C56.1354 39.3624 55.7889 39.9936 55.2336 40.4008C54.9868 40.5761 54.6908 40.6689 54.3881 40.6659C54.0854 40.6629 53.7913 40.5643 53.548 40.3841C53.3089 40.2112 53.1359 39.9618 53.0578 39.6772C52.9797 39.3926 53.001 39.0898 53.1183 38.819C53.2306 38.5282 53.4325 38.2806 53.6948 38.1121C54.0398 37.8987 54.4513 37.8987 54.8463 37.8957C55.6028 37.8957 56.4063 37.8079 56.8814 37.1389C57.3096 36.5334 57.0327 35.7963 56.4169 35.4512C55.7133 35.0546 54.7767 35.0183 53.9959 35.1227C53.1379 35.2362 52.3617 35.486 51.5598 35.0258C50.1056 34.1918 49.7667 32.3406 49.4868 30.8315C49.3597 30.1534 49.2447 29.3602 49.5397 28.7124C49.8651 27.9919 50.6897 27.7528 51.2238 27.2245C51.758 26.6962 51.9895 25.9334 52.1181 25.2008C52.2331 24.5363 52.4011 23.7401 52.053 23.1165C51.705 22.4928 50.9182 22.3385 50.2827 22.623C49.5836 22.9363 49.2507 23.6826 49.0949 24.3955C48.9148 25.2083 48.7922 26.1771 48.992 26.999C49.1433 27.665 49.7758 28.2099 50.437 27.7422C51.5416 26.949 51.6596 25.2734 51.1936 24.1094C50.0451 21.2592 45.8976 20.9792 43.7308 22.7759C43.1919 23.2022 42.8288 23.8122 42.711 24.4893C42.6807 24.6967 42.7972 24.9434 43.0454 24.9298C45.1955 24.8072 47.0582 26.1543 48.4215 27.6952C49.1705 28.5414 49.8499 29.495 50.2025 30.5787C50.5898 31.7685 50.6973 33.0475 50.8773 34.2796C51.068 35.5919 51.2647 36.9043 51.4493 38.2151C51.6516 39.5052 51.7599 40.8084 51.7731 42.1142C51.7595 44.6178 51.0317 47.0305 50.0905 49.3298C49.8772 49.849 49.5201 50.4272 49.5791 51.0084C49.6381 51.5896 50.1435 51.9908 50.5369 52.3707C51.3927 53.1921 52.3065 53.9508 53.2711 54.6412C54.1094 55.2466 55.1761 55.9656 56.146 55.2012C56.9026 54.6109 57.1038 53.5574 56.9253 52.6568C56.5531 50.7829 54.6057 49.469 52.7975 49.2723C51.8896 49.1739 50.8304 49.525 50.7124 50.5634C50.6861 50.7511 50.706 50.9424 50.7703 51.1207C50.8347 51.299 50.9415 51.459 51.0816 51.5866C51.5144 51.9469 52.0878 51.7849 52.5947 51.738C53.7432 51.6411 54.937 51.6789 56.0083 51.19C56.8663 50.7995 57.6319 50.0518 57.759 49.0815C57.8725 48.2006 57.2642 47.3 56.4335 47.0154C56.081 46.8943 55.506 46.8792 55.2155 47.1668C54.9249 47.4544 55.0082 48.0386 55.2064 48.3595C55.31 48.5402 55.4618 48.6884 55.6449 48.7876C55.828 48.8867 56.035 48.933 56.2429 48.9211C56.3791 48.909 56.5561 48.8242 56.5773 48.6668L57.405 42.753C57.426 42.664 57.4125 42.5704 57.3673 42.4909C57.3221 42.4114 57.2485 42.352 57.1613 42.3246C57.0727 42.3009 56.9782 42.3129 56.8984 42.3582C56.8185 42.4036 56.7597 42.4785 56.7346 42.5668L55.907 48.4821L56.2429 48.2263C56.1765 48.237 56.1084 48.2312 56.0448 48.2093C55.9812 48.1873 55.924 48.1501 55.8782 48.1007C55.7511 47.972 55.7602 47.8525 55.7269 47.6935C55.7269 47.6723 55.7783 47.583 55.7178 47.6572C55.6573 47.7314 55.7511 47.6572 55.792 47.6572C55.8632 47.6433 55.9357 47.6362 56.0083 47.636C56.1706 47.651 56.3266 47.7061 56.4623 47.7964C57.1553 48.2339 57.2385 49.0755 56.7906 49.7203C56.2883 50.4438 55.4001 50.7632 54.5648 50.8919C54.0246 50.9751 53.4739 50.9872 52.9291 51.0235C52.6764 51.0402 52.4237 51.0629 52.1726 51.0932C51.9895 51.1144 51.7111 51.187 51.5492 51.0674C51.3358 50.9161 51.3857 50.5392 51.5053 50.3424C51.702 50.0155 52.1514 49.9473 52.5009 49.9504C53.3346 49.9594 54.1654 50.3091 54.8402 50.7889C55.4742 51.243 56.0144 51.8909 56.2187 52.6522C56.4063 53.3485 56.3064 54.3551 55.6028 54.7426C55.1761 54.9772 54.7192 54.7638 54.3424 54.5307C53.9187 54.2703 53.5147 53.9691 53.1183 53.6694C52.2874 53.0382 51.4999 52.352 50.7608 51.6154C50.5944 51.4534 50.378 51.2793 50.2948 51.0553C50.2025 50.8041 50.3311 50.5225 50.4279 50.2909C50.6337 49.7975 50.844 49.3056 51.0332 48.8061C51.4203 47.8154 51.7428 46.8006 51.9986 45.7682C52.5176 43.6112 52.5357 41.4512 52.2739 39.2595C52.0046 37.0026 51.6399 34.7549 51.3086 32.5056C51.1573 31.4688 50.9636 30.441 50.5021 29.4904C50.06 28.6305 49.4997 27.8367 48.8376 27.1322C47.6635 25.8229 46.1337 24.6543 44.3709 24.3213C43.9299 24.2367 43.4802 24.2062 43.0318 24.2305L43.3677 24.671C43.5795 23.2542 45.1199 22.5519 46.3939 22.3899C47.7225 22.2158 49.2916 22.5413 50.1435 23.6568C50.8622 24.5998 51.0513 26.1937 50.1359 27.0822C49.9014 27.3093 49.7803 27.2169 49.682 26.9308C49.5533 26.5418 49.5881 26.0741 49.6093 25.6715C49.6456 24.9646 49.7364 24.0065 50.2585 23.4752C50.362 23.3617 50.4927 23.2763 50.6383 23.227C50.7838 23.1778 50.9395 23.1663 51.0907 23.1937C51.3933 23.2693 51.5174 23.5675 51.5446 23.8581C51.6036 24.5105 51.4372 25.2764 51.2269 25.891C51.1218 26.2243 50.9375 26.5271 50.6897 26.7734C50.4037 27.0444 50.0436 27.2275 49.7274 27.4591C49.4453 27.6576 49.2076 27.9128 49.0297 28.2083C48.8517 28.5039 48.7374 28.8333 48.6939 29.1756C48.5971 29.8825 48.7166 30.5939 48.8558 31.2856C48.9895 32.0774 49.2039 32.8534 49.4958 33.6015C50.0648 34.938 51.2783 36.1399 52.8323 36.0233C53.2318 35.9915 53.6191 35.8901 54.014 35.8326C54.501 35.7611 54.9967 35.7754 55.4787 35.875C55.7496 35.931 56.0628 36.0112 56.2595 36.2201C56.4956 36.4714 56.3594 36.765 56.1173 36.9512C55.4954 37.4295 54.5724 37.1283 53.8552 37.3129C53.5535 37.3963 53.2744 37.5465 53.0386 37.7525C52.8029 37.9584 52.6165 38.2148 52.4934 38.5027C52.3697 38.7859 52.3123 39.0936 52.3253 39.4024C52.3383 39.7112 52.4215 40.0129 52.5685 40.2847C52.7155 40.5565 52.9225 40.7913 53.1738 40.9711C53.425 41.1509 53.7139 41.2711 54.0186 41.3226C54.3229 41.3805 54.6364 41.3698 54.9361 41.2913C55.2358 41.2127 55.5142 41.0683 55.7511 40.8685C56.2504 40.4644 56.5803 39.868 57.1129 39.5062C57.7772 39.0521 58.6079 39.2489 59.3206 39.4593C59.6746 39.5637 60.8927 39.9134 60.3298 40.478C59.7912 41.0199 58.9408 40.59 58.3234 40.4689C57.7061 40.3478 56.9919 40.4189 56.5379 40.923C56.4432 41.0251 56.3698 41.1451 56.3219 41.276C56.274 41.4068 56.2526 41.5458 56.259 41.685C56.2653 41.8242 56.2993 41.9607 56.3588 42.0866C56.4184 42.2125 56.5024 42.3253 56.606 42.4185C57.0312 42.7878 57.6652 42.7878 58.1933 42.6985C58.9272 42.5713 59.6565 42.1944 60.3117 41.8675C61.0366 41.5084 61.7323 41.0929 62.3922 40.6248C62.9808 40.207 63.7419 39.7514 63.5936 38.9144C63.524 38.5254 63.3077 38.1576 63.1215 37.82C62.9354 37.4825 62.7266 37.1283 62.5163 36.7938C61.6432 35.4315 60.6022 34.1979 59.5642 32.9658C57.5184 30.5439 55.3653 27.9435 54.8039 24.7194C54.6677 23.9469 54.6524 23.158 54.7585 22.3808C54.7798 22.292 54.7665 22.1984 54.7212 22.1191C54.676 22.0398 54.6022 21.9807 54.5149 21.954C54.4262 21.9302 54.3318 21.9423 54.2519 21.9876C54.1721 22.0329 54.1133 22.1078 54.0882 22.1962L54.0897 22.2068Z" fill="black"/>
<path d="M55.6209 54.9543C54.4104 55.0815 53.6614 56.1653 53.4829 57.296C53.3739 57.9862 53.4254 58.6794 53.4466 59.3727C53.4737 60.0263 53.4346 60.681 53.3301 61.3268C52.9079 63.788 51.4538 66.0403 49.1145 67.0514C48.0147 67.5346 46.7935 67.6698 45.6146 67.4389C44.3618 67.1846 43.2179 66.5897 42.0754 66.0388C40.8737 65.4395 39.6034 64.9892 38.2926 64.6977C36.949 64.4146 35.5872 64.2284 34.2692 63.8364C31.5168 63.0126 29.009 61.5244 26.9669 59.5028L26.8958 60.0493C28.5179 59.2001 30.4108 60.0826 31.7998 60.9968C32.6153 61.5439 33.3946 62.1431 34.1331 62.7905C34.5234 63.1265 34.9053 63.4731 35.2785 63.8304C35.5978 64.1331 35.9322 64.4676 36.1047 64.8899C36.2348 65.2048 36.256 65.6119 36.0593 65.9025C35.8232 66.2446 35.3526 66.2401 34.9789 66.2537C34.0503 66.2738 33.1405 66.5195 32.3279 66.9697C31.5078 67.4343 30.842 68.1185 30.2231 68.8178C29.5241 69.6095 28.8341 70.4117 28.1411 71.2094C27.3845 72.0767 26.6643 73 25.8426 73.8038C25.1557 74.4758 24.098 75.101 23.1463 74.5712C22.7544 74.3547 22.4033 74.9541 22.7952 75.1766C23.6683 75.661 24.7275 75.4794 25.537 74.9496C26.4358 74.3638 27.1016 73.4632 27.7976 72.664L30.1868 69.9182C30.8783 69.1236 31.5653 68.2759 32.4565 67.7038C32.8993 67.4219 33.3855 67.2148 33.8955 67.0907C34.3903 66.9697 34.8805 66.9818 35.3814 66.9303C35.8353 66.8849 36.2681 66.7502 36.5601 66.3854C36.8122 66.0562 36.9291 65.6431 36.8869 65.2305C36.7946 64.2073 35.9291 63.4852 35.2225 62.8404C34.4079 62.1001 33.5527 61.4058 32.6608 60.7607C30.9494 59.524 28.6056 58.3782 26.5432 59.4574C26.4977 59.4847 26.459 59.5218 26.43 59.5662C26.4009 59.6105 26.3822 59.6609 26.3754 59.7134C26.3686 59.766 26.3737 59.8194 26.3904 59.8697C26.4072 59.92 26.4351 59.9659 26.4721 60.0039C28.3012 61.8101 30.4897 63.2113 32.8953 64.1164C34.1739 64.5709 35.4905 64.9103 36.8294 65.1306C38.2215 65.3864 39.5879 65.6755 40.8861 66.2552C42.0649 66.782 43.1952 67.4192 44.4193 67.84C45.594 68.262 46.8614 68.3562 48.0856 68.1125C50.555 67.5948 52.5054 65.7436 53.4481 63.4459C53.983 62.0837 54.2168 60.6219 54.1335 59.1608C54.1033 58.3933 54.0352 57.579 54.3136 56.8464C54.5269 56.2894 54.9915 55.7248 55.6209 55.6582C56.0613 55.6113 56.0658 54.9165 55.6209 54.9634V54.9543Z" fill="black"/>
<path d="M34.121 26.3753C29.4999 29.1074 24.4718 32.2165 22.5092 37.4991C21.9342 39.0445 21.6362 40.6777 21.3789 42.2989C21.1172 43.9503 20.925 45.6289 21.0763 47.3045C21.2276 48.8802 21.7345 50.3439 22.2959 51.8121C22.8391 53.2365 23.405 54.6881 23.5064 56.2244C23.7409 59.7739 21.8208 63.0282 20.067 65.9632C19.8749 66.2856 20.2456 66.5687 20.5422 66.4385C22.0553 65.7589 23.5957 64.4904 23.5018 62.665C23.408 60.8395 21.6468 59.9495 20.0383 59.8057C19.0411 59.7164 18.0274 59.8193 17.0302 59.8662C16.5642 59.8889 16.0739 59.8738 15.6154 59.9737C15.189 60.0768 14.8105 60.3225 14.5426 60.67C13.6242 61.8264 14.0751 63.4914 15.0359 64.4692C16.4295 65.8906 18.6674 65.7346 20.4529 65.4032C20.526 65.3829 20.5905 65.3393 20.6364 65.2788C20.6824 65.2184 20.7072 65.1446 20.7071 65.0686C20.6103 63.6398 18.7809 63.2523 17.699 62.8451L15.2054 61.9157C14.8755 61.7931 14.5411 61.6872 14.4231 61.3224C14.3051 60.9576 14.3444 60.5534 14.3732 60.1962C14.6395 56.9797 17.4297 54.7289 19.6403 52.7188L23.5593 49.1542L25.5264 47.3711C26.0802 46.867 26.6461 46.2449 27.3679 45.9846C28.8946 45.4336 30.32 46.6703 31.4276 47.5482C32.6278 48.5217 33.9854 49.2829 35.4419 49.799C35.7445 49.9034 36.0971 49.9382 36.2999 49.634C36.4693 49.3797 36.4043 49.0452 36.2862 48.7848C35.995 48.1937 35.6338 47.6398 35.2104 47.135C34.3845 46.1067 33.3734 45.2422 32.2295 44.586C31.0901 43.9252 29.8349 43.4885 28.5315 43.2994C27.1697 43.1071 25.5249 43.1283 24.5641 44.2833C24.3474 44.5317 24.1894 44.8257 24.1019 45.1436C24.0144 45.4614 23.9996 45.7949 24.0587 46.1193C24.1933 46.8171 24.6639 47.3817 24.956 48.0098C25.6096 49.3858 25.3388 50.9963 25.0513 52.4282C24.9257 53.0518 24.7169 53.6966 24.8591 54.3354C24.9787 54.8742 25.4492 55.292 26.0212 55.1179C26.6264 54.9363 26.805 54.2097 26.8549 53.6679C26.9184 52.9186 26.87 52.1641 26.7112 51.4292C26.5548 50.6954 26.2928 49.9883 25.9334 49.3297C25.6308 48.7863 25.2359 48.0749 24.5898 47.9024C23.9845 47.7389 23.4746 48.193 23.4353 48.7863C23.3944 49.4039 23.7924 49.8898 24.3431 50.1047C25.0044 50.3621 25.7791 50.3061 26.4751 50.3863C27.24 50.4755 27.9983 50.6151 28.7448 50.804C30.2408 51.1773 31.6829 51.7404 33.036 52.4796C33.6805 52.833 34.3035 53.2242 34.9017 53.6512C35.1408 53.8223 35.5145 53.5362 35.4116 53.2592C34.7807 51.5669 33.5202 50.2576 32.1251 49.1557C30.7951 48.1067 29.1776 46.7732 27.3649 47.0532C26.9347 47.1063 26.5258 47.2706 26.1785 47.5299C25.8311 47.7892 25.5574 48.1346 25.3842 48.5321C25.2117 48.9438 25.8835 49.1239 26.053 48.7167C26.3722 47.9493 27.321 47.6481 28.0881 47.7132C29.1201 47.8025 30.031 48.47 30.8435 49.0528C32.4263 50.2016 34.0392 51.5578 34.7413 53.4423L35.2528 53.0503C32.9604 51.4174 30.3303 50.3212 27.557 49.8429C26.8716 49.7277 26.1807 49.6478 25.4871 49.6037C25.024 49.5719 24.21 49.5462 24.1253 48.9483C24.1071 48.8197 24.1252 48.6289 24.2614 48.5744C24.5398 48.4639 24.844 48.909 24.9696 49.0936C25.3588 49.6638 25.6597 50.2894 25.8623 50.9494C26.0691 51.606 26.1787 52.2893 26.1876 52.9776C26.2012 53.2816 26.1814 53.5862 26.1286 53.8858C26.0923 54.0508 25.9985 54.4428 25.7746 54.458C25.3978 54.4837 25.5082 53.6421 25.5476 53.4469C25.6883 52.7506 25.8426 52.0573 25.941 51.3535C26.1286 50.0003 26.0923 48.6289 25.4311 47.4059C25.1375 46.867 24.6987 46.3115 24.7108 45.6667C24.7199 45.0764 25.1451 44.5587 25.6353 44.2711C26.7369 43.6233 28.2773 43.8761 29.4515 44.1818C30.6249 44.4909 31.7324 45.011 32.7198 45.7167C33.7085 46.4193 34.5564 47.3014 35.2195 48.3171C35.3852 48.5542 35.5314 48.8042 35.6568 49.0649C35.6681 49.1018 35.6812 49.1382 35.6961 49.1738L35.7067 49.2177C35.7067 49.2889 35.7415 49.2768 35.8126 49.1784C35.6284 49.1012 35.44 49.0345 35.2482 48.9786C34.6015 48.7286 33.9769 48.4248 33.381 48.0704C32.7701 47.6969 32.1857 47.2817 31.6319 46.8277C31.0781 46.3857 30.5182 45.9331 29.8797 45.6168C29.2823 45.2996 28.6128 45.1431 27.9368 45.1627C27.2683 45.2226 26.6344 45.4869 26.1211 45.9195C25.5294 46.3812 24.9923 46.914 24.4385 47.4165L22.6484 49.0452L19.0654 52.3041C16.9772 54.2037 14.638 56.1805 13.8814 59.0247C13.6941 59.6891 13.6255 60.3813 13.6786 61.0696C13.7437 61.7477 14.063 62.1988 14.6939 62.4591C16.1042 63.0404 17.5901 63.4551 18.9852 64.0712C19.4028 64.2558 19.9793 64.5495 20.0141 65.0686L20.2698 64.7326C18.8762 64.9899 17.2436 65.1504 15.9892 64.3557C15.0979 63.7911 14.4231 62.5091 14.8634 61.4692C14.9812 61.185 15.1849 60.9447 15.446 60.782C15.797 60.5716 16.2404 60.5988 16.6353 60.5807C17.4841 60.5398 18.3345 60.4793 19.1849 60.4717C20.4862 60.4611 22.2792 60.7547 22.7271 62.2154C23.2567 63.9455 21.5529 65.2245 20.1942 65.8376L20.6693 66.3144C22.2429 63.6806 23.8605 60.891 24.1737 57.7789C24.325 56.2653 24.0708 54.7758 23.5911 53.3364C23.1115 51.8969 22.4714 50.5149 22.078 49.0467C21.6558 47.4468 21.6498 45.7924 21.8192 44.1561C21.9837 42.5129 22.2705 40.8842 22.6772 39.2837C23.0332 37.8553 23.615 36.493 24.4006 35.2483C25.1249 34.1456 25.9811 33.1356 26.9503 32.2407C29.1851 30.1322 31.8407 28.5353 34.4705 26.9792C34.8563 26.7522 34.5068 26.1513 34.121 26.3738V26.3753Z" fill="black"/>
<path d="M31.7484 51.3913C31.9845 52.0179 32.2932 52.8111 32.0344 53.4771C31.7757 54.1431 30.889 54.4685 30.2565 54.6426C29.5105 54.832 28.74 54.906 27.9717 54.8621C27.5846 54.8538 27.1982 54.825 26.8141 54.7758C26.5312 54.7364 26.224 54.6744 26.1014 54.3883L25.7988 54.9105C27.0093 54.8212 28.297 54.4564 29.0536 53.4453C29.7269 52.5447 29.8101 51.2066 29.0203 50.3514C28.7176 50.0214 28.2259 50.5134 28.5285 50.8434C29.1171 51.4821 28.9416 52.5341 28.4044 53.1486C27.7613 53.8858 26.74 54.1461 25.7988 54.2158C25.7382 54.2169 25.6788 54.2336 25.6265 54.2644C25.5742 54.2952 25.5307 54.339 25.5003 54.3915C25.4699 54.444 25.4535 54.5035 25.4528 54.5642C25.4521 54.6249 25.467 54.6847 25.4962 54.738C25.8306 55.5266 26.9579 55.5039 27.669 55.5432C28.6294 55.6222 29.5962 55.5357 30.5273 55.2874C31.3414 55.0467 32.2992 54.6123 32.6457 53.7829C32.9922 52.9534 32.7093 52.0074 32.4082 51.2097C32.2568 50.7934 31.5805 50.9735 31.7378 51.3943L31.7484 51.3913Z" fill="black"/>
<path d="M26.2452 55.1542C23.6169 56.7344 20.4272 57.4655 18.1742 59.6376C17.1937 60.5791 16.3796 61.7764 16.0558 63.1099C15.8932 63.7635 15.8659 64.4434 15.9756 65.1079C16.1012 65.8647 16.5022 66.5201 16.6822 67.2558C17.0227 68.6529 16.3387 70.0923 16.6943 71.494C17.0091 72.7352 18.0819 73.3436 19.2379 73.6509C20.3319 73.9415 21.5076 74.0535 22.4064 74.7937C22.8921 75.1903 23.6259 75.7307 24.2115 75.1676C24.6927 74.7044 24.4748 73.9763 24.2418 73.4496C23.0313 70.7114 20.1745 68.8375 17.1967 68.7482C16.7427 68.7346 16.7427 69.4294 17.1967 69.443C18.3966 69.4933 19.5665 69.8339 20.6061 70.4354C21.6457 71.037 22.5241 71.8817 23.166 72.8971C23.4277 73.3179 23.8514 73.943 23.803 74.4637C23.7394 75.1297 22.7529 74.161 22.5471 74.0218C21.6755 73.4042 20.58 73.2649 19.5647 73.0121C18.5494 72.7594 17.5886 72.3325 17.3435 71.22C17.2058 70.5979 17.3041 69.9349 17.3722 69.3098C17.4448 68.6544 17.5114 67.9974 17.4055 67.342C17.292 66.6382 16.9258 66.0206 16.7382 65.3395C16.5816 64.7663 16.5558 64.1652 16.6625 63.5806C16.885 62.3455 17.5704 61.2375 18.442 60.346C20.6481 58.0679 23.9407 57.3505 26.5962 55.7551C26.979 55.525 26.631 54.9241 26.2452 55.1496V55.1542Z" fill="black"/>
<path d="M22.6712 74.3201C21.8547 74.9441 20.9766 75.4827 20.0504 75.9276C19.5915 76.1516 19.119 76.3468 18.6357 76.5119C18.2861 76.6284 17.8488 76.7601 17.4872 76.6193C17.0817 76.468 17.0181 75.9806 17 75.5991C16.9803 75.1829 17.0227 74.7182 17.2814 74.3731C17.7913 73.6935 18.9126 73.8161 19.6585 73.7025C20.0988 73.6344 19.9112 72.9654 19.4739 73.032C18.7022 73.1501 17.8367 73.0835 17.1634 73.5451C16.4522 74.031 16.2449 74.9074 16.313 75.7278C16.3826 76.5724 16.7836 77.2899 17.6975 77.3625C18.5539 77.4291 19.4618 76.9644 20.2169 76.6163C21.2105 76.1547 22.1507 75.5857 23.0207 74.9195C23.3717 74.6516 23.0207 74.0477 22.6712 74.3141V74.3201Z" fill="black"/>
<path d="M16.9167 69.0526C16.6247 69.7928 17.1059 70.5224 17.6264 71.0203C18.1469 71.5183 18.6447 71.9285 18.6372 72.702C18.6372 73.365 18.3708 74.0068 18.2044 74.641C18.0228 75.3327 17.9169 76.0608 18.1484 76.7601C18.4041 77.5275 18.8823 78.1587 18.905 78.9988C18.9277 79.8388 18.6644 80.635 18.4874 81.4372C18.1242 83.0765 18.2437 84.7506 18.9988 86.2688C19.3224 86.9393 19.7906 87.5296 20.3697 87.9974C21.0052 88.4688 21.7447 88.7802 22.5259 88.9056C23.9164 89.1599 25.3312 89.0176 26.693 88.6785C29.4484 87.9913 31.9753 86.5594 34.7807 86.0493C35.4463 85.9241 36.1238 85.8733 36.8007 85.898C37.6163 85.9328 38.4061 86.2007 39.2217 86.2007C40.818 86.2098 42.1269 84.9777 43.2542 83.9923C44.5239 82.8715 45.708 81.6572 46.7964 80.3595C47.2836 79.7874 47.7799 79.2031 48.3806 78.7445C48.7907 78.4327 49.7969 77.7137 50.1616 78.419C50.4385 78.9503 50.2176 79.63 49.9694 80.1249C49.6726 80.6964 49.2658 81.2036 48.7725 81.6174C47.733 82.5256 46.4363 83.0811 45.1683 83.5851C42.6383 84.5917 39.6333 85.8662 39.137 88.8965C39.0153 89.622 39.0535 90.3654 39.2487 91.0746C39.4439 91.7839 39.7915 92.442 40.2673 93.003C40.7787 93.6191 41.3961 94.1382 41.9665 94.6968C42.4848 95.1979 42.9442 95.7565 43.3359 96.3618C44.9035 98.8215 45.2787 101.835 45.3665 104.687C45.3892 105.413 45.3907 106.138 45.3847 106.863C45.3847 107.318 46.0746 107.318 46.0792 106.863C46.1049 103.966 46.0141 100.96 45.0064 98.2069C44.5254 96.8468 43.7733 95.5985 42.7957 94.5378C41.7653 93.445 40.4156 92.5444 39.9495 91.0428C39.7351 90.3398 39.7006 89.5941 39.8491 88.8742C39.9977 88.1543 40.3246 87.4833 40.7999 86.9227C41.6987 85.8737 42.9697 85.2365 44.2211 84.7052C46.6148 83.688 49.6032 82.7889 50.7063 80.1643C50.9514 79.58 51.0861 78.911 50.8667 78.2949C50.7706 77.991 50.5629 77.7349 50.2855 77.5781C50.008 77.4214 49.6815 77.3757 49.3717 77.4503C48.653 77.6017 47.9872 78.1209 47.4607 78.6082C46.9215 79.1392 46.4133 79.7007 45.9385 80.2899C44.8214 81.5928 43.5992 82.8017 42.2843 83.9045C41.679 84.407 41.0662 84.9338 40.346 85.2531C39.5455 85.6073 38.7844 85.4696 37.9552 85.3243C35.0984 84.8233 32.3809 85.9161 29.7571 86.9151C28.4256 87.4207 27.0774 87.9217 25.6717 88.1775C24.3099 88.4257 22.7392 88.4515 21.4591 87.84C19.9959 87.1407 19.2106 85.4984 19.0154 83.9514C18.9255 83.1312 18.9814 82.3016 19.1804 81.5008C19.3619 80.7046 19.5965 79.9039 19.601 79.079C19.6066 78.6798 19.5442 78.2826 19.4164 77.9044C19.2817 77.5169 19.0744 77.1627 18.9125 76.7858C18.619 76.0986 18.7128 75.4235 18.9035 74.7273C19.0775 74.0824 19.309 73.4391 19.3362 72.7595C19.349 72.4239 19.2902 72.0894 19.1637 71.7783C19.0371 71.4672 18.8458 71.1866 18.6023 70.9553C18.162 70.5118 17.3026 69.9593 17.5931 69.2221C17.7565 68.8059 17.0847 68.6258 16.9228 69.0375L16.9167 69.0526Z" fill="black"/>
<path d="M55.7072 19.2007C54.648 18.5408 53.5676 17.8823 52.3783 17.457C51.1466 17.0262 49.8256 16.9158 48.5395 17.1361C46.0519 17.519 43.5901 18.5892 41.4581 19.9061C41.1963 20.0665 40.9391 20.2345 40.6849 20.4071C40.523 20.5161 40.0887 20.9369 39.8799 20.8612C39.6711 20.7855 39.7785 20.4343 39.8481 20.3072C40.0087 20.0628 40.2027 19.8422 40.4246 19.6518C41.1748 18.9209 42.0233 18.2984 42.9455 17.8021C44.8244 16.7908 46.9365 16.2928 49.0691 16.3581C50.2435 16.3928 51.405 16.614 52.51 17.0135C53.5797 17.4055 54.7161 18.073 55.1352 19.1931C55.2865 19.6094 55.9629 19.4293 55.8055 19.0085C54.9839 16.8091 52.2936 16.016 50.1828 15.7511C47.9141 15.4821 45.6149 15.8271 43.525 16.7501C42.4713 17.2106 41.4881 17.818 40.6047 18.5544C39.9208 19.125 38.3759 20.3708 39.3639 21.3365C39.8981 21.8526 40.523 21.3531 40.9951 21.0337C41.56 20.6493 42.1415 20.292 42.7397 19.9621C43.9267 19.3092 45.1743 18.7733 46.465 18.3621C47.9903 17.8763 49.632 17.4994 51.2283 17.8445C52.7415 18.1699 54.0609 18.9964 55.3516 19.8001C55.7329 20.0362 56.0824 19.4353 55.7026 19.1947L55.7072 19.2007Z" fill="black"/>
<path d="M1.05015 77.5455C1.04518 77.6052 1.05207 77.6653 1.0704 77.7223C1.08873 77.7793 1.11815 77.8321 1.15696 77.8776C1.19578 77.9232 1.24322 77.9607 1.29656 77.9878C1.3499 78.015 1.40809 78.0314 1.46777 78.0359C1.52732 78.0312 1.58534 78.0147 1.63851 77.9874C1.69167 77.9602 1.73894 77.9227 1.7776 77.8771C1.81626 77.8316 1.84554 77.7788 1.86378 77.7219C1.88202 77.665 1.88885 77.6051 1.88388 77.5455V75.3008H1.05015V77.5455Z" fill="#B77E30"/>
<path d="M8.55069 81.1633C8.54345 81.2244 8.54924 81.2864 8.56768 81.3452C8.58613 81.4039 8.6168 81.4581 8.65768 81.5041C8.69857 81.5501 8.74874 81.587 8.80489 81.6122C8.86104 81.6375 8.92189 81.6505 8.98345 81.6505C9.045 81.6505 9.10586 81.6375 9.16201 81.6122C9.21816 81.587 9.26833 81.5501 9.30922 81.5041C9.3501 81.4581 9.38077 81.4039 9.39921 81.3452C9.41766 81.2864 9.42345 81.2244 9.4162 81.1633V75.3115H8.55069V81.1633Z" fill="#B77E30"/>
<path d="M12.3516 77.6499C12.3413 77.7105 12.3442 77.7727 12.3604 77.832C12.3765 77.8913 12.4054 77.9464 12.445 77.9934C12.4847 78.0404 12.5341 78.0782 12.5898 78.1041C12.6455 78.1301 12.7063 78.1435 12.7677 78.1435C12.8292 78.1435 12.8899 78.1301 12.9457 78.1041C13.0014 78.0782 13.0508 78.0404 13.0905 77.9934C13.1301 77.9464 13.159 77.8913 13.1751 77.832C13.1912 77.7727 13.1942 77.7105 13.1838 77.6499V75.3174H12.3516V77.6499Z" fill="#B77E30"/>
<path d="M10.4678 79.1092C10.4575 79.1698 10.4605 79.2319 10.4766 79.2912C10.4927 79.3506 10.5216 79.4057 10.5612 79.4527C10.6009 79.4997 10.6503 79.5375 10.706 79.5634C10.7618 79.5893 10.8225 79.6027 10.884 79.6027C10.9454 79.6027 11.0061 79.5893 11.0619 79.5634C11.1176 79.5375 11.167 79.4997 11.2067 79.4527C11.2463 79.4057 11.2752 79.3506 11.2913 79.2912C11.3074 79.2319 11.3104 79.1698 11.3001 79.1092V75.3145H10.4678V79.1092Z" fill="#B77E30"/>
<path d="M6.75458 79.1636C6.75458 79.4345 6.9301 79.6555 7.14496 79.6555C7.35983 79.6555 7.53383 79.4345 7.53383 79.1636V75.3098H6.75458V79.1636Z" fill="#B77E30"/>
<path d="M2.93395 76.9175C2.92877 76.9772 2.93545 77.0373 2.95359 77.0944C2.97173 77.1514 3.00098 77.2044 3.03966 77.2501C3.07834 77.2958 3.12567 77.3334 3.17895 77.3608C3.23222 77.3881 3.29037 77.4047 3.35006 77.4094C3.40975 77.4047 3.4679 77.3881 3.52118 77.3608C3.57445 77.3334 3.62179 77.2958 3.66046 77.2501C3.69914 77.2044 3.72839 77.1514 3.74654 77.0944C3.76468 77.0373 3.77135 76.9772 3.76617 76.9175V75.304H2.93395V76.9175Z" fill="#B77E30"/>
<path d="M4.8178 77.2156C4.81262 77.2753 4.8193 77.3354 4.83744 77.3925C4.85558 77.4496 4.88483 77.5025 4.92351 77.5482C4.96219 77.5939 5.00952 77.6315 5.0628 77.6589C5.11607 77.6862 5.17422 77.7028 5.23391 77.7075C5.2936 77.7028 5.35175 77.6862 5.40503 77.6589C5.4583 77.6315 5.50564 77.5939 5.54431 77.5482C5.58299 77.5025 5.61224 77.4496 5.63039 77.3925C5.64853 77.3354 5.6552 77.2753 5.65002 77.2156V75.3069H4.8178V77.2156Z" fill="#B77E30"/>
<path d="M14.234 76.6677C14.2236 76.7283 14.2266 76.7905 14.2427 76.8498C14.2588 76.9091 14.2877 76.9642 14.3274 77.0112C14.367 77.0582 14.4164 77.096 14.4721 77.1219C14.5279 77.1478 14.5886 77.1613 14.6501 77.1613C14.7115 77.1613 14.7723 77.1478 14.828 77.1219C14.8837 77.096 14.9332 77.0582 14.9728 77.0112C15.0124 76.9642 15.0413 76.9091 15.0574 76.8498C15.0736 76.7905 15.0765 76.7283 15.0662 76.6677V75.3206H14.234V76.6677Z" fill="#B77E30"/>
<path d="M9.94278 71.0112C9.79271 71.0217 9.65293 71.0914 9.55419 71.2049C9.45545 71.3184 9.40582 71.4666 9.41621 71.6167V75.3161H10.4754V71.6121C10.4799 71.5377 10.4697 71.4631 10.4454 71.3926C10.421 71.3221 10.383 71.2571 10.3336 71.2013C10.2841 71.1455 10.2241 71.0999 10.1571 71.0673C10.09 71.0347 10.0172 71.0157 9.94278 71.0112Z" fill="#B77E30"/>
<path d="M8.04229 72.3037C7.76084 72.3037 7.53387 72.5731 7.53387 72.9092V75.3143H8.5507V72.9077C8.5507 72.5731 8.32221 72.3037 8.04229 72.3037Z" fill="#B77E30"/>
<path d="M6.20384 72.7791C6.12777 72.7824 6.05311 72.8007 5.98414 72.8329C5.91517 72.8652 5.85324 72.9107 5.80192 72.967C5.7506 73.0232 5.7109 73.0891 5.6851 73.1607C5.65929 73.2324 5.64789 73.3084 5.65155 73.3845V75.3129H6.75613V73.3785C6.76187 73.2258 6.70702 73.0771 6.60354 72.9648C6.50006 72.8525 6.35637 72.7857 6.20384 72.7791Z" fill="#B77E30"/>
<path d="M15.5928 74.4849C15.4428 74.4957 15.3033 74.5655 15.2046 74.6789C15.106 74.7924 15.0562 74.9403 15.0662 75.0903V75.3249H16.1254V75.0888C16.1301 75.0142 16.1201 74.9393 16.0958 74.8685C16.0716 74.7978 16.0337 74.7325 15.9842 74.6764C15.9348 74.6203 15.8747 74.5745 15.8076 74.5416C15.7404 74.5088 15.6674 74.4895 15.5928 74.4849Z" fill="#B77E30"/>
<path d="M13.709 73.8372C13.6347 73.8423 13.5622 73.8621 13.4956 73.8954C13.429 73.9286 13.3696 73.9747 13.3209 74.0309C13.2721 74.0872 13.2349 74.1525 13.2114 74.2231C13.1879 74.2938 13.1785 74.3684 13.1839 74.4426V75.3236H14.234V74.4411C14.244 74.2915 14.1944 74.144 14.096 74.0308C13.9976 73.9176 13.8585 73.848 13.709 73.8372Z" fill="#B77E30"/>
<path d="M16.1178 75.322V75.4628C16.1074 75.5234 16.1104 75.5855 16.1266 75.6449C16.1427 75.7042 16.1716 75.7593 16.2112 75.8063C16.2508 75.8533 16.3002 75.8911 16.356 75.917C16.4117 75.9429 16.4724 75.9564 16.5339 75.9564C16.5954 75.9564 16.6561 75.9429 16.7119 75.917C16.7676 75.8911 16.817 75.8533 16.8566 75.8063C16.8963 75.7593 16.9251 75.7042 16.9413 75.6449C16.9574 75.5855 16.9604 75.5234 16.95 75.4628V75.3235L16.1178 75.322Z" fill="#B77E30"/>
<path d="M4.29276 73.592C4.14268 73.6025 4.00291 73.6722 3.90417 73.7857C3.80542 73.8993 3.75579 74.0474 3.76619 74.1975V75.3085H4.82538V74.196C4.8303 74.1213 4.8204 74.0464 4.79625 73.9755C4.77211 73.9047 4.73419 73.8393 4.68469 73.7831C4.63518 73.727 4.57507 73.6812 4.50781 73.6484C4.44054 73.6156 4.36746 73.5965 4.29276 73.592Z" fill="#B77E30"/>
<path d="M11.8251 71.9844C11.6753 71.9952 11.5359 72.0651 11.4375 72.1786C11.339 72.292 11.2896 72.4399 11.3 72.5898V75.3144H12.3516V72.5898C12.362 72.4397 12.3124 72.2916 12.2137 72.178C12.1149 72.0645 11.9751 71.9949 11.8251 71.9844Z" fill="#B77E30"/>
<path d="M2.40891 74.1594C2.33466 74.1646 2.26216 74.1844 2.19557 74.2176C2.12897 74.2509 2.06959 74.297 2.02082 74.3532C1.97205 74.4094 1.93484 74.4747 1.91134 74.5454C1.88784 74.616 1.8785 74.6906 1.88385 74.7649V75.3053H2.93396V74.7634C2.94395 74.6137 2.89433 74.4662 2.79596 74.3531C2.69758 74.2399 2.55843 74.1703 2.40891 74.1594Z" fill="#B77E30"/>
<path d="M0.525076 73.2422C0.375273 73.253 0.235884 73.3229 0.137462 73.4364C0.0390408 73.5499 -0.010384 73.6978 2.17592e-05 73.8476V75.3038H1.05013V73.8461C1.06053 73.6964 1.01106 73.5487 0.912596 73.4354C0.814137 73.3222 0.674749 73.2527 0.525076 73.2422Z" fill="#B77E30"/>
<path d="M66.2204 52.6339C66.21 52.6945 66.213 52.7567 66.2292 52.816C66.2453 52.8753 66.2742 52.9304 66.3138 52.9774C66.3534 53.0244 66.4028 53.0622 66.4586 53.0881C66.5143 53.114 66.5751 53.1275 66.6365 53.1275C66.698 53.1275 66.7587 53.114 66.8145 53.0881C66.8702 53.0622 66.9196 53.0244 66.9592 52.9774C66.9989 52.9304 67.0278 52.8753 67.0439 52.816C67.06 52.7567 67.063 52.6945 67.0526 52.6339V51.4457C67.053 51.3984 67.0581 51.3512 67.0678 51.3049H66.2204V52.6339Z" fill="#B77E30"/>
<path d="M69.9866 52.7928C69.9769 52.8532 69.9805 52.9149 69.997 52.9737C70.0135 53.0325 70.0426 53.0871 70.0822 53.1336C70.1218 53.18 70.1711 53.2174 70.2265 53.243C70.282 53.2686 70.3423 53.2818 70.4034 53.2818C70.4645 53.2818 70.5249 53.2686 70.5803 53.243C70.6358 53.2174 70.685 53.18 70.7246 53.1336C70.7643 53.0871 70.7933 53.0325 70.8099 52.9737C70.8264 52.9149 70.8299 52.8532 70.8203 52.7928V51.3125H69.9866V52.7928Z" fill="#B77E30"/>
<path d="M64.3366 55.4221C64.3262 55.4827 64.3292 55.5449 64.3453 55.6042C64.3614 55.6635 64.3903 55.7186 64.4299 55.7656C64.4696 55.8126 64.519 55.8504 64.5747 55.8763C64.6305 55.9023 64.6912 55.9157 64.7527 55.9157C64.8141 55.9157 64.8749 55.9023 64.9306 55.8763C64.9863 55.8504 65.0357 55.8126 65.0754 55.7656C65.115 55.7186 65.1439 55.6635 65.16 55.6042C65.1762 55.5449 65.1791 55.4827 65.1688 55.4221V51.302H64.3366V55.4221Z" fill="#B77E30"/>
<path d="M68.1043 51.4457V52.1299C68.0939 52.1905 68.0969 52.2526 68.113 52.3119C68.1291 52.3713 68.158 52.4264 68.1976 52.4734C68.2373 52.5204 68.2867 52.5582 68.3424 52.5841C68.3982 52.61 68.4589 52.6234 68.5204 52.6234C68.5818 52.6234 68.6426 52.61 68.6983 52.5841C68.7541 52.5582 68.8035 52.5204 68.8431 52.4734C68.8827 52.4264 68.9116 52.3713 68.9277 52.3119C68.9439 52.2526 68.9469 52.1905 68.9365 52.1299V51.3125H68.0906C68.0993 51.3564 68.1039 51.401 68.1043 51.4457Z" fill="#B77E30"/>
<path d="M56.2776 50.5845C56.1278 50.5953 55.9884 50.6652 55.89 50.7787C55.7916 50.8921 55.7422 51.04 55.7526 51.1899V51.2929H56.8118V51.1884C56.8167 51.1136 56.8067 51.0386 56.7825 50.9676C56.7583 50.8967 56.7202 50.8312 56.6706 50.7751C56.6209 50.7189 56.5606 50.6732 56.4932 50.6404C56.4257 50.6077 56.3525 50.5887 56.2776 50.5845Z" fill="#B77E30"/>
<path d="M56.8042 51.5896C56.7938 51.6502 56.7968 51.7123 56.813 51.7717C56.8291 51.831 56.858 51.8861 56.8976 51.9331C56.9372 51.9801 56.9866 52.0179 57.0424 52.0438C57.0981 52.0697 57.1589 52.0832 57.2203 52.0832C57.2818 52.0832 57.3425 52.0697 57.3983 52.0438C57.454 52.0179 57.5034 51.9801 57.543 51.9331C57.5827 51.8861 57.6116 51.831 57.6277 51.7717C57.6438 51.7123 57.6468 51.6502 57.6364 51.5896V51.2869H56.8042V51.5896Z" fill="#B77E30"/>
<path d="M60.5704 53.8676C60.56 53.9282 60.563 53.9904 60.5791 54.0497C60.5953 54.109 60.6242 54.1641 60.6638 54.2111C60.7034 54.2581 60.7528 54.2959 60.8086 54.3218C60.8643 54.3478 60.925 54.3612 60.9865 54.3612C61.048 54.3612 61.1087 54.3478 61.1644 54.3218C61.2202 54.2959 61.2696 54.2581 61.3092 54.2111C61.3488 54.1641 61.3777 54.109 61.3939 54.0497C61.41 53.9904 61.413 53.9282 61.4026 53.8676V51.2944H60.5704V53.8676Z" fill="#B77E30"/>
<path d="M58.6866 52.6143C58.6769 52.6747 58.6805 52.7364 58.697 52.7952C58.7135 52.854 58.7426 52.9085 58.7822 52.955C58.8218 53.0015 58.8711 53.0389 58.9266 53.0645C58.982 53.0901 59.0424 53.1033 59.1034 53.1033C59.1645 53.1033 59.2249 53.0901 59.2803 53.0645C59.3358 53.0389 59.385 53.0015 59.4247 52.955C59.4643 52.9085 59.4934 52.854 59.5099 52.7952C59.5264 52.7364 59.5299 52.6747 59.5203 52.6143V51.2944H58.6866V52.6143Z" fill="#B77E30"/>
<path d="M62.4542 57.7987C62.4439 57.8593 62.4468 57.9214 62.463 57.9807C62.4791 58.0401 62.508 58.0952 62.5476 58.1422C62.5873 58.1892 62.6367 58.227 62.6924 58.2529C62.7481 58.2788 62.8089 58.2922 62.8703 58.2922C62.9318 58.2922 62.9925 58.2788 63.0483 58.2529C63.104 58.227 63.1534 58.1892 63.1931 58.1422C63.2327 58.0952 63.2616 58.0401 63.2777 57.9807C63.2938 57.9214 63.2968 57.8593 63.2864 57.7987V51.2991H62.4542V57.7987Z" fill="#B77E30"/>
<path d="M58.1615 49.8186C58.0117 49.8295 57.8723 49.8993 57.7739 50.0128C57.6755 50.1263 57.626 50.2742 57.6364 50.4241V51.2959H58.6866V50.4195C58.6961 50.2703 58.6463 50.1233 58.5479 50.0108C58.4495 49.8982 58.3106 49.8291 58.1615 49.8186Z" fill="#B77E30"/>
<path d="M61.9277 46.8079C61.7779 46.8187 61.6385 46.8885 61.54 47.002C61.4416 47.1155 61.3922 47.2634 61.4026 47.4133V51.2973H62.4542V47.4073C62.463 47.2581 62.4126 47.1116 62.314 46.9994C62.2154 46.8872 62.0766 46.8184 61.9277 46.8079Z" fill="#B77E30"/>
<path d="M63.8115 46.4053C63.6617 46.4161 63.5223 46.486 63.4239 46.5995C63.3255 46.7129 63.2761 46.8608 63.2865 47.0107V51.3034H64.3366V47.0062C64.3461 46.857 64.2963 46.71 64.1979 46.5974C64.0995 46.4848 63.9606 46.4158 63.8115 46.4053Z" fill="#B77E30"/>
<path d="M60.0453 48.8787C59.9711 48.8838 59.8986 48.9036 59.832 48.9369C59.7654 48.9701 59.706 49.0162 59.6572 49.0724C59.6085 49.1287 59.5713 49.194 59.5478 49.2646C59.5243 49.3353 59.5149 49.4099 59.5203 49.4841V51.3005H60.5704V49.4841C60.5808 49.3342 60.5314 49.1863 60.4329 49.0728C60.3345 48.9593 60.1951 48.8895 60.0453 48.8787Z" fill="#B77E30"/>
<path d="M65.6954 47.489C65.5454 47.4999 65.4059 47.5697 65.3072 47.6831C65.2086 47.7965 65.1588 47.9444 65.1688 48.0945V51.3064H66.2204V48.0899C66.2292 47.9409 66.179 47.7944 66.0808 47.682C65.9826 47.5696 65.8442 47.5003 65.6954 47.489Z" fill="#B77E30"/>
<path d="M67.5777 50.8464C67.4537 50.8527 67.3355 50.9011 67.2428 50.9837C67.15 51.0662 67.0883 51.178 67.0677 51.3005H68.0906C68.0697 51.1777 68.0074 51.0657 67.9141 50.9831C67.8208 50.9005 67.7021 50.8523 67.5777 50.8464Z" fill="#B77E30"/>
<path d="M69.4615 50.1531C69.3118 50.1643 69.1727 50.2343 69.0744 50.3477C68.976 50.4611 68.9264 50.6087 68.9364 50.7585V51.3125H69.9865V50.757C69.9965 50.6074 69.9469 50.4599 69.8485 50.3467C69.7502 50.2336 69.611 50.1639 69.4615 50.1531Z" fill="#B77E30"/>
</g>
<defs>
<clipPath id="clip0">
<rect width="243" height="107" fill="white"/>
</clipPath>
</defs>
</svg>
