<svg width="278" height="40" viewBox="0 0 278 40" fill="none" xmlns="http://www.w3.org/2000/svg">
<path d="M31.1413 30.1467C31.1413 30.7591 31.0118 31.2418 30.7527 31.5951C30.4937 31.9248 30.1875 32.231 29.8342 32.5136C29.5045 32.7726 29.163 33.0435 28.8098 33.3261C28.4801 33.5851 28.2328 33.9384 28.0679 34.3859C28.0208 34.5036 27.9031 34.6332 27.7147 34.7745C27.5263 34.8922 27.3143 35.01 27.0788 35.1277C26.8433 35.2455 26.6196 35.3514 26.4076 35.4457C26.1957 35.5163 26.0426 35.5516 25.9484 35.5516L24.1821 36.5408L23.9348 36.3641C23.5109 36.7645 23.0399 37.0707 22.5217 37.2826H22.4511L22.1685 37.106L22.1332 37.1413C21.9447 37.212 21.7563 37.2237 21.5679 37.1766C21.4031 37.1531 21.2264 37.0942 21.038 37C20.8732 36.9293 20.7083 36.8469 20.5435 36.7527C20.3786 36.635 20.2138 36.5525 20.0489 36.5054L20.0136 36.4701C19.6132 36.0697 19.3071 35.6694 19.0951 35.269C18.8832 34.8687 18.7772 34.3741 18.7772 33.7853C18.7772 33.1259 18.8596 32.4665 19.0245 31.8071C19.2129 31.1476 19.4248 30.5118 19.6603 29.8995C19.7074 29.8288 19.7428 29.7582 19.7663 29.6875C19.8134 29.5933 19.8487 29.4991 19.8723 29.4049C19.9665 29.1694 20.0254 28.9339 20.0489 28.6984C20.096 28.4393 20.1313 28.1803 20.1549 27.9212C20.202 27.3324 20.2962 26.8025 20.4375 26.3315C20.6024 25.8605 20.9203 25.4248 21.3913 25.0245L21.462 24.9891L21.3913 24.9538C21.2029 24.7418 21.1322 24.577 21.1793 24.4592C21.2264 24.3415 21.2971 24.2355 21.3913 24.1413C21.4855 24.0471 21.5562 23.9411 21.6033 23.8234C21.6739 23.6821 21.6268 23.4819 21.462 23.2228L21.7799 23.1875L21.8152 23.1522C22.0036 22.846 22.1214 22.4928 22.1685 22.0924C22.2391 21.692 22.298 21.2799 22.3451 20.856C22.3922 20.4085 22.4864 19.9728 22.6277 19.5489C22.769 19.1014 23.0281 18.7011 23.4049 18.3478V18.3125C23.2871 18.0534 23.2518 17.8179 23.2989 17.606C23.346 17.394 23.4167 17.1938 23.5109 17.0054C23.6051 16.817 23.6993 16.6286 23.7935 16.4402C23.8877 16.2283 23.9348 16.0045 23.9348 15.769C23.9348 15.6042 23.8995 15.4746 23.8288 15.3804C23.7582 15.2627 23.6993 15.1332 23.6522 14.9918C23.8641 14.7799 24.0054 14.5562 24.0761 14.3207C24.1467 14.0616 24.1938 13.8025 24.2174 13.5435C24.2409 13.2609 24.2763 12.99 24.3234 12.731C24.3705 12.4484 24.4882 12.1893 24.6766 11.9538H24.712C24.6884 11.7889 24.6884 11.6123 24.712 11.4239C24.7591 11.2355 24.7826 11.0589 24.7826 10.894C24.8062 10.5408 24.8297 10.1875 24.8533 9.83424C24.9004 9.48098 25.0063 9.13949 25.1712 8.80978H25.2065C25.1594 8.66848 25.1359 8.53895 25.1359 8.4212C25.1359 8.27989 25.1241 8.13859 25.1005 7.99728C25.077 7.85598 25.0299 7.71467 24.9592 7.57337C24.9121 7.43207 24.8062 7.30254 24.6413 7.18478V7.14946C24.5942 7.17301 24.5 7.19656 24.3587 7.22011C24.2174 7.22011 24.1114 7.22011 24.0408 7.22011C23.6168 7.62047 23.2283 8.05616 22.875 8.52717C22.5217 8.99819 22.1803 9.48098 21.8505 9.97554C21.5444 10.4466 21.2264 10.9293 20.8967 11.4239C20.5906 11.8949 20.2491 12.3424 19.8723 12.7663H19.837C19.837 12.8134 19.837 12.8605 19.837 12.9076C19.8605 12.9547 19.8723 13.0018 19.8723 13.0489C19.8958 13.5435 19.6486 13.7908 19.1304 13.7908C18.3062 14.827 17.788 16.0163 17.5761 17.3587C17.529 17.3116 17.4819 17.2763 17.4348 17.2527C17.3877 17.2056 17.3406 17.1585 17.2935 17.1114L17.2582 17.1821C16.9049 17.7473 16.5045 18.3243 16.0571 18.913C15.6332 19.4783 15.2092 20.0553 14.7853 20.644C14.3614 21.2092 13.9728 21.798 13.6196 22.4103C13.2663 23.0226 12.9955 23.6585 12.8071 24.3179V24.3533L12.7717 24.3886C12.5127 24.5534 12.3007 24.6947 12.1359 24.8125C11.9946 24.9303 11.865 25.0598 11.7473 25.2011C11.6295 25.3424 11.5236 25.5072 11.4293 25.6957C11.3351 25.8605 11.2292 26.0725 11.1114 26.3315C10.9466 26.6612 10.7699 26.9792 10.5815 27.2853C10.3931 27.5915 10.1576 27.8741 9.875 28.1332C9.7337 28.6042 9.56884 29.0752 9.38043 29.5462C9.21558 30.0172 9.00362 30.4529 8.74457 30.8533C8.67391 30.971 8.57971 31.1359 8.46196 31.3478C8.3442 31.5362 8.22645 31.7364 8.1087 31.9484C8.01449 32.1603 7.93207 32.3723 7.86141 32.5842C7.79076 32.7962 7.76721 32.9728 7.79076 33.1141C7.60236 33.3025 7.46105 33.5263 7.36685 33.7853C7.27264 34.0208 7.19022 34.2681 7.11957 34.5272C7.02536 34.904 6.91938 35.2101 6.80163 35.4457C6.70743 35.6576 6.50725 35.8931 6.20109 36.1522L6.16576 36.1875L6.20109 36.2228C6.34239 36.7174 6.35417 37.0942 6.23641 37.3533C6.11866 37.6359 5.94203 37.8714 5.70652 38.0598C5.47101 38.2717 5.20018 38.4719 4.89402 38.6603C4.58786 38.8487 4.3288 39.1078 4.11685 39.4375C3.83424 39.2491 3.59873 38.9547 3.41033 38.5543C3.22192 38.1775 3.06884 37.8243 2.95109 37.4946C2.71558 36.8587 2.72736 36.3288 2.98641 35.9049C3.22192 35.481 3.5163 35.0924 3.86957 34.7391C4.19928 34.3859 4.50543 34.0326 4.78804 33.6793C5.0471 33.3025 5.0942 32.8668 4.92935 32.3723C5.0942 32.3723 5.25906 32.337 5.42391 32.2663C5.58877 32.1721 5.74185 32.0543 5.88315 31.913C6.02446 31.7717 6.14221 31.6187 6.23641 31.4538C6.33062 31.2654 6.38949 31.0888 6.41304 30.9239C6.43659 30.7355 6.33062 30.5589 6.09511 30.394C5.88315 30.2292 5.69475 30.0996 5.52989 30.0054L5.56522 29.9348C5.58877 29.4873 5.69475 29.1458 5.88315 28.9103C6.07156 28.6513 6.28351 28.4275 6.51902 28.2391C6.75453 28.0507 6.96649 27.8388 7.15489 27.6033C7.3433 27.3678 7.4375 27.038 7.4375 26.6141C7.5788 26.2138 7.72011 25.8134 7.86141 25.413C8.02627 25.0127 8.2029 24.6123 8.3913 24.212C8.55616 23.8822 8.75634 23.4701 8.99185 22.9755C9.22735 22.4574 9.34511 22.0335 9.34511 21.7038C9.34511 20.8795 9.43931 20.1377 9.62772 19.4783C9.83967 18.7953 10.3107 18.2065 11.0408 17.712L11.0761 17.6766L11.0408 17.6413C10.923 17.1938 10.8759 16.8288 10.8995 16.5462C10.9466 16.2636 11.029 15.8986 11.1467 15.4511C11.2645 14.9801 11.3234 14.5562 11.3234 14.1793C11.3234 14.1087 11.3116 14.038 11.288 13.9674C11.288 13.8967 11.288 13.8261 11.288 13.7554C11.3587 13.6612 11.4764 13.567 11.6413 13.4728C11.8297 13.3551 11.9828 13.2491 12.1005 13.1549C12.2418 13.0371 12.3243 12.9194 12.3478 12.8016C12.3714 12.6603 12.2772 12.519 12.0652 12.3777L12.0299 12.3071C12.0063 12.1893 12.0652 11.9538 12.2065 11.6005C12.3714 11.2473 12.548 10.8822 12.7364 10.5054C12.9484 10.1051 13.1486 9.74004 13.337 9.41033C13.5489 9.08062 13.702 8.88044 13.7962 8.80978L13.7255 8.77446C13.5136 8.68025 13.2781 8.66848 13.019 8.73913C12.76 8.78623 12.5009 8.88044 12.2418 9.02174C11.9828 9.16304 11.7355 9.31612 11.5 9.48098C11.2645 9.62228 11.0408 9.72826 10.8288 9.79891L10.7935 9.83424C10.6522 10.2817 10.4638 10.5525 10.2283 10.6467C9.99275 10.7174 9.7337 10.7409 9.45109 10.7174C9.19203 10.6703 8.9212 10.6232 8.63859 10.5761C8.37953 10.529 8.1558 10.5879 7.96739 10.7527L7.86141 10.788L7.68478 10.6821L7.64946 10.7174C7.62591 10.8351 7.55525 10.9176 7.4375 10.9647C7.27264 11.0353 7.11957 11.0589 6.97826 11.0353C6.83696 10.9882 6.70743 10.9529 6.58967 10.9293C6.47192 10.9058 6.35417 10.9176 6.23641 10.9647C6.14221 11.0118 6.05978 11.1531 5.98913 11.3886C5.58877 11.2473 5.17663 11.212 4.75272 11.2826C4.3288 11.3297 3.89312 11.3768 3.44565 11.4239C2.97464 11.471 2.5154 11.4592 2.06793 11.3886C1.59692 11.2944 1.14946 11.0236 0.725544 10.5761H0.690218L0.301631 9.44565C0.772645 9.30435 1.23188 9.3279 1.67935 9.51631C2.12681 9.70471 2.55072 9.88134 2.95109 10.0462C3.35145 10.2111 3.74004 10.3053 4.11685 10.3288C4.47011 10.3288 4.81159 10.0815 5.1413 9.58696L5.17663 9.51631H5.28261C5.61232 9.51631 5.91848 9.4692 6.20109 9.375C6.50725 9.25725 6.80163 9.15127 7.08424 9.05707C7.3904 8.93931 7.69656 8.85688 8.00272 8.80978C8.30888 8.73913 8.62681 8.76268 8.95652 8.88044L8.99185 8.91576C9.1567 8.77446 9.30978 8.6096 9.45109 8.4212C9.59239 8.23279 9.66304 8.03261 9.66304 7.82065C9.85145 7.82065 10.0752 7.7971 10.3342 7.75C10.5933 7.7029 10.7935 7.73823 10.9348 7.85598H10.9701C11.1585 7.64402 11.3822 7.46739 11.6413 7.32609C11.9004 7.18478 12.1712 7.05525 12.4538 6.9375C12.7364 6.81975 13.019 6.70199 13.3016 6.58424C13.5842 6.46649 13.8433 6.32518 14.0788 6.16033C14.3143 5.99547 14.4438 5.81884 14.4674 5.63044C14.5145 5.44203 14.538 5.2654 14.538 5.10054C14.538 4.91214 14.5734 4.74728 14.644 4.60598C14.7382 4.46467 14.9502 4.37047 15.2799 4.32337C15.4447 4.29982 15.6332 4.22917 15.8451 4.11141C16.0806 3.99366 16.2926 3.91123 16.481 3.86413C16.6929 3.79348 16.8813 3.79348 17.0462 3.86413C17.2111 3.91123 17.3406 4.08786 17.4348 4.39402V4.42935C17.529 4.57065 17.5525 4.70018 17.5054 4.81794C17.4819 4.93569 17.4466 5.04167 17.3995 5.13587C17.3759 5.23007 17.3524 5.3125 17.3288 5.38315C17.3288 5.45381 17.3877 5.52446 17.5054 5.59511H17.5761C17.5761 5.61866 17.5996 5.72464 17.6467 5.91304C17.6938 6.0779 17.7174 6.19565 17.7174 6.26631C17.7174 6.52536 17.6467 6.76087 17.5054 6.97283C17.3641 7.16123 17.2111 7.34964 17.0462 7.53804C16.9049 7.7029 16.7754 7.89131 16.6576 8.10326C16.5634 8.31522 16.5516 8.57428 16.6223 8.88044L16.6576 8.91576L15.0326 12.2011V12.2364C15.1739 12.4955 15.1739 12.7192 15.0326 12.9076C14.8913 13.0725 14.7264 13.2255 14.538 13.3668C14.3732 13.4846 14.2319 13.6141 14.1141 13.7554C14.0199 13.8967 14.0788 14.0616 14.2908 14.25C14.2908 14.25 14.3143 14.2618 14.3614 14.2853C14.173 14.827 13.9139 15.3569 13.5842 15.875C13.2781 16.3696 13.125 16.8995 13.125 17.4647C13.125 17.5353 13.1368 17.6295 13.1603 17.7473C13.1839 17.865 13.1957 17.9475 13.1957 17.9946L13.1603 18.0652C12.9955 18.3243 12.8895 18.5362 12.8424 18.7011C12.8188 18.8659 12.7953 19.0897 12.7717 19.3723C12.7717 19.5136 12.7482 19.7609 12.7011 20.1141C12.654 20.4438 12.5716 20.6558 12.4538 20.75C12.548 20.8442 12.6187 20.8913 12.6658 20.8913C12.7129 20.9149 12.8071 20.8795 12.9484 20.7853C13.1132 20.6911 13.2192 20.6205 13.2663 20.5734V20.538C13.3605 20.0435 13.5489 19.596 13.8315 19.1957C14.1141 18.7717 14.4085 18.3714 14.7147 17.9946C15.0444 17.6178 15.3388 17.2527 15.5978 16.8995C15.8804 16.5462 16.0453 16.1694 16.0924 15.769V15.663C16.3986 15.663 16.5987 15.6042 16.6929 15.4864C16.8107 15.3451 16.8696 15.192 16.8696 15.0272C16.8931 14.8388 16.9049 14.6621 16.9049 14.4973C16.9049 14.3324 16.9638 14.2147 17.0815 14.144H17.1168C17.3524 14.0969 17.5054 14.0027 17.5761 13.8614C17.6703 13.7201 17.7292 13.567 17.7527 13.4022C17.7998 13.2138 17.8469 13.0371 17.894 12.8723C17.9411 12.6839 18.0471 12.519 18.212 12.3777H18.2473L18.2826 12.3424C18.5888 12.2482 18.8007 12.0833 18.9185 11.8478C19.0598 11.6123 19.1775 11.365 19.2717 11.106C19.3895 10.8234 19.5072 10.5643 19.625 10.3288C19.7663 10.0933 20.0018 9.94022 20.3315 9.86957H20.3668C20.3433 9.75181 20.4257 9.57518 20.6141 9.33967C20.8025 9.08062 20.9203 8.84511 20.9674 8.63315L21.2147 8.84511C21.2382 8.82156 21.25 8.78623 21.25 8.73913C21.5091 7.96196 21.9447 7.26721 22.5571 6.65489C23.1929 6.01902 23.7935 5.43025 24.3587 4.88859C24.4529 4.91214 24.5707 4.87681 24.712 4.78261C24.8768 4.68841 25.0417 4.5942 25.2065 4.5C25.3949 4.4058 25.5951 4.34692 25.8071 4.32337C26.019 4.27627 26.2428 4.32337 26.4783 4.46467C26.5725 4.58243 26.702 4.75906 26.8668 4.99457C27.0317 5.20652 27.1966 5.43025 27.3614 5.66576C27.5498 5.90127 27.7029 6.13678 27.8207 6.37228C27.9384 6.60779 27.9855 6.7962 27.962 6.9375C27.8442 7.00815 27.7618 7.22011 27.7147 7.57337C27.6676 7.92663 27.6205 8.31522 27.5734 8.73913C27.5498 9.16304 27.5145 9.55163 27.4674 9.90489C27.4203 10.2582 27.3496 10.4701 27.2554 10.5408C27.3025 10.7998 27.3496 11.0589 27.3967 11.3179C27.4438 11.5534 27.3732 11.7654 27.1848 11.9538L27.1141 11.9891C27.2083 12.0833 27.2554 12.2011 27.2554 12.3424C27.279 12.4837 27.3025 12.6132 27.3261 12.731C27.1377 12.731 27.0199 12.7545 26.9728 12.8016C26.9257 12.8252 26.9022 12.8723 26.9022 12.9429C26.9022 13.0136 26.9022 13.1078 26.9022 13.2255C26.9022 13.3197 26.8315 13.4257 26.6902 13.5435L26.5136 17.5707C26.3252 17.5471 26.1721 17.6295 26.0543 17.8179C25.9366 17.9828 25.8188 18.1241 25.7011 18.2418C25.7011 18.9719 25.6069 19.6431 25.4185 20.2554C25.2301 20.8442 25.0063 21.4683 24.7473 22.1277C24.6766 22.2926 24.5824 22.5163 24.4647 22.7989C24.3705 23.0815 24.2645 23.3759 24.1467 23.6821C24.0525 23.9882 23.9701 24.2826 23.8995 24.5652C23.8524 24.8478 23.8406 25.0716 23.8641 25.2364H23.7935C23.7228 25.4013 23.5933 25.7428 23.4049 26.2609C23.2165 26.779 23.0163 27.3324 22.8043 27.9212C22.6159 28.4864 22.4393 29.0281 22.2745 29.5462C22.1096 30.0408 22.0272 30.3705 22.0272 30.5353H22.0625L22.1685 30.6766C22.1685 30.7237 22.1803 30.7591 22.2038 30.7826C22.2038 30.9004 22.1567 31.0181 22.0625 31.1359C21.9918 31.2301 21.933 31.3361 21.8859 31.4538C21.8859 31.9719 21.7917 32.4547 21.6033 32.9022C21.4149 33.3496 21.3207 33.8207 21.3207 34.3152C21.5091 34.433 21.6857 34.5625 21.8505 34.7038C22.0389 34.8451 22.2274 34.9746 22.4158 35.0924C22.4864 34.904 22.5924 34.7745 22.7337 34.7038C22.875 34.6332 23.0163 34.5743 23.1576 34.5272C23.3225 34.4565 23.452 34.3741 23.5462 34.2799C23.6639 34.1857 23.7228 34.0326 23.7228 33.8207L23.7935 33.7853C23.9348 33.7147 24.1114 33.6558 24.3234 33.6087C24.5353 33.538 24.7473 33.4792 24.9592 33.4321C25.1947 33.3614 25.4185 33.2908 25.6304 33.2201C25.8424 33.1495 26.0072 33.0788 26.125 33.0082C26.4547 32.8197 26.8786 32.6078 27.3967 32.3723C27.9149 32.1132 28.3623 31.9366 28.7391 31.8424C29.0453 31.7717 29.2455 31.6069 29.3397 31.3478C29.4574 31.0888 29.5634 30.8415 29.6576 30.606C29.7518 30.3705 29.8931 30.1938 30.0815 30.0761C30.2699 29.9348 30.5996 29.9466 31.0707 30.1114L31.1413 30.1467ZM40.1141 14.9565C39.6902 15.1214 39.4547 15.3687 39.4076 15.6984C39.3605 16.0281 39.337 16.3696 39.337 16.7228C39.3605 17.0761 39.3487 17.4058 39.3016 17.712C39.2545 18.0181 39.019 18.2183 38.5951 18.3125C38.4303 18.0299 38.2183 17.7708 37.9592 17.5353C37.7237 17.2763 37.4882 17.029 37.2527 16.7935C37.0172 16.5344 36.8288 16.2636 36.6875 15.981C36.5462 15.6984 36.4991 15.3569 36.5462 14.9565L38.3125 12.9076C38.5951 13.0018 38.8188 13.1196 38.9837 13.2609C39.1485 13.4022 39.2899 13.567 39.4076 13.7554C39.5254 13.9438 39.6313 14.144 39.7255 14.356C39.8433 14.5444 39.9728 14.7446 40.1141 14.9565ZM46.9674 30.7826C46.9909 31.3007 46.9438 31.6658 46.8261 31.8777C46.7319 32.0897 46.6141 32.2663 46.4728 32.4076C46.3315 32.5254 46.202 32.6667 46.0842 32.8315C45.99 32.9728 45.9429 33.2319 45.9429 33.6087C45.4013 34.1975 44.9656 34.6332 44.6359 34.9158C44.3062 35.1748 43.9882 35.3986 43.6821 35.587C43.3759 35.7518 43.0344 35.9402 42.6576 36.1522C42.2808 36.3641 41.7627 36.6938 41.1033 37.1413L40.856 37.1766C40.7853 37.5299 40.6558 37.7301 40.4674 37.7772C40.3025 37.8478 40.1024 37.8832 39.8668 37.8832C39.6549 37.8832 39.4429 37.9067 39.231 37.9538C39.019 38.0009 38.8424 38.2011 38.7011 38.5543C38.3007 38.6721 37.9592 38.7192 37.6766 38.6957C37.394 38.6721 37.029 38.6603 36.5815 38.6603C36.4402 38.6603 36.2518 38.6486 36.0163 38.625C35.8043 38.6014 35.6277 38.6132 35.4864 38.6603C35.3922 38.6839 35.2862 38.7428 35.1685 38.837C35.0743 38.9547 34.9683 39.0489 34.8505 39.1196C34.7328 39.1902 34.615 39.2138 34.4973 39.1902C34.3795 39.1902 34.2735 39.096 34.1793 38.9076C33.8967 38.9783 33.6377 38.9783 33.4022 38.9076C33.1667 38.837 32.9429 38.7192 32.731 38.5543C32.519 38.3895 32.3188 38.1893 32.1304 37.9538C31.9656 37.7418 31.8007 37.5417 31.6359 37.3533C31.5181 37.212 31.3886 37.0824 31.2473 36.9647C31.106 36.8469 30.9764 36.7292 30.8587 36.6114C30.5996 36.3524 30.4112 36.0226 30.2935 35.6223C30.1757 35.2219 30.1051 34.8098 30.0815 34.3859C30.058 33.962 30.0697 33.538 30.1168 33.1141C30.1639 32.6902 30.2346 32.3134 30.3288 31.9837C30.5408 31.7717 30.6938 31.5362 30.788 31.2772C30.8587 30.9946 30.9176 30.712 30.9647 30.4293C31.0353 30.1467 31.106 29.8759 31.1766 29.6168C31.2708 29.3342 31.4239 29.087 31.6359 28.875C31.6359 28.5688 31.683 28.2862 31.7772 28.0272C31.8949 27.7681 32.0362 27.5208 32.2011 27.2853C32.3895 27.0498 32.5897 26.8379 32.8016 26.6495C33.0371 26.4375 33.2491 26.2373 33.4375 26.0489C33.6259 26.0489 33.8143 26.0489 34.0027 26.0489C34.1911 26.0254 34.3678 26.0371 34.5326 26.0842C34.6975 26.1078 34.8388 26.1784 34.9565 26.2962C35.0743 26.3904 35.1685 26.5553 35.2391 26.7908C35.404 27.4266 35.3569 27.9447 35.0978 28.3451C34.8623 28.7219 34.5915 29.087 34.2853 29.4402C33.9792 29.7935 33.7319 30.1585 33.5435 30.5353C33.3551 30.9121 33.4022 31.3949 33.6848 31.9837C33.4257 31.9837 33.2491 32.0543 33.1549 32.1957C33.0842 32.337 33.0254 32.5018 32.9783 32.6902C32.9547 32.8551 32.9076 33.0199 32.837 33.1848C32.7663 33.3496 32.625 33.4674 32.413 33.538C32.5543 33.6793 32.625 33.9266 32.625 34.2799C32.6485 34.6332 32.6839 34.9746 32.731 35.3043C32.8016 35.6105 32.9076 35.8578 33.0489 36.0462C33.2138 36.2346 33.5082 36.2464 33.9321 36.0815C34.2382 36.3406 34.6033 36.4466 35.0272 36.3995C35.4746 36.3524 35.8868 36.3406 36.2636 36.3641C36.5933 36.1522 36.8759 36.0462 37.1114 36.0462C37.3469 36.0226 37.5707 36.0462 37.7826 36.1168C37.9946 36.1639 38.2183 36.2111 38.4538 36.2582C38.6893 36.3053 38.9719 36.2699 39.3016 36.1522C39.3958 35.7518 39.5607 35.5163 39.7962 35.4457C40.0317 35.375 40.2672 35.3397 40.5027 35.3397C40.7382 35.3161 40.9502 35.269 41.1386 35.1984C41.3505 35.1277 41.4918 34.8922 41.5625 34.4918C41.7509 34.2563 41.9746 34.1268 42.2337 34.1033C42.4928 34.0562 42.7518 34.0091 43.0109 33.962C43.2935 33.9149 43.5408 33.8207 43.7527 33.6793C43.9882 33.5145 44.1531 33.2083 44.2473 32.7609C44.6476 32.4547 44.9303 32.231 45.0951 32.0897C45.2835 31.9248 45.4366 31.7953 45.5543 31.7011C45.6721 31.6069 45.8252 31.5009 46.0136 31.3832C46.202 31.2654 46.5199 31.0652 46.9674 30.7826ZM70.8478 27.1087C70.6359 27.6975 70.3062 28.2391 69.8587 28.7337C69.4348 29.2283 68.9755 29.7111 68.481 30.1821C67.9864 30.6531 67.4918 31.1241 66.9973 31.5951C66.5263 32.0426 66.1259 32.5136 65.7962 33.0082C65.5842 32.9375 65.3958 32.9611 65.231 33.0788C65.0897 33.1966 64.9601 33.3496 64.8424 33.538C64.5833 33.6322 64.3125 33.7382 64.0299 33.856C63.7708 33.9502 63.5118 34.0679 63.2527 34.2092C63.0172 34.3505 62.7935 34.5154 62.5815 34.7038C62.3931 34.8922 62.2518 35.1277 62.1576 35.4103C61.7101 35.4339 61.3216 35.5281 60.9918 35.6929C60.6621 35.8342 60.3442 35.9873 60.038 36.1522C59.7319 36.317 59.4022 36.4583 59.0489 36.5761C58.6957 36.6703 58.2717 36.6821 57.7772 36.6114C57.683 36.9647 57.5534 37.1295 57.3886 37.106C57.2473 37.106 57.0942 37.0707 56.9293 37C56.7645 36.9058 56.5996 36.8587 56.4348 36.8587C56.2699 36.8351 56.1404 37 56.0462 37.3533C55.8813 37.3533 55.7047 37.3415 55.5163 37.3179C55.3514 37.3179 55.1866 37.3179 55.0217 37.3179C54.8804 37.3415 54.7391 37.3886 54.5978 37.4592C54.4801 37.5299 54.3859 37.6594 54.3152 37.8478C53.6322 37.8478 52.9139 37.8949 52.1603 37.9891C51.4067 38.0833 50.6531 38.1304 49.8995 38.1304C49.1694 38.1304 48.4511 38.0362 47.7446 37.8478C47.0616 37.683 46.4493 37.3297 45.9076 36.788C45.7192 36.5996 45.5661 36.4112 45.4484 36.2228C45.3306 36.0344 45.2011 35.8225 45.0598 35.587C44.9891 35.4692 44.9185 35.3632 44.8478 35.269C44.7772 35.1513 44.7065 35.0217 44.6359 34.8804C44.4475 34.4565 44.3415 34.0208 44.3179 33.5734C44.2944 33.1259 44.2944 32.6784 44.3179 32.231C44.3179 31.7835 44.3179 31.3478 44.3179 30.9239C44.3179 30.4764 44.2355 30.0408 44.0707 29.6168C44.0707 29.2165 44.1649 28.8632 44.3533 28.5571C44.5181 28.2274 44.7065 27.9094 44.9185 27.6033C45.1304 27.2971 45.3306 26.9909 45.519 26.6848C45.7074 26.3551 45.8134 26.0018 45.837 25.625C45.6721 25.2246 45.6839 24.8361 45.8723 24.4592C46.0607 24.0824 46.2491 23.7292 46.4375 23.3995C46.5082 23.2817 46.567 23.1639 46.6141 23.0462C46.6848 22.9049 46.7554 22.7636 46.8261 22.6223C46.8967 22.481 46.9909 22.3397 47.1087 22.1984C47.2264 22.0571 47.3324 21.9275 47.4266 21.8098C47.7328 21.3859 48.0389 20.9737 48.3451 20.5734C48.6513 20.173 48.9574 19.7609 49.2636 19.337C49.4755 19.0543 49.6757 18.7717 49.8641 18.4891C50.0761 18.2065 50.2763 17.9121 50.4647 17.606C50.5589 17.4647 50.6531 17.3116 50.7473 17.1467C50.8415 16.9583 50.9357 16.8053 51.0299 16.6875C51.1476 16.5462 51.3478 16.3931 51.6304 16.2283C51.913 16.0399 52.1368 15.8986 52.3016 15.8043C52.7726 15.5688 53.279 15.404 53.8207 15.3098C54.3623 15.192 54.8687 15.1803 55.3397 15.2745C55.8107 15.3687 56.2228 15.5924 56.5761 15.9457C56.9529 16.2754 57.2002 16.7582 57.3179 17.394C57.365 17.7002 57.3768 18.0063 57.3533 18.3125C57.3533 18.5951 57.365 18.8777 57.3886 19.1603C57.4357 19.4429 57.5181 19.7138 57.6359 19.9728C57.7536 20.2083 57.9656 20.4321 58.2717 20.644C58.0127 21.0444 57.7889 21.4565 57.6005 21.8804C57.4357 22.3043 57.2473 22.7283 57.0353 23.1522C57.2708 23.2228 57.365 23.3641 57.3179 23.5761C57.2944 23.7645 57.2944 23.9411 57.3179 24.106C56.9882 24.365 56.7645 24.683 56.6467 25.0598C56.529 25.4366 56.4348 25.8252 56.3641 26.2255C56.2935 26.6024 56.1993 26.9674 56.0815 27.3207C55.9873 27.6504 55.7989 27.9212 55.5163 28.1332C55.6576 28.8868 55.4221 29.3813 54.8098 29.6168C54.3859 29.7817 54.1033 29.817 53.962 29.7228C53.8207 29.6051 53.7147 29.452 53.644 29.2636C53.5969 29.0516 53.5263 28.8514 53.4321 28.663C53.3379 28.4746 53.1377 28.3804 52.8315 28.3804C52.8786 28.0978 52.9139 27.8152 52.9375 27.5326C52.9846 27.2264 53.0435 26.9321 53.1141 26.6495C53.1848 26.3668 53.2908 26.096 53.4321 25.837C53.5734 25.5779 53.7735 25.3424 54.0326 25.1304C53.8207 25.0127 53.7382 24.8361 53.7853 24.6005C53.8324 24.3415 53.8324 24.106 53.7853 23.894C53.9502 23.423 54.1975 22.9284 54.5272 22.4103C54.8569 21.8922 55.1513 21.3741 55.4103 20.856C55.6694 20.3143 55.8342 19.7726 55.9049 19.231C55.9755 18.6893 55.846 18.1594 55.5163 17.6413C55.4221 17.5 55.2808 17.3822 55.0924 17.288C54.9275 17.1938 54.7627 17.1467 54.5978 17.1467C54.433 17.1467 54.2917 17.2056 54.1739 17.3234C54.0562 17.4411 54.0091 17.6295 54.0326 17.8886L54.3152 18.1359C53.8678 18.2772 53.4674 18.5127 53.1141 18.8424C52.7844 19.1721 52.4665 19.5371 52.1603 19.9375C51.8542 20.3143 51.548 20.7029 51.2418 21.1033C50.9592 21.5036 50.6531 21.8451 50.3234 22.1277C50.1585 22.7871 49.8995 23.3995 49.5462 23.9647C49.2165 24.5299 48.8868 25.0951 48.5571 25.6603C48.3687 26.0136 48.2274 26.308 48.1332 26.5435C48.0625 26.779 47.9565 27.0616 47.8152 27.3913C47.7681 27.5091 47.7092 27.6268 47.6386 27.7446C47.5915 27.8388 47.5444 27.9447 47.4973 28.0625C47.356 28.5806 47.2264 29.087 47.1087 29.5815C47.0145 30.0761 46.7437 30.5 46.2962 30.8533C46.3668 31.0417 46.4257 31.2183 46.4728 31.3832C46.5435 31.548 46.6612 31.7129 46.8261 31.8777C46.567 32.019 46.4139 32.1957 46.3668 32.4076C46.3433 32.596 46.3551 32.808 46.4022 33.0435C46.4728 33.2554 46.5553 33.4792 46.6495 33.7147C46.7672 33.9266 46.8261 34.1386 46.8261 34.3505C47.1087 34.3741 47.3678 34.4801 47.6033 34.6685C47.8388 34.8569 48.0743 35.0453 48.3098 35.2337C48.5688 35.4221 48.8161 35.5752 49.0516 35.6929C49.2871 35.7871 49.5462 35.7518 49.8288 35.587C50.0172 35.6341 50.1938 35.6458 50.3587 35.6223C50.5235 35.5987 50.6884 35.587 50.8533 35.587C51.0181 35.5634 51.1712 35.587 51.3125 35.6576C51.4774 35.7283 51.6422 35.8696 51.8071 36.0815C51.9719 35.7283 52.1957 35.5163 52.4783 35.4457C52.7609 35.375 53.0553 35.3397 53.3614 35.3397C53.6911 35.3397 53.9973 35.3279 54.2799 35.3043C54.586 35.2808 54.8451 35.1395 55.0571 34.8804C55.3397 35.1159 55.587 35.2101 55.7989 35.163C56.0344 35.1159 56.2464 35.01 56.4348 34.8451C56.6467 34.6803 56.8587 34.5154 57.0707 34.3505C57.2826 34.1857 57.5181 34.1033 57.7772 34.1033C58.3424 34.1033 58.837 34.0208 59.2609 33.856C59.6848 33.6911 60.0969 33.5027 60.4973 33.2908C60.8976 33.0553 61.298 32.8315 61.6984 32.6196C62.1223 32.4076 62.6051 32.2545 63.1467 32.1603C63.3822 31.8071 63.6531 31.5598 63.9592 31.4185C64.2889 31.2536 64.6187 31.1123 64.9484 30.9946C65.3016 30.8533 65.6313 30.6884 65.9375 30.5C66.2672 30.288 66.5616 29.9583 66.8207 29.5109C67.2917 29.5344 67.6803 29.4049 67.9864 29.1223C68.2926 28.8161 68.587 28.4982 68.8696 28.1685C69.1522 27.8152 69.4348 27.5208 69.7174 27.2853C70.0235 27.0263 70.4004 26.9674 70.8478 27.1087ZM90.2772 25.9076C90.3714 26.2609 90.336 26.567 90.1712 26.8261C90.0063 27.0616 89.7826 27.2736 89.5 27.462C89.2409 27.6504 88.9466 27.827 88.6168 27.9918C88.3107 28.1332 88.0516 28.298 87.8397 28.4864C86.7799 28.7219 85.8143 28.8986 84.9429 29.0163C84.0951 29.1105 83.1531 29.24 82.1168 29.4049C81.8107 29.452 81.5163 29.452 81.2337 29.4049C80.9746 29.3342 80.7038 29.3107 80.4212 29.3342C80.2563 29.3342 80.1033 29.3342 79.962 29.3342C79.8207 29.3107 79.6793 29.3107 79.538 29.3342C78.9964 29.3813 78.6431 29.5697 78.4783 29.8995C78.3134 30.2056 78.1721 30.5707 78.0543 30.9946C77.9601 31.3949 77.8306 31.7835 77.6658 32.1603C77.5245 32.5136 77.2065 32.7609 76.712 32.9022C76.6649 33.0199 76.6766 33.1259 76.7473 33.2201C76.8415 33.3143 76.9121 33.3967 76.9592 33.4674C76.5589 33.5851 76.288 33.7971 76.1467 34.1033C76.029 34.4094 75.923 34.7156 75.8288 35.0217C75.7346 35.3279 75.5933 35.587 75.4049 35.7989C75.24 36.0109 74.9103 36.0815 74.4158 36.0109C73.6857 36.788 72.8261 37.4121 71.837 37.8832C70.8478 38.3777 69.8234 38.6957 68.7636 38.837C68.5752 38.7428 68.3868 38.625 68.1984 38.4837C68.0335 38.3424 67.8569 38.2129 67.6685 38.0951C67.5036 37.9774 67.3152 37.8832 67.1033 37.8125C66.9149 37.7654 66.6911 37.7654 66.4321 37.8125C66.4085 37.3179 66.3143 36.8587 66.1495 36.4348C65.961 36.0109 65.7255 35.6105 65.4429 35.2337C65.3958 34.8098 65.4547 34.4212 65.6196 34.0679C65.7609 33.6911 65.9139 33.3261 66.0788 32.9728C66.2437 32.6196 66.385 32.2663 66.5027 31.913C66.5969 31.5362 66.5734 31.1123 66.4321 30.6413C66.6676 30.5 66.8207 30.3351 66.8913 30.1467C66.9855 29.9583 67.0444 29.7699 67.0679 29.5815C67.115 29.3696 67.1739 29.1812 67.2446 29.0163C67.3152 28.8279 67.4801 28.6748 67.7391 28.5571C67.5507 27.9918 67.5743 27.5797 67.8098 27.3207C68.0688 27.038 68.375 26.7908 68.7283 26.5788C69.0815 26.3668 69.4112 26.1313 69.7174 25.8723C70.0235 25.6132 70.1413 25.2246 70.0707 24.7065C70.212 24.5652 70.3768 24.4475 70.5652 24.3533C70.7536 24.2591 70.9303 24.1766 71.0951 24.106C71.2835 24.0118 71.4601 23.9176 71.625 23.8234C71.7899 23.7292 71.9429 23.5996 72.0842 23.4348C71.9194 23.317 71.837 23.1993 71.837 23.0815C71.8605 22.9638 71.8958 22.846 71.9429 22.7283C71.99 22.587 72.0371 22.4457 72.0842 22.3043C72.1549 22.163 72.1549 22.0217 72.0842 21.8804C72.7201 21.9746 73.2735 21.8922 73.7446 21.6332C74.2391 21.3505 74.6984 21.0679 75.1223 20.7853C75.5697 20.5027 76.0172 20.3025 76.4647 20.1848C76.9121 20.067 77.4303 20.2083 78.019 20.6087C78.0661 20.7736 78.1368 21.0208 78.231 21.3505C78.3487 21.6567 78.4547 21.9746 78.5489 22.3043C78.6667 22.6341 78.7726 22.952 78.8668 23.2582C78.961 23.5643 79.0199 23.788 79.0435 23.9293C79.0435 24.0471 79.0435 24.2355 79.0435 24.4946C79.0435 24.7536 79.0435 25.0362 79.0435 25.3424C79.0435 25.625 79.0435 25.8958 79.0435 26.1549C79.0435 26.4139 79.0435 26.6141 79.0435 26.7554C79.7264 27.1558 80.4094 27.4031 81.0924 27.4973C81.7754 27.5679 82.4583 27.4031 83.1413 27.0027C83.4004 27.2382 83.6476 27.3089 83.8832 27.2147C84.1187 27.0969 84.3424 26.9674 84.5543 26.8261C84.7899 26.6848 85.0254 26.6141 85.2609 26.6141C85.4964 26.5906 85.7319 26.779 85.9674 27.1793C86.2971 26.8732 86.6386 26.6848 86.9918 26.6141C87.3451 26.5199 87.7101 26.4728 88.087 26.4728C88.4638 26.4493 88.8288 26.4139 89.1821 26.3668C89.5589 26.3197 89.9239 26.1667 90.2772 25.9076ZM76.712 26.5082C76.712 26.1549 76.7708 25.7781 76.8886 25.3777C77.0063 24.9774 77.1005 24.5888 77.1712 24.212C77.2418 23.8116 77.2301 23.4348 77.1359 23.0815C77.0652 22.7283 76.8415 22.4103 76.4647 22.1277C76.2056 22.269 75.9937 22.4692 75.8288 22.7283C75.6639 22.9638 75.4991 23.2111 75.3342 23.4701C75.1694 23.7056 74.9692 23.9058 74.7337 24.0707C74.5217 24.2355 74.2391 24.2826 73.8859 24.212C73.7681 24.4946 73.7681 24.7301 73.8859 24.9185C74.0036 25.0833 74.1449 25.2482 74.3098 25.413C74.4746 25.5543 74.6277 25.7074 74.769 25.8723C74.9339 26.0371 74.9928 26.2491 74.9457 26.5082C75.0399 26.5788 75.1694 26.6495 75.3342 26.7201C75.4991 26.7672 75.6639 26.8025 75.8288 26.8261C76.0172 26.8261 76.1938 26.8025 76.3587 26.7554C76.5235 26.7083 76.6413 26.6259 76.712 26.5082ZM76.4647 29.3342C75.9937 29.3342 75.5815 29.2283 75.2283 29.0163C74.8985 28.7808 74.5571 28.5217 74.2038 28.2391C73.8741 27.9565 73.5208 27.6975 73.144 27.462C72.7908 27.2029 72.3551 27.0498 71.837 27.0027C71.625 27.2853 71.3777 27.5562 71.0951 27.8152C70.8125 28.0507 70.5652 28.3098 70.3533 28.5924C70.1413 28.875 69.9882 29.1812 69.894 29.5109C69.8234 29.8406 69.8822 30.2174 70.0707 30.6413C69.529 30.9004 69.1639 31.2772 68.9755 31.7717C68.7871 32.2428 68.6576 32.7609 68.587 33.3261C68.5399 33.8913 68.4928 34.4565 68.4457 35.0217C68.3985 35.587 68.2455 36.0933 67.9864 36.5408L68.7636 36.0109C68.8578 36.058 68.9284 36.1286 68.9755 36.2228C69.0462 36.317 69.058 36.423 69.0109 36.5408C69.1993 36.3524 69.4112 36.2111 69.6467 36.1168C69.8822 35.9991 70.1178 35.9167 70.3533 35.8696C70.6123 35.7989 70.8596 35.74 71.0951 35.6929C71.3542 35.6458 71.6014 35.5752 71.837 35.481C72.4257 35.8107 72.8496 35.8813 73.1087 35.6929C73.3678 35.5045 73.5797 35.2219 73.7446 34.8451C73.9094 34.4683 74.086 34.0797 74.2745 33.6793C74.4629 33.2554 74.769 32.9964 75.1929 32.9022L74.9457 32.6549C75.346 32.1603 75.6993 31.654 76.0054 31.1359C76.3351 30.5942 76.4882 29.9937 76.4647 29.3342ZM109.247 25.413C109.271 25.7663 109.2 26.1078 109.035 26.4375C108.894 26.7672 108.764 27.0616 108.647 27.3207L107.516 28.5217L106.845 30.5353C106.586 30.7237 106.303 30.9121 105.997 31.1005C105.715 31.2654 105.456 31.442 105.22 31.6304C104.961 31.8424 104.726 32.0779 104.514 32.337C104.325 32.596 104.113 32.8197 103.878 33.0082C103.642 33.1966 103.36 33.3614 103.03 33.5027C102.724 33.6205 102.441 33.7618 102.182 33.9266C101.711 34.2092 101.264 34.5036 100.84 34.8098C100.439 35.1159 100.015 35.4103 99.5679 35.6929C99.4502 35.74 99.356 35.7989 99.2853 35.8696C99.2382 35.9167 99.1558 35.9638 99.038 36.0109C98.9674 36.058 98.6612 36.1522 98.1196 36.2935C97.5779 36.4348 96.9774 36.5996 96.3179 36.788C95.6821 36.9529 95.0815 37.106 94.5163 37.2473C93.9511 37.3886 93.6332 37.4592 93.5625 37.4592C93.1386 37.5063 92.7029 37.5299 92.2554 37.5299C91.808 37.5299 91.3605 37.5417 90.913 37.5652L90.3832 37.8832C90.1241 37.6947 89.8415 37.5181 89.5353 37.3533C89.2292 37.1884 88.9701 37.0118 88.7582 36.8234C88.5226 36.6114 88.2871 36.3759 88.0516 36.1168C87.8161 35.8342 87.6042 35.5752 87.4158 35.3397C87.298 35.01 87.1803 34.692 87.0625 34.3859C86.9447 34.0562 86.8505 33.7382 86.7799 33.4321L86.6033 32.0897C86.5562 31.6422 86.5091 31.2065 86.462 30.7826C86.4384 30.3587 86.4031 29.923 86.356 29.4755C86.7563 28.3687 87.1096 27.2618 87.4158 26.1549C87.7455 25.0245 88.1458 23.9176 88.6168 22.8342C88.7346 22.5752 88.8406 22.3161 88.9348 22.0571C89.0525 21.7745 89.1703 21.5036 89.288 21.2446C89.4293 20.962 89.5824 20.7029 89.7473 20.4674C89.9121 20.2083 90.0534 19.9493 90.1712 19.6902C90.2889 19.4076 90.3832 19.125 90.4538 18.8424C90.5245 18.5362 90.6187 18.2536 90.7364 17.9946C90.8071 17.8533 90.9248 17.6531 91.0897 17.394C91.2545 17.1114 91.4312 16.8288 91.6196 16.5462C91.808 16.24 91.9846 15.9457 92.1495 15.663C92.3379 15.3804 92.4909 15.1567 92.6087 14.9918C92.7971 14.7563 92.9855 14.5326 93.1739 14.3207C93.3623 14.1087 93.5154 13.8732 93.6332 13.6141C93.8687 13.2138 94.0924 12.7074 94.3043 12.0951C94.5163 11.4828 94.7518 10.9411 95.0109 10.4701C95.2935 9.95199 95.6232 9.4692 96 9.02174C96.4004 8.55073 96.7654 8.06794 97.0951 7.57337C97.4484 7.07881 97.7899 6.53714 98.1196 5.94837L99.6739 4.81794L100.38 5.52446L102.076 5.24185L103.136 6.83152C103.089 7.18478 103.03 7.58515 102.959 8.03261C102.912 8.48007 102.865 8.93931 102.818 9.41033C102.794 9.85779 102.771 10.3053 102.747 10.7527C102.747 11.1766 102.771 11.5534 102.818 11.8832C102.7 12.3071 102.524 12.7545 102.288 13.2255C102.076 13.673 101.829 14.0616 101.546 14.3913L101.405 16.2989L99.9918 17.5707L99.8152 19.3723L98.6141 20.7853C98.5435 21.115 98.4728 21.4565 98.4022 21.8098C98.3315 22.1395 98.2373 22.4574 98.1196 22.7636C98.0018 23.0462 97.8605 23.3406 97.6957 23.6467C97.5308 23.9293 97.3659 24.2237 97.2011 24.5299C96.7301 24.9303 96.2473 25.3777 95.7527 25.8723C95.2582 26.3668 94.8107 26.8614 94.4103 27.356C94.1984 27.615 93.9982 27.8976 93.8098 28.2038C93.6449 28.4864 93.4683 28.7572 93.2799 29.0163C92.6676 29.7935 92.0082 30.5236 91.3016 31.2065C90.5951 31.8895 89.9004 32.596 89.2174 33.3261L89.9946 34.7038C90.4891 34.8687 90.9955 35.0217 91.5136 35.163C92.0317 35.3043 92.5498 35.4339 93.0679 35.5516C93.3034 35.5045 93.5743 35.4574 93.8804 35.4103C94.1866 35.3397 94.5045 35.269 94.8342 35.1984C95.1639 35.1042 95.4819 35.01 95.788 34.9158C96.1178 34.8216 96.3886 34.7274 96.6005 34.6332C97.0716 34.4447 97.6132 34.1739 98.2255 33.8207C98.8379 33.4438 99.356 33.1141 99.7799 32.8315C100.534 32.3605 101.299 31.8777 102.076 31.3832C102.853 30.8886 103.595 30.3705 104.302 29.8288C104.773 29.4755 105.267 29.0281 105.785 28.4864C106.303 27.9447 106.786 27.4384 107.234 26.9674C107.705 26.4728 108.117 26.0725 108.47 25.7663C108.847 25.4601 109.106 25.3424 109.247 25.413ZM99.6386 8.70381C99.144 9.52808 98.6141 10.3288 98.0489 11.106C97.5072 11.8596 97.0009 12.6486 96.5299 13.4728C96.365 13.7554 96.2237 14.0498 96.106 14.356C95.9882 14.6386 95.8351 14.9212 95.6467 15.2038C95.4819 15.4629 95.3053 15.7219 95.1168 15.981C94.9284 16.24 94.7636 16.5226 94.6223 16.8288C94.3397 17.3705 94.0806 17.9475 93.8451 18.5598C93.6332 19.1486 93.3976 19.7255 93.1386 20.2908C92.856 20.856 92.5263 21.3859 92.1495 21.8804C91.7726 22.375 91.4312 22.9049 91.125 23.4701L90.5598 24.6005C90.5127 24.7183 90.4656 24.8125 90.4185 24.8832C90.3714 24.9303 90.3243 25.0127 90.2772 25.1304C90.183 25.3895 90.1359 25.6721 90.1359 25.9783C90.1359 26.2844 90.1005 26.567 90.0299 26.8261C89.9592 27.1087 89.8533 27.3795 89.712 27.6386C89.5707 27.8976 89.4411 28.1567 89.3234 28.4158C89.2056 28.6748 89.1114 28.9457 89.0408 29.2283C88.9701 29.4873 88.8877 29.7464 88.7935 30.0054C88.9819 29.817 89.1821 29.6522 89.394 29.5109C89.6295 29.346 89.8533 29.1694 90.0652 28.981C90.2772 28.769 90.4774 28.5453 90.6658 28.3098C90.8542 28.0743 91.0661 27.8623 91.3016 27.6739C91.5136 27.4855 91.7373 27.3207 91.9728 27.1793C92.2319 27.0145 92.4792 26.8496 92.7147 26.6848C93.0915 26.1667 93.4212 25.6368 93.7038 25.0951C93.8451 24.8361 93.9629 24.5417 94.0571 24.212C94.1748 23.8822 94.3161 23.5879 94.481 23.3288C94.6223 23.0697 94.7989 22.8225 95.0109 22.587C95.2464 22.3514 95.4466 22.1042 95.6114 21.8451C95.7998 21.5861 95.9529 21.3152 96.0707 21.0326C96.212 20.75 96.365 20.4792 96.5299 20.2201C96.8596 19.702 97.2246 19.2074 97.625 18.7364L97.8016 16.5109L99.0734 15.0272L99.25 13.6848L100.133 12.4484L100.239 10.4701L99.6386 8.70381ZM131.114 26.1902C130.902 26.4022 130.737 26.567 130.62 26.6848C130.525 26.8025 130.431 26.9203 130.337 27.038C130.266 27.1322 130.172 27.2382 130.054 27.356C129.96 27.4737 129.807 27.6504 129.595 27.8859C129.407 28.0743 129.23 28.2745 129.065 28.4864C128.9 28.6984 128.712 28.8868 128.5 29.0516C128.217 28.981 127.994 29.0163 127.829 29.1576C127.687 29.2989 127.546 29.4638 127.405 29.6522C127.287 29.817 127.169 29.9819 127.052 30.1467C126.957 30.288 126.828 30.3469 126.663 30.3234C126.098 30.6295 125.533 30.9004 124.967 31.1359C124.402 31.3478 123.861 31.6658 123.342 32.0897L123.06 31.8071L119.386 33.5734C119.268 33.6205 119.15 33.6911 119.033 33.7853C118.915 33.8795 118.797 33.962 118.679 34.0326C118.161 34.3152 117.62 34.5743 117.054 34.8098C116.513 35.0217 115.971 35.2219 115.429 35.4103L114.97 35.5516C115.159 36.0226 115.159 36.3524 114.97 36.5408C114.782 36.7292 114.511 36.8705 114.158 36.9647C113.804 37.0353 113.416 37.0824 112.992 37.106C112.568 37.1295 112.238 37.212 112.003 37.3533C111.72 37.3062 111.426 37.2826 111.12 37.2826C110.837 37.3062 110.543 37.3415 110.236 37.3886C109.907 37.4357 109.601 37.4592 109.318 37.4592C109.035 37.4592 108.729 37.4239 108.399 37.3533H108.329C107.928 37.5417 107.575 37.577 107.269 37.4592C106.986 37.365 106.727 37.2002 106.492 36.9647C106.256 36.7056 106.033 36.4112 105.821 36.0815C105.632 35.7283 105.432 35.4103 105.22 35.1277C105.079 34.9393 104.902 34.6685 104.69 34.3152C104.478 33.962 104.302 33.5851 104.16 33.1848C103.995 32.7844 103.901 32.3841 103.878 31.9837C103.831 31.5598 103.913 31.1947 104.125 30.8886C104.337 30.5824 104.514 30.2527 104.655 29.8995C104.773 29.5462 104.832 29.1341 104.832 28.663C104.832 28.4982 104.832 28.3451 104.832 28.2038C104.808 28.0625 104.796 27.9094 104.796 27.7446C104.914 27.7446 105.043 27.7563 105.185 27.7799C105.326 27.7799 105.456 27.7799 105.573 27.7799C105.715 27.7563 105.821 27.7092 105.891 27.6386C105.986 27.5444 106.033 27.3913 106.033 27.1793C106.033 27.0616 105.986 26.9674 105.891 26.8967C105.821 26.8261 105.774 26.7554 105.75 26.6848C105.891 26.4728 106.021 26.308 106.139 26.1902C106.28 26.0489 106.398 25.9194 106.492 25.8016C106.586 25.6603 106.657 25.5072 106.704 25.3424C106.751 25.154 106.739 24.9067 106.668 24.6005C106.951 24.106 107.281 23.6703 107.658 23.2935C108.058 22.8931 108.47 22.5281 108.894 22.1984C109.318 21.8451 109.754 21.5036 110.201 21.1739C110.649 20.8442 111.072 20.4909 111.473 20.1141C111.92 20.3025 112.274 20.3025 112.533 20.1141C112.815 19.9257 113.062 19.7255 113.274 19.5136C113.486 19.2781 113.698 19.0897 113.91 18.9484C114.122 18.8071 114.405 18.8659 114.758 19.125L114.829 19.1957C115.465 18.5598 116.101 18.2772 116.736 18.3478C117.396 18.4185 117.949 18.6304 118.397 18.9837C118.868 19.337 119.174 19.7491 119.315 20.2201C119.457 20.6676 119.327 20.9737 118.927 21.1386C119.186 21.3976 119.315 21.7038 119.315 22.0571C119.315 22.4103 119.221 22.7165 119.033 22.9755C118.821 23.2582 118.632 23.5525 118.467 23.8587C118.326 24.1413 118.173 24.4475 118.008 24.7772C117.773 25.3188 117.514 25.837 117.231 26.3315C116.948 26.8025 116.548 27.2029 116.03 27.5326C115.606 27.4149 115.312 27.462 115.147 27.6739C115.005 27.8859 114.899 28.1214 114.829 28.3804C114.758 28.6159 114.676 28.8043 114.582 28.9457C114.487 29.087 114.287 29.0399 113.981 28.8043L113.91 28.7337L113.84 28.8043C113.651 28.9928 113.498 29.2047 113.38 29.4402C113.286 29.6757 113.145 29.8524 112.957 29.9701C112.745 29.8995 112.521 29.8406 112.285 29.7935C112.05 29.7464 111.826 29.6993 111.614 29.6522C111.614 30.1467 111.52 30.5353 111.332 30.8179C111.143 31.1005 110.896 31.3361 110.59 31.5245C110.307 31.6893 109.977 31.8306 109.601 31.9484C109.224 32.0426 108.847 32.1721 108.47 32.337C108.117 32.4783 107.775 32.6667 107.446 32.9022C107.139 33.1141 106.892 33.4203 106.704 33.8207C106.939 34.0797 107.234 34.2328 107.587 34.2799C107.94 34.3034 108.305 34.3034 108.682 34.2799C109.059 34.2328 109.424 34.2092 109.777 34.2092C110.154 34.2092 110.484 34.3034 110.766 34.4918L110.802 34.5272L110.837 34.4918C111.402 34.4212 111.944 34.2917 112.462 34.1033C113.004 33.8913 113.522 33.6793 114.016 33.4674C114.534 33.2319 115.053 33.0199 115.571 32.8315C116.112 32.6196 116.666 32.4665 117.231 32.3723C117.349 32.5607 117.502 32.6667 117.69 32.6902C117.902 32.7138 118.102 32.702 118.291 32.6549L118.326 32.5842C118.373 32.4194 118.42 32.2781 118.467 32.1603C118.514 32.019 118.585 31.8659 118.679 31.7011C118.844 31.442 119.044 31.2418 119.28 31.1005C119.515 30.9592 119.763 30.8533 120.022 30.7826C120.304 30.712 120.599 30.6649 120.905 30.6413C121.211 30.6178 121.517 30.5824 121.823 30.5353H121.894L121.929 30.4293C122.024 30.1467 122.141 29.9583 122.283 29.8641C122.447 29.7464 122.612 29.6639 122.777 29.6168C122.966 29.5697 123.154 29.5344 123.342 29.5109C123.554 29.4873 123.755 29.4167 123.943 29.2989C124.367 29.4402 124.72 29.3931 125.003 29.1576C125.285 28.9221 125.556 28.6748 125.815 28.4158L126.098 28.769L126.204 28.6277C126.557 28.298 126.816 28.0507 126.981 27.8859C127.169 27.721 127.346 27.5797 127.511 27.462C127.676 27.3207 127.864 27.1911 128.076 27.0734C128.312 26.9321 128.63 26.7319 129.03 26.4728C129.36 26.2609 129.678 26.0489 129.984 25.837C130.313 25.625 130.631 25.3895 130.937 25.1304C131.055 25.1775 131.114 25.2717 131.114 25.413C131.114 25.5308 131.114 25.6486 131.114 25.7663C131.091 25.8134 131.067 25.8841 131.043 25.9783C131.043 26.0725 131.067 26.1431 131.114 26.1902ZM116.489 21.7745C116.466 21.7509 116.442 21.7391 116.418 21.7391C116.418 21.7391 116.407 21.7274 116.383 21.7038C115.889 21.4447 115.476 21.327 115.147 21.3505C114.817 21.3505 114.511 21.4447 114.228 21.6332C113.969 21.798 113.722 22.0217 113.486 22.3043C113.274 22.5634 113.039 22.8107 112.78 23.0462C112.544 23.2582 112.262 23.423 111.932 23.5408C111.602 23.6585 111.202 23.6467 110.731 23.5054C110.66 23.8822 110.59 24.2591 110.519 24.6359C110.472 24.9891 110.437 25.3542 110.413 25.731C110.013 25.8723 109.695 26.0725 109.459 26.3315C109.247 26.5906 109.059 26.8732 108.894 27.1793C108.753 27.4855 108.611 27.8152 108.47 28.1685C108.352 28.4982 108.187 28.8161 107.976 29.1223L108.117 29.2989C108.211 29.2518 108.317 29.2871 108.435 29.4049C108.553 29.5226 108.635 29.6051 108.682 29.6522C108.941 29.2754 109.283 28.9574 109.707 28.6984C110.154 28.4393 110.601 28.2038 111.049 27.9918C111.52 27.7563 111.967 27.5091 112.391 27.25C112.815 26.9909 113.133 26.6495 113.345 26.2255C114.099 26.0136 114.664 25.5897 115.041 24.9538C115.418 24.3179 115.736 23.6585 115.995 22.9755C116.042 22.8342 116.124 22.6341 116.242 22.375C116.383 22.0924 116.466 21.8922 116.489 21.7745ZM172.375 24.3179C172.375 24.7889 172.116 25.3306 171.598 25.9429C171.103 26.5317 170.467 27.1558 169.69 27.8152C168.913 28.4511 168.042 29.0987 167.076 29.7582C166.134 30.394 165.192 30.9946 164.25 31.5598C163.332 32.125 162.472 32.6313 161.671 33.0788C160.894 33.5027 160.282 33.8324 159.834 34.0679C159.34 34.327 158.833 34.5625 158.315 34.7745C157.797 34.9864 157.303 35.2337 156.832 35.5163C156.596 35.6341 156.384 35.7754 156.196 35.9402C156.007 36.0815 155.819 36.2228 155.63 36.3641C155.23 36.6467 154.853 36.8234 154.5 36.894C154.147 36.9647 153.829 37.0471 153.546 37.1413C153.287 37.2355 153.087 37.4004 152.946 37.6359C152.804 37.8949 152.734 38.3188 152.734 38.9076C152.121 38.9076 151.521 38.8487 150.932 38.731C150.343 38.6368 149.755 38.5897 149.166 38.5897C148.789 38.5897 148.424 38.6368 148.071 38.731C147.741 38.8487 147.399 38.9665 147.046 39.0842C146.716 39.202 146.375 39.308 146.022 39.4022C145.692 39.5199 145.339 39.5788 144.962 39.5788H143.372C143.207 39.3433 143.031 39.1549 142.842 39.0136C142.654 38.8723 142.454 38.7428 142.242 38.625C142.053 38.5308 141.853 38.4366 141.641 38.3424C141.453 38.2482 141.264 38.1187 141.076 37.9538C140.817 37.6947 140.546 37.3886 140.264 37.0353C139.981 36.6821 139.71 36.3406 139.451 36.0109C138.98 35.4457 138.591 34.8098 138.285 34.1033C137.956 33.3967 137.697 32.6667 137.508 31.913C137.296 31.1359 137.143 30.3587 137.049 29.5815C136.955 28.7808 136.908 28.0272 136.908 27.3207C136.908 27.1558 136.978 26.8496 137.12 26.4022C137.237 25.9312 137.39 25.4366 137.579 24.9185C137.744 24.4004 137.92 23.9058 138.109 23.4348C138.297 22.9638 138.438 22.6341 138.533 22.4457C138.533 22.375 138.627 22.1984 138.815 21.9158C138.98 21.6096 139.192 21.2563 139.451 20.856C139.71 20.4556 139.993 20.0199 140.299 19.5489C140.605 19.0543 140.899 18.5951 141.182 18.1712C141.465 17.7473 141.712 17.3705 141.924 17.0408C142.136 16.6875 142.289 16.4402 142.383 16.2989C142.524 16.087 142.772 15.7337 143.125 15.2391C143.502 14.7446 143.937 14.1911 144.432 13.5788C144.927 12.9665 145.457 12.3424 146.022 11.7065C146.587 11.0707 147.129 10.5054 147.647 10.0109C148.188 9.49275 148.671 9.10417 149.095 8.84511C149.543 8.5625 149.884 8.4683 150.12 8.5625C151.109 7.24366 152.357 6.27808 153.864 5.66576C155.371 5.02989 156.926 4.71196 158.527 4.71196C159.069 4.71196 159.611 4.68841 160.152 4.64131C160.717 4.57065 161.259 4.70018 161.777 5.02989C162.013 5.45381 162.26 6.01902 162.519 6.72554C162.802 7.43207 163.049 8.18569 163.261 8.98641C163.496 9.76359 163.685 10.529 163.826 11.2826C163.967 12.0127 164.038 12.6132 164.038 13.0842C164.038 13.6495 163.909 14.1793 163.649 14.6739C163.414 15.1685 163.12 15.6513 162.766 16.1223C162.413 16.5933 162.048 17.0643 161.671 17.5353C161.318 17.9828 161.024 18.442 160.788 18.913C160.6 19.2899 160.364 19.8197 160.082 20.5027C159.822 21.1857 159.516 21.8687 159.163 22.5516C158.81 23.2111 158.421 23.788 157.997 24.2826C157.573 24.7772 157.114 25.0245 156.62 25.0245C156.361 25.0245 156.078 24.8714 155.772 24.5652C155.466 24.2591 155.312 23.9764 155.312 23.7174C155.312 22.7518 155.466 21.8333 155.772 20.962C156.078 20.0906 156.455 19.2545 156.902 18.4538C157.35 17.6295 157.844 16.8288 158.386 16.0516C158.928 15.2509 159.422 14.4502 159.87 13.6495C160.317 12.8487 160.694 12.0362 161 11.212C161.306 10.3641 161.459 9.48098 161.459 8.5625C161.459 8.23279 161.424 7.87953 161.353 7.50272C161.306 7.10236 161.118 6.80797 160.788 6.61957H159.163C158.551 6.61957 157.903 6.66667 157.22 6.76087C156.537 6.83152 155.96 7.10236 155.489 7.57337C155.301 7.76178 155.112 7.97373 154.924 8.20924C154.759 8.4212 154.582 8.62138 154.394 8.80978C154.347 8.85688 154.276 8.93931 154.182 9.05707C154.088 9.15127 153.982 9.25725 153.864 9.375C153.77 9.49275 153.664 9.59873 153.546 9.69294C153.452 9.78714 153.381 9.84602 153.334 9.86957C153.24 9.91667 153.134 9.96377 153.016 10.0109C152.922 10.058 152.828 10.1051 152.734 10.1522C152.545 10.2464 152.357 10.3406 152.168 10.4348C151.98 10.5054 151.792 10.5996 151.603 10.7174C151.109 11.0471 150.661 11.4357 150.261 11.8832C149.884 12.3306 149.507 12.7899 149.13 13.2609C148.777 13.7319 148.4 14.1793 148 14.6033C147.6 15.0272 147.129 15.3804 146.587 15.663C145.975 16.6757 145.292 17.7473 144.538 18.8777C143.808 19.9846 143.113 21.1268 142.454 22.3043C141.794 23.4819 141.241 24.683 140.793 25.9076C140.346 27.1322 140.122 28.3451 140.122 29.5462C140.122 30.0408 140.169 30.6178 140.264 31.2772C140.358 31.913 140.523 32.5371 140.758 33.1495C140.994 33.7618 141.288 34.3034 141.641 34.7745C142.018 35.2455 142.489 35.5516 143.054 35.6929C143.219 35.74 143.384 35.7636 143.549 35.7636C143.737 35.74 143.914 35.7283 144.079 35.7283C144.244 35.7283 144.397 35.74 144.538 35.7636C144.703 35.7871 144.844 35.8696 144.962 36.0109H146.905C147.352 36.0109 147.764 35.9755 148.141 35.9049C148.518 35.8342 148.883 35.74 149.236 35.6223C149.59 35.481 149.943 35.3397 150.296 35.1984C150.649 35.0335 151.026 34.8687 151.427 34.7038C151.662 34.6332 151.874 34.5625 152.062 34.4918C152.251 34.4212 152.451 34.3505 152.663 34.2799C153.181 34.1386 153.687 34.0208 154.182 33.9266C154.677 33.8324 155.159 33.6676 155.63 33.4321C156.196 33.1495 156.726 32.8315 157.22 32.4783C157.738 32.125 158.28 31.7953 158.845 31.4891C159.01 31.4185 159.21 31.3714 159.446 31.3478C159.705 31.3243 159.964 31.3125 160.223 31.3125C160.482 31.2889 160.717 31.2654 160.929 31.2418C161.165 31.2183 161.33 31.1594 161.424 31.0652C161.636 30.8533 161.836 30.6413 162.024 30.4293C162.236 30.1938 162.46 29.9701 162.696 29.7582C163.096 29.6875 163.473 29.5344 163.826 29.2989C164.179 29.0634 164.556 28.9103 164.957 28.8397C165.074 28.7926 165.18 28.7455 165.274 28.6984C165.392 28.6277 165.51 28.5571 165.628 28.4864C165.957 28.298 166.275 28.0978 166.582 27.8859C166.888 27.6739 167.194 27.4737 167.5 27.2853C169.007 26.2726 170.526 25.2835 172.057 24.3179H172.375ZM192.193 33.2908C191.863 33.856 191.604 34.3152 191.416 34.6685C191.251 34.9982 191.074 35.2808 190.886 35.5163C190.721 35.7283 190.521 35.9284 190.285 36.1168C190.073 36.2817 189.767 36.4937 189.367 36.7527C189.108 36.9882 188.849 37.1884 188.59 37.3533C188.378 37.5181 188.166 37.6594 187.954 37.7772C187.765 37.8949 187.612 37.9538 187.495 37.9538C187.447 37.9538 187.4 37.942 187.353 37.9185C187.306 37.9185 187.259 37.9185 187.212 37.9185C187.071 37.9185 186.929 37.9185 186.788 37.9185C186.67 37.942 186.564 37.8596 186.47 37.6712C186.399 37.7418 186.341 37.8243 186.293 37.9185C186.246 38.0127 186.199 38.0951 186.152 38.1658C186.105 38.26 186.034 38.3306 185.94 38.3777C185.87 38.4248 185.764 38.4248 185.622 38.3777L185.446 38.1658L184.916 38.625C184.256 38.2953 183.62 38.0127 183.008 37.7772C182.419 37.5652 181.889 37.3062 181.418 37C180.947 36.6938 180.547 36.3053 180.217 35.8342C179.888 35.3397 179.652 34.6685 179.511 33.8207C179.393 33.6793 179.264 33.5616 179.122 33.4674C178.981 33.3496 178.816 33.3143 178.628 33.3614C178.392 33.7618 178.11 34.1033 177.78 34.3859C177.45 34.6685 177.12 34.9746 176.791 35.3043C176.673 35.4221 176.579 35.5516 176.508 35.6929C176.437 35.8342 176.343 35.9638 176.226 36.0815C176.037 36.2935 175.813 36.4466 175.554 36.5408C175.295 36.6114 175.036 36.6821 174.777 36.7527C174.518 36.8234 174.271 36.9411 174.035 37.106C173.823 37.2708 173.67 37.5534 173.576 37.9538C173.293 37.7889 173.011 37.7418 172.728 37.8125C172.516 37.8596 172.293 37.9067 172.057 37.9538C171.822 38.0245 171.586 38.0598 171.351 38.0598C171.139 38.0833 170.927 38.0598 170.715 37.9891C170.503 37.9185 170.314 37.7654 170.149 37.5299C169.82 37.6712 169.514 37.6594 169.231 37.4946C168.948 37.3533 168.678 37.1531 168.418 36.894C168.183 36.6114 167.947 36.317 167.712 36.0109C167.476 35.7047 167.253 35.481 167.041 35.3397C166.899 34.9629 166.911 34.6449 167.076 34.3859C167.217 34.1033 167.382 33.8442 167.571 33.6087C167.735 33.3496 167.853 33.1024 167.924 32.8668C167.995 32.6078 167.889 32.3016 167.606 31.9484C167.841 31.5951 168.053 31.2301 168.242 30.8533C168.43 30.4529 168.619 30.0643 168.807 29.6875C169.019 29.2871 169.231 28.9103 169.443 28.5571C169.678 28.1803 169.961 27.8623 170.291 27.6033C170.149 27.4384 170.079 27.2853 170.079 27.144C170.079 26.9792 170.114 26.8261 170.185 26.6848C170.255 26.5199 170.338 26.3668 170.432 26.2255C170.526 26.0607 170.597 25.9076 170.644 25.7663L171.668 25.2717L171.421 24.4239C171.68 24.471 171.869 24.4592 171.986 24.3886C172.128 24.3179 172.222 24.212 172.269 24.0707C172.34 23.9293 172.387 23.7763 172.41 23.6114C172.457 23.423 172.516 23.2582 172.587 23.1168C172.705 22.9049 172.881 22.7518 173.117 22.6576C173.611 22.2808 174.094 21.8804 174.565 21.4565C175.06 21.0326 175.543 20.6205 176.014 20.2201C176.508 19.8197 177.014 19.4429 177.533 19.0897C178.051 18.7129 178.616 18.3949 179.228 18.1359C179.652 18.2065 179.982 18.3361 180.217 18.5245C180.476 18.7129 180.665 18.9366 180.783 19.1957C180.924 19.4547 181.03 19.7491 181.101 20.0788C181.171 20.385 181.242 20.6911 181.312 20.9973C181.43 21.3976 181.572 21.7391 181.736 22.0217C181.901 22.3043 182.184 22.5399 182.584 22.7283C182.255 23.2935 182.125 23.8587 182.196 24.4239C182.266 24.9656 182.337 25.5426 182.408 26.1549C182.478 26.7201 182.466 27.2736 182.372 27.8152C182.302 28.3569 181.96 28.8397 181.348 29.2636C181.301 29.4284 181.289 29.6051 181.312 29.7935C181.336 29.9819 181.348 30.1703 181.348 30.3587C181.348 30.5471 181.312 30.7237 181.242 30.8886C181.171 31.0534 181.042 31.183 180.853 31.2772C181.065 31.5362 181.171 31.7953 181.171 32.0543C181.195 32.3134 181.207 32.5607 181.207 32.7962C181.23 33.0317 181.289 33.2437 181.383 33.4321C181.501 33.6205 181.76 33.7618 182.16 33.856C182.231 34.1621 182.29 34.3976 182.337 34.5625C182.408 34.7038 182.478 34.8216 182.549 34.9158C182.643 35.01 182.761 35.1042 182.902 35.1984C183.043 35.269 183.232 35.3868 183.467 35.5516C183.656 35.5987 183.868 35.5987 184.103 35.5516C184.339 35.5045 184.527 35.5752 184.668 35.7636C184.786 35.6458 184.928 35.587 185.092 35.587C185.257 35.5634 185.41 35.5634 185.552 35.587L186.011 36.3641C186.27 36.1757 186.564 36.0109 186.894 35.8696C187.224 35.7283 187.542 35.6105 187.848 35.5163C188.201 35.4221 188.554 35.3397 188.908 35.269L192.193 33.2908ZM178.628 21.2092C178.416 21.3976 178.157 21.5861 177.851 21.7745C177.544 21.9629 177.238 22.163 176.932 22.375C176.649 22.587 176.402 22.8225 176.19 23.0815C175.978 23.317 175.849 23.5996 175.802 23.9293C175.26 24.0236 174.883 24.2473 174.671 24.6005C174.459 24.9538 174.283 25.3424 174.141 25.7663C174 26.1902 173.847 26.6141 173.682 27.038C173.517 27.4384 173.223 27.7563 172.799 27.9918C172.658 28.0861 172.528 28.1332 172.41 28.1332C172.434 28.1332 172.363 28.1803 172.198 28.2745C171.939 28.4629 171.716 28.6984 171.527 28.981C171.339 29.2636 171.174 29.5697 171.033 29.8995C170.915 30.2292 170.797 30.5707 170.679 30.9239C170.585 31.2536 170.491 31.5598 170.397 31.8424C170.067 31.8895 169.82 31.9601 169.655 32.0543C169.49 32.1486 169.384 32.2545 169.337 32.3723C169.313 32.4665 169.325 32.5842 169.372 32.7255C169.419 32.8668 169.49 33.0199 169.584 33.1848C169.678 33.3261 169.773 33.4909 169.867 33.6793C169.985 33.8678 170.079 34.0562 170.149 34.2446C170.22 34.433 170.255 34.6214 170.255 34.8098C170.279 34.9982 170.232 35.1748 170.114 35.3397C170.444 35.5987 170.762 35.6576 171.068 35.5163C171.374 35.3514 171.657 35.1748 171.916 34.9864C172.01 34.9158 172.104 34.8451 172.198 34.7745C172.316 34.6803 172.434 34.6096 172.552 34.5625C173.093 34.6803 173.588 34.6449 174.035 34.4565C174.483 34.2681 174.895 34.0091 175.272 33.6793C175.649 33.3496 176.014 32.9964 176.367 32.6196C176.72 32.2428 177.073 31.913 177.427 31.6304L177.144 31.3478C177.568 31.2301 177.862 31.077 178.027 30.8886C178.216 30.6766 178.333 30.4411 178.38 30.1821C178.428 29.923 178.428 29.6522 178.38 29.3696C178.333 29.0634 178.298 28.7455 178.274 28.4158C178.251 28.2274 178.239 28.0507 178.239 27.8859C178.263 27.6975 178.31 27.5091 178.38 27.3207C178.192 26.779 178.157 26.2609 178.274 25.7663C178.416 25.2717 178.592 24.8007 178.804 24.3533C179.04 23.8822 179.264 23.4112 179.476 22.9402C179.687 22.4692 179.793 21.9746 179.793 21.4565L178.628 21.2092ZM216.25 30.0054C215.708 30.2645 215.343 30.5824 215.155 30.9592C214.966 31.3361 214.813 31.7246 214.696 32.125C214.601 32.5254 214.472 32.9139 214.307 33.2908C214.166 33.644 213.848 33.9384 213.353 34.1739C213.236 34.5978 213 34.8922 212.647 35.0571C212.317 35.2219 211.964 35.375 211.587 35.5163C211.21 35.6341 210.869 35.7989 210.562 36.0109C210.28 36.2228 210.139 36.5879 210.139 37.106C209.668 37.365 209.149 37.6005 208.584 37.8125C208.043 38.0245 207.466 38.1775 206.853 38.2717C206.264 38.3895 205.676 38.4366 205.087 38.413C204.498 38.3895 203.945 38.2717 203.427 38.0598C203.073 37.8949 202.732 37.683 202.402 37.4239C202.284 37.3297 202.167 37.2473 202.049 37.1766C201.955 37.1295 201.849 37.0471 201.731 36.9293C201.448 36.6467 201.213 36.317 201.024 35.9402C200.836 35.5634 200.683 35.163 200.565 34.7391C200.447 34.3152 200.353 33.8913 200.283 33.4674C200.212 33.0435 200.153 32.6431 200.106 32.2663L201.413 28.7337C200.73 28.192 200.177 27.5679 199.753 26.8614C199.329 26.1313 198.811 25.4601 198.198 24.8478C198.081 25.0127 197.928 25.154 197.739 25.2717C197.551 25.3895 197.48 25.5779 197.527 25.837L197.88 26.1549C197.103 27.0027 196.314 27.9683 195.514 29.0516C194.736 30.1114 194.124 31.183 193.677 32.2663C193.159 32.2428 192.793 32.3723 192.582 32.6549C192.37 32.9139 192.193 33.2201 192.052 33.5734C191.91 33.9031 191.734 34.2092 191.522 34.4918C191.31 34.7745 190.957 34.8922 190.462 34.8451C190.344 35.1042 190.226 35.3868 190.109 35.6929C189.991 35.9755 189.85 36.2464 189.685 36.5054C189.52 36.7645 189.32 36.9764 189.084 37.1413C188.849 37.3297 188.554 37.4239 188.201 37.4239C188.013 37.2355 187.907 37.0353 187.883 36.8234C187.86 36.6114 187.883 36.3995 187.954 36.1875C188.024 35.952 188.119 35.7283 188.236 35.5163C188.354 35.2808 188.437 35.0571 188.484 34.8451C188.672 34.1621 189.014 33.5498 189.508 33.0082C190.003 32.4429 190.497 31.8895 190.992 31.3478C191.486 30.7826 191.91 30.1938 192.264 29.5815C192.617 28.9692 192.758 28.2509 192.687 27.4266C192.994 27.4031 193.3 27.3442 193.606 27.25C193.936 27.1322 194.23 26.9909 194.489 26.8261C194.772 26.6377 194.984 26.4139 195.125 26.1549C195.29 25.8723 195.349 25.5426 195.302 25.1658C195.113 25.0716 195.007 24.942 194.984 24.7772C194.96 24.5888 194.96 24.4004 194.984 24.212C195.502 24.0471 195.914 23.7645 196.22 23.3641C196.55 22.9402 196.844 22.4928 197.103 22.0217C197.362 21.5507 197.61 21.0797 197.845 20.6087C198.104 20.1141 198.434 19.6902 198.834 19.337C199.164 19.5254 199.494 19.6902 199.823 19.8315C200.153 19.9493 200.471 20.1141 200.777 20.3261C200.565 20.6087 200.436 20.8795 200.389 21.1386C200.341 21.3976 200.318 21.6685 200.318 21.9511C200.318 22.2101 200.318 22.4692 200.318 22.7283C200.318 22.9873 200.247 23.2582 200.106 23.5408C200.483 23.8705 200.801 24.2591 201.06 24.7065C201.319 25.154 201.649 25.5308 202.049 25.837C202.332 25.625 202.649 25.519 203.003 25.519C203.356 25.4955 203.709 25.4955 204.062 25.519C204.439 25.519 204.793 25.4955 205.122 25.4484C205.452 25.3777 205.723 25.1775 205.935 24.8478C206.029 24.942 206.17 24.9891 206.359 24.9891C206.547 24.9891 206.736 24.9891 206.924 24.9891C207.112 24.9891 207.277 25.0245 207.418 25.0951C207.56 25.1422 207.642 25.2482 207.666 25.413C207.689 25.6014 207.678 25.731 207.63 25.8016C207.607 25.8723 207.572 25.99 207.524 26.1549C207.477 26.3433 207.466 26.4375 207.489 26.4375C207.513 26.4375 207.489 26.5199 207.418 26.6848C207.301 26.9909 207.101 27.25 206.818 27.462C206.559 27.6739 206.288 27.8859 206.005 28.0978C205.746 28.2862 205.499 28.51 205.264 28.769C205.052 29.0045 204.946 29.3107 204.946 29.6875C204.428 29.8759 204.062 30.1585 203.851 30.5353C203.639 30.8886 203.497 31.3007 203.427 31.7717C203.356 32.2192 203.309 32.6902 203.285 33.1848C203.262 33.6558 203.179 34.0915 203.038 34.4918L203.356 34.8451L203.639 34.4918C203.968 34.9629 204.357 35.2572 204.804 35.375C205.275 35.4928 205.758 35.5281 206.253 35.481C206.488 35.1277 206.759 34.8451 207.065 34.6332C207.395 34.4212 207.736 34.2446 208.09 34.1033C208.466 33.962 208.843 33.8324 209.22 33.7147C209.62 33.5969 209.997 33.4556 210.351 33.2908C210.633 33.1495 210.869 32.9964 211.057 32.8315C211.269 32.6667 211.493 32.4783 211.728 32.2663C212.435 31.6069 213.13 30.9592 213.812 30.3234C214.519 29.6875 215.226 29.0399 215.932 28.3804C216.073 28.3804 216.168 28.4511 216.215 28.5924C216.262 28.7337 216.285 28.8986 216.285 29.087C216.285 29.2518 216.274 29.4284 216.25 29.6168C216.25 29.7817 216.25 29.9112 216.25 30.0054ZM239.601 11.4592C239.271 11.8125 238.906 12.0009 238.505 12.0245C238.105 12.0245 237.705 11.9891 237.304 11.9185C236.928 11.8478 236.551 11.8243 236.174 11.8478C235.821 11.8478 235.514 12.0362 235.255 12.413C234.879 12.3188 234.49 12.3071 234.09 12.3777C233.689 12.4248 233.277 12.5072 232.853 12.625C232.429 12.7192 232.005 12.8134 231.582 12.9076C231.158 13.0018 230.734 13.0371 230.31 13.0136L229.709 12.413C229.544 12.6721 229.309 12.837 229.003 12.9076C228.72 12.9547 228.437 12.8841 228.155 12.6957C227.66 13.0254 227.166 13.1784 226.671 13.1549C226.177 13.1313 225.694 13.1196 225.223 13.1196C224.752 13.096 224.304 13.1902 223.88 13.4022C223.48 13.5906 223.139 14.0734 222.856 14.8505C222.644 15.3922 222.444 15.9457 222.255 16.5109C222.067 17.0525 221.879 17.5942 221.69 18.1359C221.172 19.5489 220.642 20.9502 220.101 22.3397C219.582 23.7056 218.994 25.0598 218.334 26.4022C218.287 27.462 218.311 28.5335 218.405 29.6168C218.499 30.7002 218.605 31.7717 218.723 32.8315C218.629 33.1141 218.593 33.4085 218.617 33.7147C218.664 34.0208 218.746 34.327 218.864 34.6332C218.982 34.9393 219.123 35.2337 219.288 35.5163C219.453 35.7754 219.63 36.0109 219.818 36.2228L220.454 35.6223L221.337 36.8587C221.572 36.5525 221.843 36.2346 222.149 35.9049C222.479 35.5516 222.821 35.2337 223.174 34.9511C223.527 34.6449 223.892 34.3976 224.269 34.2092C224.669 33.9973 225.07 33.856 225.47 33.7853C225.635 33.6205 225.788 33.4438 225.929 33.2554C226.071 33.067 226.224 32.9139 226.389 32.7962C226.553 32.6549 226.73 32.5607 226.918 32.5136C227.13 32.4429 227.378 32.4547 227.66 32.5489C228.414 32.125 229.085 31.5951 229.674 30.9592C230.263 30.2998 230.851 29.6522 231.44 29.0163C232.029 28.3569 232.641 27.7563 233.277 27.2147C233.937 26.673 234.702 26.2962 235.573 26.0842C235.008 27.4502 234.29 28.7808 233.418 30.0761C232.547 31.3478 231.57 32.49 230.486 33.5027C230.204 33.8324 229.851 34.1268 229.427 34.3859C229.238 34.5036 229.038 34.6332 228.826 34.7745C228.614 34.8922 228.414 35.01 228.226 35.1277C227.59 35.5516 226.977 36.0109 226.389 36.5054C225.8 36.9764 225.235 37.5063 224.693 38.0951C224.622 37.9538 224.528 37.8596 224.41 37.8125C224.293 37.7654 224.151 37.7418 223.986 37.7418C223.845 37.7418 223.692 37.7536 223.527 37.7772C223.386 37.8007 223.256 37.8007 223.139 37.7772C222.691 38.1069 222.102 38.3659 221.372 38.5543C220.666 38.7663 220.03 38.8134 219.465 38.6957C219.3 38.6486 219.076 38.5543 218.793 38.413C218.511 38.2953 218.299 38.1893 218.158 38.0951C217.239 37.4828 216.544 36.7292 216.073 35.8342C215.626 34.9158 215.379 33.9149 215.332 32.8315L215.049 32.5489C215.355 32.2663 215.543 31.9837 215.614 31.7011C215.708 31.4185 215.732 31.1359 215.685 30.8533C215.661 30.5471 215.602 30.2409 215.508 29.9348C215.437 29.6051 215.39 29.2754 215.367 28.9457C215.343 28.7337 215.343 28.5571 215.367 28.4158C215.414 28.2745 215.461 28.1096 215.508 27.9212C215.697 27.1676 215.873 26.4375 216.038 25.731C216.203 25.0009 216.38 24.2708 216.568 23.5408C217.039 21.7509 217.581 19.9846 218.193 18.2418C218.829 16.4755 219.488 14.7328 220.171 13.0136C219.794 12.8723 219.418 12.7899 219.041 12.7663C218.664 12.7192 218.275 12.6957 217.875 12.6957C217.498 12.6957 217.11 12.6839 216.709 12.6603C216.332 12.6368 215.956 12.5543 215.579 12.413C215.414 12.3424 215.332 12.3071 215.332 12.3071C215.332 12.2835 215.237 12.2717 215.049 12.2717C214.931 12.2717 214.766 12.2953 214.554 12.3424C214.342 12.3659 214.13 12.3777 213.918 12.3777C213.707 12.3777 213.518 12.3542 213.353 12.3071C213.165 12.26 213.059 12.154 213.035 11.9891V11.6359C213.059 11.2591 213.141 11.0118 213.283 10.894C213.424 10.7527 213.601 10.6703 213.812 10.6467C214.024 10.5996 214.26 10.5761 214.519 10.5761C214.778 10.5525 215.025 10.4701 215.261 10.3288C215.92 10.4701 216.544 10.5761 217.133 10.6467C217.722 10.6938 218.287 10.6821 218.829 10.6114C219.394 10.5408 219.936 10.3877 220.454 10.1522C220.995 9.91667 221.525 9.56341 222.043 9.09239C222.42 8.36232 222.703 7.58515 222.891 6.76087C223.08 5.91304 223.292 5.08877 223.527 4.28804C223.786 3.46377 224.116 2.71015 224.516 2.02717C224.917 1.32065 225.529 0.731885 226.353 0.260871C226.73 0.213769 227.06 0.260871 227.342 0.402175C227.625 0.543479 227.908 0.696559 228.19 0.861414C228.072 1.19112 227.978 1.53261 227.908 1.88587C227.837 2.23913 227.755 2.59239 227.66 2.94565C227.59 3.29891 227.495 3.6404 227.378 3.97011C227.26 4.29982 227.083 4.60598 226.848 4.88859C227.154 5.00634 227.331 5.14765 227.378 5.3125C227.425 5.47736 227.401 5.65399 227.307 5.84239C227.213 6.0308 227.095 6.23098 226.954 6.44294C226.812 6.65489 226.73 6.8433 226.707 7.00815C226.447 7.0317 226.224 7.19656 226.035 7.50272C225.87 7.80888 225.694 8.04438 225.505 8.20924C225.317 8.6096 225.352 8.95109 225.611 9.2337C225.87 9.51631 226.106 9.78714 226.318 10.0462C226.53 10.1168 226.742 10.1286 226.954 10.0815C227.166 10.0109 227.354 9.94022 227.519 9.86957C227.707 9.79891 227.884 9.76359 228.049 9.76359C228.214 9.76359 228.367 9.85779 228.508 10.0462C228.744 9.78714 228.979 9.68116 229.215 9.72826C229.45 9.75181 229.686 9.81069 229.921 9.90489C230.157 9.97554 230.392 10.0109 230.628 10.0109C230.863 9.98732 231.087 9.79891 231.299 9.44565C231.582 9.30435 231.841 9.26902 232.076 9.33967C232.335 9.41033 232.571 9.50453 232.783 9.62228C232.995 9.71649 233.195 9.79891 233.383 9.86957C233.595 9.91667 233.807 9.86957 234.019 9.72826C234.372 9.77536 234.761 9.78714 235.185 9.76359C235.632 9.74004 236.068 9.69294 236.492 9.62228C236.939 9.55163 237.375 9.4692 237.799 9.375C238.246 9.25725 238.647 9.16304 239 9.09239C239.353 9.30435 239.565 9.49275 239.636 9.65761C239.707 9.82246 239.718 9.98732 239.671 10.1522C239.648 10.317 239.601 10.5054 239.53 10.7174C239.483 10.9058 239.506 11.1531 239.601 11.4592ZM257.546 26.1902C257.334 26.4022 257.169 26.567 257.052 26.6848C256.957 26.8025 256.863 26.9203 256.769 27.038C256.698 27.1322 256.604 27.2382 256.486 27.356C256.392 27.4737 256.239 27.6504 256.027 27.8859C255.839 28.0743 255.662 28.2745 255.497 28.4864C255.332 28.6984 255.144 28.8868 254.932 29.0516C254.649 28.981 254.426 29.0163 254.261 29.1576C254.12 29.2989 253.978 29.4638 253.837 29.6522C253.719 29.817 253.601 29.9819 253.484 30.1467C253.389 30.288 253.26 30.3469 253.095 30.3234C252.53 30.6295 251.965 30.9004 251.399 31.1359C250.834 31.3478 250.293 31.6658 249.774 32.0897L249.492 31.8071L245.818 33.5734C245.7 33.6205 245.582 33.6911 245.465 33.7853C245.347 33.8795 245.229 33.962 245.111 34.0326C244.593 34.3152 244.052 34.5743 243.486 34.8098C242.945 35.0217 242.403 35.2219 241.861 35.4103L241.402 35.5516C241.591 36.0226 241.591 36.3524 241.402 36.5408C241.214 36.7292 240.943 36.8705 240.59 36.9647C240.236 37.0353 239.848 37.0824 239.424 37.106C239 37.1295 238.67 37.212 238.435 37.3533C238.152 37.3062 237.858 37.2826 237.552 37.2826C237.269 37.3062 236.975 37.3415 236.668 37.3886C236.339 37.4357 236.033 37.4592 235.75 37.4592C235.467 37.4592 235.161 37.4239 234.832 37.3533H234.761C234.361 37.5417 234.007 37.577 233.701 37.4592C233.418 37.365 233.159 37.2002 232.924 36.9647C232.688 36.7056 232.465 36.4112 232.253 36.0815C232.064 35.7283 231.864 35.4103 231.652 35.1277C231.511 34.9393 231.334 34.6685 231.122 34.3152C230.91 33.962 230.734 33.5851 230.592 33.1848C230.428 32.7844 230.333 32.3841 230.31 31.9837C230.263 31.5598 230.345 31.1947 230.557 30.8886C230.769 30.5824 230.946 30.2527 231.087 29.8995C231.205 29.5462 231.264 29.1341 231.264 28.663C231.264 28.4982 231.264 28.3451 231.264 28.2038C231.24 28.0625 231.228 27.9094 231.228 27.7446C231.346 27.7446 231.476 27.7563 231.617 27.7799C231.758 27.7799 231.888 27.7799 232.005 27.7799C232.147 27.7563 232.253 27.7092 232.323 27.6386C232.418 27.5444 232.465 27.3913 232.465 27.1793C232.465 27.0616 232.418 26.9674 232.323 26.8967C232.253 26.8261 232.206 26.7554 232.182 26.6848C232.323 26.4728 232.453 26.308 232.571 26.1902C232.712 26.0489 232.83 25.9194 232.924 25.8016C233.018 25.6603 233.089 25.5072 233.136 25.3424C233.183 25.154 233.171 24.9067 233.101 24.6005C233.383 24.106 233.713 23.6703 234.09 23.2935C234.49 22.8931 234.902 22.5281 235.326 22.1984C235.75 21.8451 236.186 21.5036 236.633 21.1739C237.081 20.8442 237.505 20.4909 237.905 20.1141C238.352 20.3025 238.706 20.3025 238.965 20.1141C239.247 19.9257 239.495 19.7255 239.707 19.5136C239.918 19.2781 240.13 19.0897 240.342 18.9484C240.554 18.8071 240.837 18.8659 241.19 19.125L241.261 19.1957C241.897 18.5598 242.533 18.2772 243.168 18.3478C243.828 18.4185 244.381 18.6304 244.829 18.9837C245.3 19.337 245.606 19.7491 245.747 20.2201C245.889 20.6676 245.759 20.9737 245.359 21.1386C245.618 21.3976 245.747 21.7038 245.747 22.0571C245.747 22.4103 245.653 22.7165 245.465 22.9755C245.253 23.2582 245.064 23.5525 244.899 23.8587C244.758 24.1413 244.605 24.4475 244.44 24.7772C244.205 25.3188 243.946 25.837 243.663 26.3315C243.38 26.8025 242.98 27.2029 242.462 27.5326C242.038 27.4149 241.744 27.462 241.579 27.6739C241.438 27.8859 241.332 28.1214 241.261 28.3804C241.19 28.6159 241.108 28.8043 241.014 28.9457C240.919 29.087 240.719 29.0399 240.413 28.8043L240.342 28.7337L240.272 28.8043C240.083 28.9928 239.93 29.2047 239.813 29.4402C239.718 29.6757 239.577 29.8524 239.389 29.9701C239.177 29.8995 238.953 29.8406 238.717 29.7935C238.482 29.7464 238.258 29.6993 238.046 29.6522C238.046 30.1467 237.952 30.5353 237.764 30.8179C237.575 31.1005 237.328 31.3361 237.022 31.5245C236.739 31.6893 236.409 31.8306 236.033 31.9484C235.656 32.0426 235.279 32.1721 234.902 32.337C234.549 32.4783 234.207 32.6667 233.878 32.9022C233.572 33.1141 233.324 33.4203 233.136 33.8207C233.371 34.0797 233.666 34.2328 234.019 34.2799C234.372 34.3034 234.737 34.3034 235.114 34.2799C235.491 34.2328 235.856 34.2092 236.209 34.2092C236.586 34.2092 236.916 34.3034 237.198 34.4918L237.234 34.5272L237.269 34.4918C237.834 34.4212 238.376 34.2917 238.894 34.1033C239.436 33.8913 239.954 33.6793 240.448 33.4674C240.966 33.2319 241.485 33.0199 242.003 32.8315C242.544 32.6196 243.098 32.4665 243.663 32.3723C243.781 32.5607 243.934 32.6667 244.122 32.6902C244.334 32.7138 244.534 32.702 244.723 32.6549L244.758 32.5842C244.805 32.4194 244.852 32.2781 244.899 32.1603C244.947 32.019 245.017 31.8659 245.111 31.7011C245.276 31.442 245.476 31.2418 245.712 31.1005C245.947 30.9592 246.195 30.8533 246.454 30.7826C246.736 30.712 247.031 30.6649 247.337 30.6413C247.643 30.6178 247.949 30.5824 248.255 30.5353H248.326L248.361 30.4293C248.456 30.1467 248.573 29.9583 248.715 29.8641C248.88 29.7464 249.044 29.6639 249.209 29.6168C249.398 29.5697 249.586 29.5344 249.774 29.5109C249.986 29.4873 250.187 29.4167 250.375 29.2989C250.799 29.4402 251.152 29.3931 251.435 29.1576C251.717 28.9221 251.988 28.6748 252.247 28.4158L252.53 28.769L252.636 28.6277C252.989 28.298 253.248 28.0507 253.413 27.8859C253.601 27.721 253.778 27.5797 253.943 27.462C254.108 27.3207 254.296 27.1911 254.508 27.0734C254.744 26.9321 255.062 26.7319 255.462 26.4728C255.792 26.2609 256.11 26.0489 256.416 25.837C256.745 25.625 257.063 25.3895 257.37 25.1304C257.487 25.1775 257.546 25.2717 257.546 25.413C257.546 25.5308 257.546 25.6486 257.546 25.7663C257.523 25.8134 257.499 25.8841 257.476 25.9783C257.476 26.0725 257.499 26.1431 257.546 26.1902ZM242.921 21.7745C242.898 21.7509 242.874 21.7391 242.851 21.7391C242.851 21.7391 242.839 21.7274 242.815 21.7038C242.321 21.4447 241.909 21.327 241.579 21.3505C241.249 21.3505 240.943 21.4447 240.66 21.6332C240.401 21.798 240.154 22.0217 239.918 22.3043C239.707 22.5634 239.471 22.8107 239.212 23.0462C238.976 23.2582 238.694 23.423 238.364 23.5408C238.034 23.6585 237.634 23.6467 237.163 23.5054C237.092 23.8822 237.022 24.2591 236.951 24.6359C236.904 24.9891 236.869 25.3542 236.845 25.731C236.445 25.8723 236.127 26.0725 235.891 26.3315C235.679 26.5906 235.491 26.8732 235.326 27.1793C235.185 27.4855 235.043 27.8152 234.902 28.1685C234.784 28.4982 234.62 28.8161 234.408 29.1223L234.549 29.2989C234.643 29.2518 234.749 29.2871 234.867 29.4049C234.985 29.5226 235.067 29.6051 235.114 29.6522C235.373 29.2754 235.715 28.9574 236.139 28.6984C236.586 28.4393 237.034 28.2038 237.481 27.9918C237.952 27.7563 238.399 27.5091 238.823 27.25C239.247 26.9909 239.565 26.6495 239.777 26.2255C240.531 26.0136 241.096 25.5897 241.473 24.9538C241.85 24.3179 242.168 23.6585 242.427 22.9755C242.474 22.8342 242.556 22.6341 242.674 22.375C242.815 22.0924 242.898 21.8922 242.921 21.7745ZM277.965 30.0054C277.423 30.2645 277.058 30.5824 276.87 30.9592C276.681 31.3361 276.528 31.7246 276.41 32.125C276.316 32.5254 276.187 32.9139 276.022 33.2908C275.88 33.644 275.562 33.9384 275.068 34.1739C274.95 34.5978 274.715 34.8922 274.361 35.0571C274.032 35.2219 273.678 35.375 273.302 35.5163C272.925 35.6341 272.583 35.7989 272.277 36.0109C271.995 36.2228 271.853 36.5879 271.853 37.106C271.382 37.365 270.864 37.6005 270.299 37.8125C269.757 38.0245 269.18 38.1775 268.568 38.2717C267.979 38.3895 267.39 38.4366 266.802 38.413C266.213 38.3895 265.659 38.2717 265.141 38.0598C264.788 37.8949 264.447 37.683 264.117 37.4239C263.999 37.3297 263.881 37.2473 263.764 37.1766C263.669 37.1295 263.563 37.0471 263.446 36.9293C263.163 36.6467 262.928 36.317 262.739 35.9402C262.551 35.5634 262.398 35.163 262.28 34.7391C262.162 34.3152 262.068 33.8913 261.997 33.4674C261.927 33.0435 261.868 32.6431 261.821 32.2663L263.128 28.7337C262.445 28.192 261.891 27.5679 261.467 26.8614C261.043 26.1313 260.525 25.4601 259.913 24.8478C259.795 25.0127 259.642 25.154 259.454 25.2717C259.265 25.3895 259.195 25.5779 259.242 25.837L259.595 26.1549C258.818 27.0027 258.029 27.9683 257.228 29.0516C256.451 30.1114 255.839 31.183 255.391 32.2663C254.873 32.2428 254.508 32.3723 254.296 32.6549C254.084 32.9139 253.908 33.2201 253.766 33.5734C253.625 33.9031 253.448 34.2092 253.236 34.4918C253.024 34.7745 252.671 34.8922 252.177 34.8451C252.059 35.1042 251.941 35.3868 251.823 35.6929C251.706 35.9755 251.564 36.2464 251.399 36.5054C251.235 36.7645 251.034 36.9764 250.799 37.1413C250.563 37.3297 250.269 37.4239 249.916 37.4239C249.727 37.2355 249.621 37.0353 249.598 36.8234C249.574 36.6114 249.598 36.3995 249.668 36.1875C249.739 35.952 249.833 35.7283 249.951 35.5163C250.069 35.2808 250.151 35.0571 250.198 34.8451C250.387 34.1621 250.728 33.5498 251.223 33.0082C251.717 32.4429 252.212 31.8895 252.707 31.3478C253.201 30.7826 253.625 30.1938 253.978 29.5815C254.332 28.9692 254.473 28.2509 254.402 27.4266C254.708 27.4031 255.014 27.3442 255.321 27.25C255.65 27.1322 255.945 26.9909 256.204 26.8261C256.486 26.6377 256.698 26.4139 256.84 26.1549C257.005 25.8723 257.063 25.5426 257.016 25.1658C256.828 25.0716 256.722 24.942 256.698 24.7772C256.675 24.5888 256.675 24.4004 256.698 24.212C257.216 24.0471 257.629 23.7645 257.935 23.3641C258.264 22.9402 258.559 22.4928 258.818 22.0217C259.077 21.5507 259.324 21.0797 259.56 20.6087C259.819 20.1141 260.149 19.6902 260.549 19.337C260.879 19.5254 261.208 19.6902 261.538 19.8315C261.868 19.9493 262.186 20.1141 262.492 20.3261C262.28 20.6087 262.15 20.8795 262.103 21.1386C262.056 21.3976 262.033 21.6685 262.033 21.9511C262.033 22.2101 262.033 22.4692 262.033 22.7283C262.033 22.9873 261.962 23.2582 261.821 23.5408C262.197 23.8705 262.515 24.2591 262.774 24.7065C263.034 25.154 263.363 25.5308 263.764 25.837C264.046 25.625 264.364 25.519 264.717 25.519C265.071 25.4955 265.424 25.4955 265.777 25.519C266.154 25.519 266.507 25.4955 266.837 25.4484C267.167 25.3777 267.437 25.1775 267.649 24.8478C267.744 24.942 267.885 24.9891 268.073 24.9891C268.262 24.9891 268.45 24.9891 268.639 24.9891C268.827 24.9891 268.992 25.0245 269.133 25.0951C269.274 25.1422 269.357 25.2482 269.38 25.413C269.404 25.6014 269.392 25.731 269.345 25.8016C269.322 25.8723 269.286 25.99 269.239 26.1549C269.192 26.3433 269.18 26.4375 269.204 26.4375C269.227 26.4375 269.204 26.5199 269.133 26.6848C269.015 26.9909 268.815 27.25 268.533 27.462C268.274 27.6739 268.003 27.8859 267.72 28.0978C267.461 28.2862 267.214 28.51 266.978 28.769C266.766 29.0045 266.66 29.3107 266.66 29.6875C266.142 29.8759 265.777 30.1585 265.565 30.5353C265.353 30.8886 265.212 31.3007 265.141 31.7717C265.071 32.2192 265.024 32.6902 265 33.1848C264.976 33.6558 264.894 34.0915 264.753 34.4918L265.071 34.8451L265.353 34.4918C265.683 34.9629 266.072 35.2572 266.519 35.375C266.99 35.4928 267.473 35.5281 267.967 35.481C268.203 35.1277 268.474 34.8451 268.78 34.6332C269.11 34.4212 269.451 34.2446 269.804 34.1033C270.181 33.962 270.558 33.8324 270.935 33.7147C271.335 33.5969 271.712 33.4556 272.065 33.2908C272.348 33.1495 272.583 32.9964 272.772 32.8315C272.984 32.6667 273.207 32.4783 273.443 32.2663C274.149 31.6069 274.844 30.9592 275.527 30.3234C276.234 29.6875 276.94 29.0399 277.647 28.3804C277.788 28.3804 277.882 28.4511 277.929 28.5924C277.976 28.7337 278 28.8986 278 29.087C278 29.2518 277.988 29.4284 277.965 29.6168C277.965 29.7817 277.965 29.9112 277.965 30.0054Z" fill="white"/>
</svg>
